<svg viewBox="0 0 50 50" fill="none" xmlns="http://www.w3.org/2000/svg">
<path d="M13.5171 31L13.4531 30.84L16.7171 24.056L16.8291 24.824C16.6158 25.1973 16.3865 25.528 16.1411 25.816C15.8958 26.0933 15.6291 26.328 15.3411 26.52C15.0638 26.712 14.7705 26.8613 14.4611 26.968C14.1518 27.064 13.8318 27.112 13.5011 27.112C12.8611 27.112 12.2745 26.9467 11.7411 26.616C11.2185 26.2853 10.7971 25.848 10.4771 25.304C10.1678 24.76 10.0131 24.1573 10.0131 23.496C10.0131 22.76 10.1838 22.0987 10.5251 21.512C10.8665 20.9253 11.3305 20.4667 11.9171 20.136C12.5038 19.7947 13.1545 19.624 13.8691 19.624C14.4025 19.624 14.8931 19.72 15.3411 19.912C15.7998 20.104 16.1998 20.3707 16.5411 20.712C16.8931 21.0533 17.1651 21.4533 17.3571 21.912C17.5491 22.36 17.6451 22.8453 17.6451 23.368C17.6451 23.6773 17.6025 24.0187 17.5171 24.392C17.4425 24.7547 17.3305 25.144 17.1811 25.56C17.0318 25.9653 16.8611 26.392 16.6691 26.84C16.4771 27.288 16.2691 27.7467 16.0451 28.216L14.7171 31H13.5171ZM13.7731 25.928C14.2531 25.928 14.6851 25.816 15.0691 25.592C15.4531 25.3573 15.7571 25.048 15.9811 24.664C16.2051 24.28 16.3171 23.8533 16.3171 23.384C16.3171 22.904 16.2051 22.4667 15.9811 22.072C15.7678 21.6773 15.4691 21.368 15.0851 21.144C14.7011 20.92 14.2691 20.808 13.7891 20.808C13.3198 20.808 12.8985 20.92 12.5251 21.144C12.1518 21.368 11.8531 21.672 11.6291 22.056C11.4158 22.44 11.3091 22.8773 11.3091 23.368C11.3091 23.8373 11.4158 24.264 11.6291 24.648C11.8531 25.032 12.1518 25.3413 12.5251 25.576C12.8985 25.8107 13.3145 25.928 13.7731 25.928ZM22.314 31L22.25 30.84L25.514 24.056L25.626 24.824C25.4127 25.1973 25.1833 25.528 24.938 25.816C24.6927 26.0933 24.426 26.328 24.138 26.52C23.8607 26.712 23.5673 26.8613 23.258 26.968C22.9487 27.064 22.6287 27.112 22.298 27.112C21.658 27.112 21.0713 26.9467 20.538 26.616C20.0153 26.2853 19.594 25.848 19.274 25.304C18.9647 24.76 18.81 24.1573 18.81 23.496C18.81 22.76 18.9807 22.0987 19.322 21.512C19.6633 20.9253 20.1273 20.4667 20.714 20.136C21.3007 19.7947 21.9513 19.624 22.666 19.624C23.1993 19.624 23.69 19.72 24.138 19.912C24.5967 20.104 24.9967 20.3707 25.338 20.712C25.69 21.0533 25.962 21.4533 26.154 21.912C26.346 22.36 26.442 22.8453 26.442 23.368C26.442 23.6773 26.3993 24.0187 26.314 24.392C26.2393 24.7547 26.1273 25.144 25.978 25.56C25.8287 25.9653 25.658 26.392 25.466 26.84C25.274 27.288 25.066 27.7467 24.842 28.216L23.514 31H22.314ZM22.57 25.928C23.05 25.928 23.482 25.816 23.866 25.592C24.25 25.3573 24.554 25.048 24.778 24.664C25.002 24.28 25.114 23.8533 25.114 23.384C25.114 22.904 25.002 22.4667 24.778 22.072C24.5647 21.6773 24.266 21.368 23.882 21.144C23.498 20.92 23.066 20.808 22.586 20.808C22.1167 20.808 21.6953 20.92 21.322 21.144C20.9487 21.368 20.65 21.672 20.426 22.056C20.2127 22.44 20.106 22.8773 20.106 23.368C20.106 23.8373 20.2127 24.264 20.426 24.648C20.65 25.032 20.9487 25.3413 21.322 25.576C21.6953 25.8107 22.1113 25.928 22.57 25.928ZM29.3509 31L36.7909 19.8H38.0549L30.5829 31H29.3509ZM30.1829 25.736C29.7029 25.736 29.2762 25.608 28.9029 25.352C28.5402 25.0853 28.2522 24.728 28.0389 24.28C27.8362 23.8213 27.7349 23.2987 27.7349 22.712C27.7349 22.1253 27.8362 21.6027 28.0389 21.144C28.2522 20.6747 28.5455 20.312 28.9189 20.056C29.2922 19.7893 29.7189 19.656 30.1989 19.656C30.6789 19.656 31.1002 19.7893 31.4629 20.056C31.8362 20.312 32.1242 20.6747 32.3269 21.144C32.5402 21.6027 32.6469 22.1253 32.6469 22.712C32.6469 23.2773 32.5402 23.7893 32.3269 24.248C32.1135 24.7067 31.8202 25.0693 31.4469 25.336C31.0735 25.6027 30.6522 25.736 30.1829 25.736ZM30.1989 24.776C30.4869 24.776 30.7322 24.696 30.9349 24.536C31.1482 24.3653 31.3082 24.1253 31.4149 23.816C31.5322 23.5067 31.5909 23.1333 31.5909 22.696C31.5909 22.2693 31.5322 21.9013 31.4149 21.592C31.3082 21.2827 31.1482 21.0427 30.9349 20.872C30.7215 20.7013 30.4709 20.616 30.1829 20.616C29.8949 20.616 29.6442 20.7067 29.4309 20.888C29.2175 21.0587 29.0522 21.2987 28.9349 21.608C28.8282 21.9173 28.7749 22.2853 28.7749 22.712C28.7749 23.1387 28.8282 23.5067 28.9349 23.816C29.0522 24.1253 29.2175 24.3653 29.4309 24.536C29.6442 24.696 29.9002 24.776 30.1989 24.776ZM37.2709 31.144C36.7909 31.144 36.3642 31.016 35.9909 30.76C35.6282 30.4933 35.3402 30.136 35.1269 29.688C34.9135 29.2293 34.8069 28.7067 34.8069 28.12C34.8069 27.5333 34.9082 27.0107 35.1109 26.552C35.3242 26.0827 35.6175 25.72 35.9909 25.464C36.3642 25.1973 36.7909 25.064 37.2709 25.064C37.7509 25.064 38.1722 25.1973 38.5349 25.464C38.9082 25.72 39.1962 26.0827 39.3989 26.552C39.6122 27.0107 39.7189 27.5333 39.7189 28.12C39.7189 28.6853 39.6122 29.1973 39.3989 29.656C39.1855 30.1147 38.8922 30.4773 38.5189 30.744C38.1562 31.0107 37.7402 31.144 37.2709 31.144ZM37.2709 30.184C37.5589 30.184 37.8095 30.104 38.0229 29.944C38.2362 29.7733 38.3962 29.5333 38.5029 29.224C38.6202 28.9147 38.6789 28.5413 38.6789 28.104C38.6789 27.6773 38.6202 27.3093 38.5029 27C38.3962 26.6907 38.2362 26.4507 38.0229 26.28C37.8095 26.1093 37.5589 26.024 37.2709 26.024C36.9722 26.024 36.7162 26.1093 36.5029 26.28C36.3002 26.4507 36.1402 26.696 36.0229 27.016C35.9162 27.3253 35.8629 27.6933 35.8629 28.12C35.8629 28.5467 35.9162 28.9147 36.0229 29.224C36.1402 29.5333 36.3002 29.7733 36.5029 29.944C36.7162 30.104 36.9722 30.184 37.2709 30.184Z" fill="#16A34A"/>
<circle cx="25" cy="25" r="24.5" stroke="#16A34A"/>
</svg>
