<svg version="1.1" xmlns="http://www.w3.org/2000/svg" xmlns:xlink="http://www.w3.org/1999/xlink" x="0px" y="0px"
	viewBox="0 0 74 74" style="enable-background:new 0 0 74 74;" xml:space="preserve">
<g>
	<path d="M37,68.6C19.6,68.6,5.4,54.4,5.4,37S19.6,5.4,37,5.4S68.6,19.6,68.6,37S54.4,68.6,37,68.6z M37,6.9
		C20.4,6.9,6.9,20.4,6.9,37S20.4,67.1,37,67.1S67.1,53.6,67.1,37S53.6,6.9,37,6.9z"/>
</g>
<g>
	<path d="M33.1,48.6c-0.2,0-0.4-0.1-0.5-0.2c-0.3-0.3-0.3-0.8,0-1.1L42.9,37L32.6,26.6c-0.3-0.3-0.3-0.8,0-1.1
		c0.3-0.3,0.8-0.3,1.1,0l10.9,10.9c0.3,0.3,0.3,0.8,0,1.1L33.6,48.4C33.5,48.6,33.3,48.6,33.1,48.6z"/>
</g>
</svg>
