
<svg version="1.1" xmlns="http://www.w3.org/2000/svg" xmlns:xlink="http://www.w3.org/1999/xlink" x="0px" y="0px"
	viewBox="0 0 40 40" style="enable-background:new 0 0 40 40;" xml:space="preserve">
<g>
	<path d="M20,37.4c-9.6,0-17.4-7.8-17.4-17.4S10.4,2.6,20,2.6S37.4,10.4,37.4,20S29.6,37.4,20,37.4z M20,4.1
		C11.2,4.1,4.1,11.2,4.1,20S11.2,35.9,20,35.9S35.9,28.8,35.9,20S28.8,4.1,20,4.1z"/>
</g>
<g>
	<path d="M22.1,26.6c-0.2,0-0.4-0.1-0.5-0.2l-5.9-5.9c-0.3-0.3-0.3-0.8,0-1.1l5.9-5.9c0.3-0.3,0.8-0.3,1.1,0s0.3,0.8,0,1.1L17.3,20
		l5.3,5.4c0.3,0.3,0.3,0.8,0,1.1C22.5,26.6,22.3,26.6,22.1,26.6z"/>
</g>
</svg>
