
<svg version="1.1" xmlns="http://www.w3.org/2000/svg" xmlns:xlink="http://www.w3.org/1999/xlink" x="0px" y="0px"
  viewBox="0 0 24 24" style="enable-background:new 0 0 24 24;" xml:space="preserve">
  <path d="M17.3,11.5c-0.3,0-0.5-0.1-0.7-0.3c-0.4-0.4-0.4-1,0-1.4l3-3l-3-3c-0.4-0.4-0.4-1,0-1.4s1-0.4,1.4,0L21.7,6
		c0.4,0.4,0.4,1,0,1.4L18,11.2C17.8,11.4,17.5,11.5,17.3,11.5z"/>
  <path d="M21,7.7H3c-0.6,0-1-0.4-1-1s0.4-1,1-1h18c0.6,0,1,0.4,1,1S21.6,7.7,21,7.7z"/>
  <path d="M6.7,22c-0.3,0-0.5-0.1-0.7-0.3L2.3,18c-0.4-0.4-0.4-1,0-1.4L6,12.8c0.4-0.4,1-0.4,1.4,0s0.4,1,0,1.4l-3,3l3,3
		c0.4,0.4,0.4,1,0,1.4C7.2,21.9,7,22,6.7,22z"/>
  <path d="M21,18.3H3c-0.6,0-1-0.4-1-1s0.4-1,1-1h18c0.6,0,1,0.4,1,1S21.6,18.3,21,18.3z"/>
</svg>
