<svg version="1.1"  xmlns="http://www.w3.org/2000/svg" xmlns:xlink="http://www.w3.org/1999/xlink" x="0px" y="0px"
	viewBox="0 0 24 24" style="enable-background:new 0 0 24 24;" xml:space="preserve">
<g>
	<path d="M17.3,11.2c-0.2,0-0.4-0.1-0.5-0.2c-0.3-0.3-0.3-0.8,0-1.1l3.2-3.2l-3.2-3.2c-0.3-0.3-0.3-0.8,0-1.1s0.8-0.3,1.1,0l3.7,3.7
		c0.3,0.3,0.3,0.8,0,1.1L17.8,11C17.7,11.1,17.5,11.2,17.3,11.2z"/>
</g>
<g>
	<path d="M21,7.5H3c-0.4,0-0.8-0.3-0.8-0.8S2.6,6,3,6h18c0.4,0,0.8,0.3,0.8,0.8S21.4,7.5,21,7.5z"/>
</g>
<g>
	<path d="M6.7,21.7c-0.2,0-0.4-0.1-0.5-0.2l-3.7-3.7c-0.3-0.3-0.3-0.8,0-1.1L6.2,13c0.3-0.3,0.8-0.3,1.1,0s0.3,0.8,0,1.1l-3.2,3.2
		l3.2,3.2c0.3,0.3,0.3,0.8,0,1.1C7.1,21.7,6.9,21.7,6.7,21.7z"/>
</g>
<g>
	<path d="M21,18H3c-0.4,0-0.8-0.3-0.8-0.8s0.3-0.8,0.8-0.8h18c0.4,0,0.8,0.3,0.8,0.8S21.4,18,21,18z"/>
</g>
</svg>
