<svg version="1.1" xmlns="http://www.w3.org/2000/svg" xmlns:xlink="http://www.w3.org/1999/xlink" x="0px" y="0px"
	viewBox="0 0 24 24" style="enable-background:new 0 0 24 24;" xml:space="preserve">
<path d="M7.8,16.8c0,0-0.2-0.2-0.3-0.3c-1-1-2-2.1-2.8-3.2c-0.8-1.1-1.5-2.3-2-3.4C2.2,8.7,2,7.6,2,6.5c0-0.7,0.1-1.3,0.4-1.9
	C2.6,4,3,3.4,3.5,2.9C4.2,2.3,4.8,2,5.6,2c0.3,0,0.6,0.1,0.8,0.2c0.3,0.1,0.5,0.3,0.7,0.6L9.4,6c0.2,0.3,0.3,0.5,0.4,0.7
	c0.1,0.2,0.1,0.4,0.1,0.6c0,0.2-0.1,0.5-0.2,0.7C9.6,8.3,9.4,8.5,9.2,8.7L8.4,9.5C8.3,9.7,8.2,9.8,8.2,9.9c0,0.1,0,0.2,0,0.2
	c0,0.1,0.1,0.1,0.1,0.2c0.2,0.3,0.5,0.8,0.9,1.3c0.4,0.5,0.9,1.1,1.4,1.6c0.1,0.1,0.3,0.3,0.3,0.3L7.8,16.8z"/>
<path d="M21.8,19.2c0,0.1-0.1,0.2-0.1,0.2c-0.2,0.4-0.4,0.7-0.7,1c-0.5,0.5-1,0.9-1.6,1.2c0,0,0,0,0,0c-0.6,0.2-1.2,0.4-1.9,0.4
	c-1,0-2.1-0.2-3.3-0.7c-1.1-0.5-2.3-1.1-3.4-2c-0.4-0.3-2.9-2.5-3.2-2.8l3.5-3c0.3,0.2,2.4,2,2.6,2.1c0.1,0,0.1,0.1,0.2,0.1
	c0.1,0,0.2,0,0.2,0c0.2,0,0.3-0.1,0.4-0.2l0.8-0.8c0.2-0.2,0.5-0.4,0.7-0.6c0.2-0.1,0.5-0.2,0.7-0.2c0.2,0,0.4,0,0.6,0.1
	c0.2,0.1,0.5,0.2,0.7,0.4l3.3,2.4c0.3,0.2,0.4,0.4,0.6,0.6c0.1,0.2,0.2,0.5,0.2,0.8C22,18.6,21.9,18.9,21.8,19.2z"/>
</svg>
