<svg version="1.1" xmlns="http://www.w3.org/2000/svg" xmlns:xlink="http://www.w3.org/1999/xlink" x="0px" y="0px"
	viewBox="0 0 508 424" style="enable-background:new 0 0 508 424;" xml:space="preserve">
<path d="M423.5,194.9L379,239.3c-13.2,80.2-83,141.5-167,141.5c-93.3,0-169.2-75.8-169.2-169
	c0-93.2,75.9-169,169.2-169c66.4,0,124,38.4,151.7,94.2l31.7-31.6C386.3,89.6,375.1,75.1,362,62c-19.5-19.4-42.1-34.7-67.4-45.4
	C268.4,5.6,240.7,0,212,0c-28.6,0-56.4,5.6-82.5,16.7C104.2,27.3,81.6,42.6,62.1,62c-19.5,19.4-34.8,42.1-45.4,67.3
	C5.6,155.5,0,183.2,0,211.8c0,28.6,5.6,56.3,16.7,82.5c10.7,25.2,26,47.9,45.4,67.3c19.5,19.4,42.1,34.7,67.4,45.4
	c26.2,11,53.9,16.7,82.5,16.7c28.6,0,56.4-5.6,82.6-16.7c25.3-10.7,47.9-25.9,67.4-45.4c19.5-19.4,34.8-42.1,45.4-67.3
	c11.1-26.1,16.7-53.9,16.7-82.5C424.1,206.1,423.9,200.5,423.5,194.9z"/>
<polygon points="333.6,166.3 214.4,285.3 95.2,166.3 127.1,134.4 214.4,221.5 301.6,134.4 "/>
<polygon points="507.9,84.3 306.8,285 243,285 444.1,84.3 "/>
</svg>
