<svg viewBox="0 0 50 30" fill="none" xmlns="http://www.w3.org/2000/svg">
<path d="M24.7985 25.8461C24.93 25.8847 25.0698 25.8847 25.2012 25.8461C27.5945 25.1656 29.7527 23.8362 31.4371 22.005C35.7954 17.2196 35.2246 10.7385 34.919 8.72997C34.8964 8.57448 34.8253 8.4301 34.7158 8.31744C34.6063 8.20477 34.464 8.12958 34.3092 8.1026C32.9207 7.86279 31.5604 7.48091 30.2499 6.96297C28.535 6.28493 26.9183 5.38094 25.4427 4.27497C25.3152 4.1786 25.1597 4.12646 24.9999 4.12646C24.84 4.12646 24.6845 4.1786 24.557 4.27497C23.0814 5.38094 21.4647 6.28493 19.7499 6.96297C18.4394 7.48078 17.0791 7.86254 15.6905 8.10222C15.5357 8.1292 15.3934 8.20439 15.2839 8.31706C15.1744 8.42973 15.1033 8.57411 15.0807 8.7296C14.7766 10.7385 14.2044 17.2196 18.5626 22.0046C20.247 23.8359 22.4052 25.1655 24.7985 25.8461Z" fill="#16A34A"/>
<path d="M23.7171 19C23.4076 18.997 23.1108 18.8669 22.8874 18.6361L20.337 15.8736C20.1212 15.641 20 15.3256 20 14.9969C20 14.6681 20.1212 14.3528 20.337 14.1202C20.5576 13.8907 20.8523 13.7625 21.159 13.7625C21.4657 13.7625 21.7604 13.8907 21.981 14.1202L23.7171 16.0059L28.019 11.3577C28.2396 11.1282 28.5343 11 28.841 11C29.1477 11 29.4424 11.1282 29.663 11.3577C29.8788 11.5903 30 11.9056 30 12.2344C30 12.5632 29.8788 12.8785 29.663 13.1111L24.5314 18.6361C24.3137 18.8658 24.0219 18.9962 23.7171 19Z" fill="white"/>
<rect width="50" height="30" rx="6" fill="#16A34A" fill-opacity="0.1"/>
</svg>
