<svg version="1.1" xmlns="http://www.w3.org/2000/svg" xmlns:xlink="http://www.w3.org/1999/xlink" x="0px" y="0px"
	viewBox="0 0 24 24" style="enable-background:new 0 0 24 24;" xml:space="preserve">
<g>
	<path d="M12,23.4c-5.4,0-9.8-4.4-9.8-9.8S6.6,3.9,12,3.9c3.1,0,5.9,1.4,7.8,3.9c0.9,1.2,1.5,2.5,1.8,3.9c0.1,0.6,0.2,1.3,0.2,1.9
		C21.8,19,17.4,23.4,12,23.4z M12,5.4c-4.5,0-8.2,3.7-8.2,8.2s3.7,8.2,8.2,8.2s8.2-3.7,8.2-8.2c0-0.6-0.1-1.1-0.2-1.7
		c-0.2-1.2-0.8-2.3-1.5-3.3C17,6.6,14.6,5.4,12,5.4z"/>
</g>
<g>
	<path d="M12,14.4c-0.4,0-0.8-0.3-0.8-0.8V8c0-0.4,0.3-0.8,0.8-0.8s0.8,0.3,0.8,0.8v5.6C12.8,14.1,12.4,14.4,12,14.4z"/>
</g>
<g>
	<path d="M14.2,2.6H9.8C9.3,2.6,9,2.3,9,1.8s0.3-0.8,0.8-0.8h4.5c0.4,0,0.8,0.3,0.8,0.8S14.7,2.6,14.2,2.6z"/>
</g>
</svg>
