<svg version="1.1" xmlns="http://www.w3.org/2000/svg" xmlns:xlink="http://www.w3.org/1999/xlink" x="0px" y="0px"
	viewBox="0 0 24 24" style="enable-background:new 0 0 24 24;" xml:space="preserve">
<g>
	<path d="M9.2,15.4c-0.2,0-0.3-0.1-0.4-0.2c-0.2-0.2-0.2-0.6,0-0.8l5.7-5.7c0.2-0.2,0.6-0.2,0.8,0s0.2,0.6,0,0.8l-5.7,5.7
		C9.5,15.4,9.3,15.4,9.2,15.4z"/>
</g>
<g>
	<path d="M14.8,15.4c-0.2,0-0.3-0.1-0.4-0.2L8.7,9.6C8.5,9.4,8.5,9,8.7,8.7s0.6-0.2,0.8,0l5.7,5.7c0.2,0.2,0.2,0.6,0,0.8
		C15.1,15.4,15,15.4,14.8,15.4z"/>
</g>
<g>
	<path d="M15,22.6H9c-5.3,0-7.6-2.3-7.6-7.6V9c0-5.3,2.3-7.6,7.6-7.6h6c5.3,0,7.6,2.3,7.6,7.6v6C22.6,20.3,20.3,22.6,15,22.6z
		 M9,2.6C4.3,2.6,2.6,4.3,2.6,9v6c0,4.7,1.7,6.4,6.4,6.4h6c4.7,0,6.4-1.7,6.4-6.4V9c0-4.7-1.7-6.4-6.4-6.4H9z"/>
</g>
</svg>
