<svg version="1.1" xmlns="http://www.w3.org/2000/svg" xmlns:xlink="http://www.w3.org/1999/xlink" x="0px" y="0px"
	viewBox="0 0 24 24" style="enable-background:new 0 0 24 24;" xml:space="preserve">
<g>
	<path d="M12,22.6C6.2,22.6,1.4,17.8,1.4,12S6.2,1.4,12,1.4S22.6,6.2,22.6,12S17.8,22.6,12,22.6z M12,2.6c-5.2,0-9.4,4.2-9.4,9.4
		c0,5.2,4.2,9.4,9.4,9.4c5.2,0,9.4-4.2,9.4-9.4C21.4,6.8,17.2,2.6,12,2.6z"/>
</g>
<g>
	<path d="M9.2,15.4c-0.2,0-0.3-0.1-0.4-0.2c-0.2-0.2-0.2-0.6,0-0.8l5.7-5.7c0.2-0.2,0.6-0.2,0.8,0s0.2,0.6,0,0.8l-5.7,5.7
		C9.5,15.4,9.3,15.4,9.2,15.4z"/>
</g>
<g>
	<path d="M14.8,15.4c-0.2,0-0.3-0.1-0.4-0.2L8.7,9.6C8.5,9.4,8.5,9,8.7,8.7s0.6-0.2,0.8,0l5.7,5.7c0.2,0.2,0.2,0.6,0,0.8
		C15.1,15.4,15,15.4,14.8,15.4z"/>
</g>
</svg>
