<svg version="1.1" xmlns="http://www.w3.org/2000/svg" xmlns:xlink="http://www.w3.org/1999/xlink" x="0px" y="0px"
	 viewBox="0 0 24 24" style="enable-background:new 0 0 24 24;" xml:space="preserve">
<g>
	<path d="M10.8,21.9c-0.3,0-0.5,0-0.8-0.1c-1.1-0.4-1.9-1.6-1.6-2.8l0.5-3.2c0-0.2,0-0.3-0.1-0.5c-0.1-0.1-0.2-0.2-0.4-0.2h-4
		c-0.9,0-1.7-0.4-2.1-1c-0.4-0.6-0.5-1.4-0.2-2.3l2.4-7.3c0.3-1.3,1.8-2.4,3.3-2.4h3.8c0.7,0,1.7,0.2,2.3,0.7l3.1,2.4L16.2,6
		l-3.1-2.4c-0.3-0.3-1-0.5-1.6-0.5H7.7c-1,0-2.1,0.8-2.3,1.7L3,12.2c-0.2,0.5-0.1,1,0.1,1.4c0.3,0.4,0.7,0.6,1.3,0.6h4
		c0.4,0,0.9,0.2,1.1,0.5c0.3,0.3,0.4,0.8,0.4,1.3l-0.5,3.2c-0.1,0.7,0.3,1.4,1,1.6c0.6,0.2,1.4-0.1,1.6-0.5l4.1-6.1l0.8,0.6
		l-4.1,6.1C12.5,21.4,11.6,21.9,10.8,21.9z"/>
</g>
<g>
	<path d="M19.6,17.8h-1c-1.7,0-2.5-0.8-2.5-2.4V5.6c0-1.6,0.8-2.4,2.5-2.4h1c1.7,0,2.5,0.8,2.5,2.4v9.8
		C22.1,17.1,21.3,17.8,19.6,17.8z M18.6,4.2c-1.2,0-1.5,0.3-1.5,1.4v9.8c0,1.1,0.3,1.4,1.5,1.4h1c1.2,0,1.5-0.3,1.5-1.4V5.6
		c0-1.1-0.3-1.4-1.5-1.4H18.6z"/>
</g>
</svg>
