<?xml version="1.0" encoding="utf-8"?>
<!-- Generator: Adobe Illustrator 26.3.1, SVG Export Plug-In . SVG Version: 6.00 Build 0)  -->
<svg version="1.1" id="Layer_1" xmlns="http://www.w3.org/2000/svg" xmlns:xlink="http://www.w3.org/1999/xlink" x="0px" y="0px"
	 viewBox="0 0 24 24" style="enable-background:new 0 0 24 24;" xml:space="preserve">
<path d="M12,22.8c-0.9,0-1.9-0.1-2.8-0.4c-2.8-0.7-5.1-2.5-6.5-5C1.3,14.9,0.9,12,1.6,9.2c0.7-2.8,2.5-5.1,5-6.5
	c2.5-1.4,5.4-1.8,8.2-1.1C17,2.2,19,3.5,20.5,5.4c0.3,0.3,0.2,0.8-0.1,1.1c-0.3,0.3-0.8,0.2-1.1-0.1c-1.3-1.6-2.9-2.7-4.9-3.2
	C12,2.4,9.5,2.8,7.4,4C5.2,5.2,3.7,7.2,3.1,9.6c-0.6,2.4-0.3,4.9,0.9,7c1.2,2.1,3.2,3.7,5.6,4.3c2.4,0.6,4.9,0.3,7-0.9
	s3.7-3.2,4.3-5.6c0.3-1.3,0.4-2.5,0.2-3.8c-0.1-0.4,0.2-0.8,0.6-0.9c0.4-0.1,0.8,0.2,0.9,0.6c0.2,1.5,0.2,3-0.2,4.4
	c-0.7,2.8-2.5,5.1-5,6.5C15.7,22.3,13.9,22.8,12,22.8z"/>
<path d="M15.5,14.8c-0.2,0-0.4-0.1-0.5-0.2c-0.3-0.3-0.3-0.8,0-1.1l6.5-7c0.3-0.3,0.8-0.3,1.1,0c0.3,0.3,0.3,0.8,0,1.1l-6.5,7
	C15.9,14.7,15.7,14.8,15.5,14.8z M12,14.5c-0.3,0-0.7-0.1-0.9-0.4l-3.6-3.8c-0.3-0.3-0.3-0.8,0-1.1C7.8,9,8.3,9,8.5,9.3l3.4,3.6
	l3.4-3.6c0.3-0.3,0.8-0.3,1.1,0c0.3,0.3,0.3,0.8,0,1.1l-3.6,3.8C12.6,14.4,12.3,14.5,12,14.5z"/>
</svg>
