<svg version="1.1" xmlns="http://www.w3.org/2000/svg" xmlns:xlink="http://www.w3.org/1999/xlink" x="0px" y="0px"
	 viewBox="0 0 24 24" style="enable-background:new 0 0 24 24;" xml:space="preserve">
<g>
	<path d="M15.3,22.1H8.7c-4.8,0-6.9-2.1-6.9-6.9v-0.1c0-4.3,1.7-6.4,5.5-6.8c0.3,0,0.6,0.2,0.7,0.5c0,0.3-0.2,0.6-0.5,0.7
		c-3.2,0.3-4.4,1.9-4.4,5.6v0.1c0,4.1,1.5,5.7,5.7,5.7h6.5c4.1,0,5.7-1.5,5.7-5.7v-0.1c0-3.8-1.3-5.3-4.5-5.6
		c-0.3,0-0.6-0.3-0.5-0.6c0-0.3,0.3-0.6,0.6-0.5c3.9,0.3,5.6,2.4,5.6,6.8v0.1C22.1,20,20.1,22.1,15.3,22.1z"/>
</g>
<g>
	<path d="M12,15.6c-0.3,0-0.6-0.3-0.6-0.6V3.6C11.4,3.3,11.7,3,12,3s0.6,0.3,0.6,0.6V15C12.6,15.3,12.3,15.6,12,15.6z"/>
</g>
<g>
	<path d="M15.4,6.5c-0.2,0-0.3-0.1-0.4-0.2L12,3.3L9.1,6.3c-0.2,0.2-0.6,0.2-0.8,0S8,5.7,8.2,5.4l3.4-3.4c0.2-0.2,0.6-0.2,0.8,0
		l3.3,3.4C16,5.7,16,6,15.8,6.3C15.7,6.4,15.5,6.5,15.4,6.5z"/>
</g>
</svg>
