<svg version="1.1" xmlns="http://www.w3.org/2000/svg" xmlns:xlink="http://www.w3.org/1999/xlink" x="0px" y="0px"
	viewBox="0 0 32 32" style="enable-background:new 0 0 32 32;" xml:space="preserve">
<path style="fill-rule:evenodd;clip-rule:evenodd;" d="M0,16C0,7.2,7.2,0,16,0c8.8,0,16,7.2,16,16c0,8.8-7.2,16-16,16
	C7.2,32,0,24.8,0,16z M16,8c4.4,0,8,3.6,8,8c0,4-2.9,7.4-6.9,8v-5.7H19l0.4-2.3h-2.2v-1.5c0-0.6,0.3-1.2,1.3-1.2h1v-2
	c0,0-0.9-0.2-1.8-0.2c-1.8,0-3,1.1-3,3.1V16h-2v2.3h2v5.6C10.9,23.3,8,20,8,16C8,11.6,11.6,8,16,8z"/>
</svg>
