<svg version="1.1"  xmlns="http://www.w3.org/2000/svg" xmlns:xlink="http://www.w3.org/1999/xlink" x="0px" y="0px"
	 viewBox="0 0 24 24" style="enable-background:new 0 0 24 24;" xml:space="preserve">
<path d="M19.9,6.5h-1.7V2.9c0-0.2-0.1-0.5-0.3-0.7C17.8,2.1,17.5,2,17.3,2H6.7C6.5,2,6.2,2.1,6.1,2.3C5.9,2.4,5.8,2.7,5.8,2.9v3.6
	H4.1C3.5,6.5,3,6.8,2.6,7.2C2.2,7.6,2,8.2,2,8.8v5.7c0,0.6,0.2,1.1,0.6,1.5c0.4,0.4,0.9,0.7,1.5,0.7h1.7V21c0,0.3,0.1,0.5,0.3,0.7
	C6.2,21.9,6.5,22,6.7,22h10.5c0.3,0,0.5-0.1,0.7-0.3c0.2-0.2,0.3-0.4,0.3-0.7v-4.2h1.7c0.6,0,1.1-0.3,1.5-0.7c0.4-0.4,0.6-1,0.6-1.5
	V8.7c0-0.6-0.2-1.1-0.6-1.5C21,6.8,20.5,6.5,19.9,6.5z M6.9,3.2h10.1v3.3H6.9V3.2z M17.1,20.8H6.9v-8.6l10.1,0V20.8z M20.8,14.5
	c0,0.3-0.1,0.5-0.2,0.7c-0.2,0.2-0.4,0.3-0.7,0.3h-1.7V12c0-0.3-0.1-0.5-0.3-0.7c-0.1-0.1-0.2-0.2-0.3-0.2c-0.1,0-0.2-0.1-0.4-0.1h0
	l-10.5,0c-0.3,0-0.5,0.1-0.7,0.3c-0.2,0.2-0.3,0.4-0.3,0.7v3.5H4.1c-0.3,0-0.5-0.1-0.7-0.3c-0.2-0.2-0.3-0.5-0.2-0.7V8.7
	c0-0.3,0.1-0.5,0.2-0.7c0.2-0.2,0.4-0.3,0.7-0.3h15.8c0.3,0,0.5,0.1,0.7,0.3c0.2,0.2,0.3,0.5,0.2,0.7V14.5z"/>
<path d="M17.6,10c0.3,0,0.6-0.3,0.6-0.6S18,8.8,17.6,8.8c-0.3,0-0.6,0.3-0.6,0.6S17.3,10,17.6,10z"/>
<path d="M15,15.6H9c-0.2,0-0.3-0.1-0.4-0.2S8.5,15.2,8.5,15c0-0.2,0.1-0.3,0.2-0.4s0.3-0.2,0.4-0.2H15c0.2,0,0.3,0.1,0.4,0.2
	s0.2,0.3,0.2,0.4c0,0.2-0.1,0.3-0.2,0.4S15.1,15.6,15,15.6z M15,18.6H9c-0.2,0-0.3-0.1-0.4-0.2S8.5,18.2,8.5,18s0.1-0.3,0.2-0.4
	s0.3-0.2,0.4-0.2H15c0.2,0,0.3,0.1,0.4,0.2s0.2,0.3,0.2,0.4s-0.1,0.3-0.2,0.4S15.1,18.6,15,18.6z"/>
</svg>
