<svg version="1.1" xmlns="http://www.w3.org/2000/svg" xmlns:xlink="http://www.w3.org/1999/xlink" x="0px" y="0px"
	 viewBox="0 0 800 800" style="enable-background:new 0 0 800 800;" xml:space="preserve">
<g>
	<path d="M633.3,166.7H166.7l233.3,280L633.3,166.7z"/>
</g>
<g>
	<path d="M400,700c-36.8,0-66.7-29.8-66.7-66.7V470.8L115.5,209.3c-16.6-19.9-20.1-47.5-9.2-71c11-23.4,34.5-38.4,60.4-38.4h466.7
		c25.9,0,49.4,15,60.4,38.4c11,23.4,7.4,51.1-9.2,71L466.7,470.8v162.5C466.7,670.2,436.8,700,400,700z M309,233.3l91,109.2
		l91-109.2H309z"/>
</g>
</svg>
