<svg version="1.1" xmlns="http://www.w3.org/2000/svg" xmlns:xlink="http://www.w3.org/1999/xlink" x="0px" y="0px"
	 viewBox="0 0 24 24" style="enable-background:new 0 0 24 24;" xml:space="preserve">
<g>
	<path d="M12,22.8C6.1,22.8,1.2,17.9,1.2,12S6.1,1.2,12,1.2S22.8,6.1,22.8,12S17.9,22.8,12,22.8z M12,2.8c-5.1,0-9.2,4.1-9.2,9.2
		s4.1,9.2,9.2,9.2s9.2-4.1,9.2-9.2S17.1,2.8,12,2.8z"/>
</g>
<g>
	<path d="M9,21.8H8c-0.4,0-0.8-0.3-0.8-0.8c0-0.4,0.3-0.7,0.7-0.8C6.4,14.9,6.4,9.1,8,3.7C7.6,3.7,7.2,3.4,7.2,3
		c0-0.4,0.3-0.8,0.8-0.8h1c0.2,0,0.5,0.1,0.6,0.3C9.7,2.8,9.8,3,9.7,3.2c-1.9,5.7-1.9,11.9,0,17.5c0.1,0.2,0,0.5-0.1,0.7
		C9.5,21.6,9.2,21.8,9,21.8z"/>
</g>
<g>
	<path d="M15,21.8c-0.1,0-0.2,0-0.2,0c-0.4-0.1-0.6-0.6-0.5-0.9c1.9-5.7,1.9-11.9,0-17.5c-0.1-0.4,0.1-0.8,0.5-0.9
		c0.4-0.1,0.8,0.1,0.9,0.5c2,6,2,12.5,0,18.5C15.6,21.6,15.3,21.8,15,21.8z"/>
</g>
<g>
	<path d="M12,17.2c-2.8,0-5.6-0.4-8.3-1.2c0,0.4-0.3,0.7-0.7,0.7c-0.4,0-0.8-0.3-0.8-0.8v-1c0-0.2,0.1-0.5,0.3-0.6
		c0.2-0.1,0.4-0.2,0.7-0.1c5.7,1.9,11.9,1.9,17.5,0c0.2-0.1,0.5,0,0.7,0.1c0.2,0.1,0.3,0.4,0.3,0.6v1c0,0.4-0.3,0.8-0.8,0.8
		c-0.4,0-0.7-0.3-0.8-0.7C17.6,16.8,14.8,17.2,12,17.2z"/>
</g>
<g>
	<path d="M21,9.8c-0.1,0-0.2,0-0.2,0c-5.7-1.9-11.9-1.9-17.5,0C2.8,9.8,2.4,9.6,2.3,9.2C2.2,8.8,2.4,8.4,2.8,8.3c6-2,12.5-2,18.5,0
		c0.4,0.1,0.6,0.6,0.5,0.9C21.6,9.6,21.3,9.8,21,9.8z"/>
</g>
</svg>
