<svg version="1.1" xmlns="http://www.w3.org/2000/svg" xmlns:xlink="http://www.w3.org/1999/xlink" x="0px" y="0px"
	 viewBox="0 0 24 24" style="enable-background:new 0 0 24 24;" xml:space="preserve">
<g>
	<path d="M17.8,22.6H6.2c-2.7,0-4.8-2.2-4.8-4.8v-7.4c0-1.3,0.8-3,1.9-3.8l5.4-4.2c1.5-1.2,4.1-1.3,5.7-0.1l6.2,4.3
		c1.2,0.8,2.1,2.5,2.1,3.9v7.3C22.6,20.4,20.4,22.6,17.8,22.6z M11.6,2.6c-0.8,0-1.6,0.2-2.2,0.7L4,7.5v0c-0.8,0.6-1.4,1.9-1.4,2.8
		v7.4c0,2,1.6,3.6,3.6,3.6h11.6c2,0,3.6-1.6,3.6-3.6v-7.3c0-1-0.7-2.4-1.5-3l-6.2-4.3C13.1,2.8,12.4,2.6,11.6,2.6z M3.6,7L3.6,7
		L3.6,7z"/>
</g>
</svg>
