<svg version="1.1" xmlns="http://www.w3.org/2000/svg" xmlns:xlink="http://www.w3.org/1999/xlink" x="0px" y="0px"
	viewBox="0 0 32 32" style="enable-background:new 0 0 32 32;" xml:space="preserve">
<path d="M16,18.8c-1.5,0-2.8-1.2-2.8-2.8c0-1.5,1.2-2.8,2.8-2.8c1.5,0,2.8,1.2,2.8,2.8C18.8,17.5,17.5,18.8,16,18.8z"/>
<path style="fill-rule:evenodd;clip-rule:evenodd;" d="M19.4,9.2h-6.8c-0.8,0.1-1.2,0.2-1.5,0.3c-0.4,0.1-0.7,0.3-1,0.6
	c-0.2,0.2-0.3,0.5-0.5,0.8c0,0.1-0.1,0.2-0.1,0.2c0,0,0,0.1-0.1,0.1c-0.1,0.3-0.2,0.7-0.2,1.4v6.8c0.1,0.8,0.2,1.2,0.3,1.5
	c0.1,0.4,0.3,0.7,0.6,1c0.2,0.2,0.5,0.3,0.8,0.5c0.1,0,0.2,0.1,0.2,0.1c0,0,0.1,0,0.1,0.1c0.3,0.1,0.7,0.2,1.4,0.2h6.8
	c0.8-0.1,1.2-0.2,1.5-0.3c0.4-0.1,0.7-0.3,1-0.6c0.2-0.2,0.3-0.5,0.5-0.8c0-0.1,0.1-0.2,0.1-0.2c0,0,0-0.1,0.1-0.1
	c0.1-0.3,0.2-0.7,0.2-1.4v-6.8c-0.1-0.8-0.2-1.2-0.3-1.5c-0.1-0.4-0.3-0.7-0.6-1c-0.2-0.2-0.5-0.3-0.8-0.5c-0.1,0-0.2-0.1-0.2-0.1
	c0,0-0.1,0-0.1-0.1C20.5,9.3,20.1,9.2,19.4,9.2z M16,11.7c-2.4,0-4.3,1.9-4.3,4.3s1.9,4.3,4.3,4.3s4.3-1.9,4.3-4.3
	S18.4,11.7,16,11.7z M21.4,11.6c0,0.6-0.4,1-1,1s-1-0.4-1-1c0-0.6,0.4-1,1-1S21.4,11,21.4,11.6z"/>
<path style="fill-rule:evenodd;clip-rule:evenodd;" d="M0,16C0,7.2,7.2,0,16,0c8.8,0,16,7.2,16,16c0,8.8-7.2,16-16,16
	C7.2,32,0,24.8,0,16z M12.6,7.7h6.8c0.9,0.1,1.5,0.2,2,0.4c0.6,0.3,1,0.5,1.5,1s0.8,1,1,1.5c0.2,0.5,0.4,1.1,0.4,2v6.8
	c-0.1,0.9-0.2,1.5-0.4,2c-0.3,0.6-0.5,1-1,1.5s-1,0.8-1.5,1c-0.5,0.2-1.1,0.4-2,0.4h-6.8c-0.9-0.1-1.5-0.2-2-0.4
	c-0.6-0.3-1-0.5-1.5-1s-0.8-1-1-1.5c-0.2-0.5-0.4-1.1-0.4-2v-6.8c0.1-0.9,0.2-1.5,0.4-2c0.3-0.6,0.5-1,1-1.5s1-0.8,1.5-1
	C11.1,7.9,11.7,7.7,12.6,7.7z"/>
</svg>
