<svg version="1.1" xmlns="http://www.w3.org/2000/svg" xmlns:xlink="http://www.w3.org/1999/xlink" x="0px" y="0px"
	 viewBox="0 0 24 24" style="enable-background:new 0 0 24 24;" xml:space="preserve">
<g>
	<path d="M15,22.8H9c-5.4,0-7.8-2.3-7.8-7.8V9c0-5.4,2.3-7.8,7.8-7.8h6c5.4,0,7.8,2.3,7.8,7.8v6C22.8,20.4,20.4,22.8,15,22.8z
		 M9,2.8C4.4,2.8,2.8,4.4,2.8,9v6c0,4.6,1.6,6.2,6.2,6.2h6c4.6,0,6.2-1.6,6.2-6.2V9c0-4.6-1.6-6.2-6.2-6.2H9z"/>
</g>
<g>
	<path d="M8.2,17.2c-0.6,0-1-0.6-0.8-1.1l3.7-9.4C11.2,6.3,11.6,6,12,6h0.4c0.4,0,0.8,0.3,0.9,0.6L17,16c0.2,0.6-0.2,1.2-0.8,1.2
		c-0.4,0-0.7-0.2-0.8-0.6L13,10.4c0-0.1-0.1-0.3-0.2-0.5c-0.1-0.3-0.2-0.6-0.3-1c-0.1-0.4-0.2-0.7-0.3-1c-0.1-0.2-0.1-0.3-0.1-0.4
		c0-0.1,0-0.2,0.1-0.2c0.1,0,0.2,0.1,0.1,0.2c-0.1,0.1-0.1,0.3-0.2,0.5C12,8.4,11.9,8.7,11.8,9c-0.1,0.3-0.2,0.6-0.3,0.9
		c-0.1,0.3-0.2,0.5-0.2,0.7L9,16.7C8.8,17,8.5,17.2,8.2,17.2z M10.1,14.4c-0.6,0-1-0.6-0.8-1.1c0.1-0.3,0.4-0.5,0.8-0.5h4
		c0.3,0,0.6,0.2,0.8,0.5c0.2,0.5-0.2,1.2-0.8,1.2H10.1z"/>
</g>
</svg>
