<svg version="1.1" xmlns="http://www.w3.org/2000/svg" xmlns:xlink="http://www.w3.org/1999/xlink" x="0px" y="0px"
	 viewBox="0 0 24 24" style="enable-background:new 0 0 24 24;" xml:space="preserve">
<g>
	<path d="M16.3,21.8h-3.8c-0.7,0-1.7-0.2-2.3-0.7l-3.1-2.4L7.8,18l3.1,2.4c0.3,0.3,1,0.5,1.6,0.5h3.8c1,0,2.1-0.8,2.3-1.7l2.4-7.3
		c0.2-0.5,0.1-1-0.1-1.4c-0.3-0.4-0.7-0.6-1.3-0.6h-4c-0.4,0-0.9-0.2-1.1-0.5C14.1,9,14,8.6,14.1,8.1l0.5-3.2c0.1-0.7-0.3-1.4-1-1.6
		C13,3,12.3,3.3,12,3.7L7.9,9.8L7.1,9.3l4.1-6.1c0.5-0.7,1.7-1.3,2.8-0.9c1.1,0.4,1.9,1.6,1.6,2.8l-0.5,3.2c0,0.2,0,0.3,0.1,0.5
		c0.1,0.1,0.2,0.2,0.4,0.2h4c0.9,0,1.7,0.4,2.1,1c0.4,0.6,0.5,1.4,0.2,2.3l-2.4,7.3C19.2,20.7,17.8,21.8,16.3,21.8z"/>
</g>
<g>
	<path d="M5.4,20.8h-1c-1.7,0-2.5-0.8-2.5-2.4V8.6c0-1.6,0.8-2.4,2.5-2.4h1c1.7,0,2.5,0.8,2.5,2.4v9.8C7.9,20,7.1,20.8,5.4,20.8z
		 M4.4,7.2c-1.2,0-1.5,0.3-1.5,1.4v9.8c0,1.1,0.3,1.4,1.5,1.4h1c1.2,0,1.5-0.3,1.5-1.4V8.6c0-1.1-0.3-1.4-1.5-1.4H4.4z"/>
</g>
</svg>
