<svg version="1.1" xmlns="http://www.w3.org/2000/svg" xmlns:xlink="http://www.w3.org/1999/xlink" x="0px" y="0px"
	 viewBox="0 0 24 24" style="enable-background:new 0 0 24 24;" xml:space="preserve">
<g>
	<path d="M12,14.2c-2.1,0-3.9-1.7-3.9-3.9S9.9,6.4,12,6.4s3.9,1.7,3.9,3.9S14.1,14.2,12,14.2z M12,7.9c-1.3,0-2.4,1.1-2.4,2.4
		c0,1.3,1.1,2.4,2.4,2.4c1.3,0,2.4-1.1,2.4-2.4C14.4,9,13.3,7.9,12,7.9z"/>
</g>
<g>
	<path d="M12,22.8c-1.5,0-3-0.6-4.1-1.7c-2.9-2.8-6.2-7.4-5-12.8C4,3.4,8.3,1.2,12,1.2c0,0,0,0,0,0c3.7,0,8,2.2,9.1,7.1l0,0
		c1.2,5.4-2,9.9-5,12.7C15,22.2,13.5,22.8,12,22.8z M12,2.8c-2.9,0-6.7,1.5-7.6,5.9C3.3,13.4,6.2,17.4,8.9,20c1.7,1.7,4.4,1.7,6.2,0
		c2.7-2.6,5.6-6.6,4.6-11.3C18.7,4.3,14.9,2.8,12,2.8C12,2.8,12,2.8,12,2.8z"/>
</g>
</svg>
