<svg width="231" height="62" viewBox="0 0 231 62" fill="none" xmlns="http://www.w3.org/2000/svg">
<g clip-path="url(#clip0_2_1303)">
<path d="M75.8949 22.4277C74.4642 22.4277 73.0417 22.575 71.6256 22.8679C70.2079 23.1624 69.1434 23.5071 68.4272 23.9085V41.745H74.5842V28.1871C74.7689 28.1078 74.9876 28.0544 75.2387 28.0269C75.4899 28.001 75.775 27.9865 76.0926 27.9865C77.3904 27.9865 78.5019 28.1726 79.4287 28.5464L80.7006 23.1074C80.1448 22.8679 79.4027 22.6947 78.476 22.5879C77.5492 22.4828 76.6888 22.4277 75.8949 22.4277Z" fill="black"/>
<path d="M92.2457 13.2632H85.4407V19.7362H92.2457V13.2632Z" fill="black"/>
<path d="M83.4951 28.1513H86.0875V41.7448H92.2444V22.811H84.5483L83.4951 28.1513Z" fill="black"/>
<path d="M113.338 32.5401C112.07 31.4866 110.142 30.7212 107.552 30.2405L106.072 29.9606C105.271 29.8004 104.717 29.6013 104.409 29.3602C104.101 29.1207 103.949 28.7873 103.949 28.3601C103.949 28.0672 104.142 27.8148 104.529 27.5995C104.916 27.3859 105.456 27.2791 106.151 27.2791C107.005 27.2791 107.912 27.4588 108.873 27.8196C109.834 28.1789 110.741 28.666 111.595 29.2793L114.959 25.4003C113.837 24.3339 112.515 23.5409 110.994 23.0215C109.472 22.502 107.844 22.2415 106.109 22.2415C104.481 22.2415 103.032 22.4615 101.765 22.9017C100.496 23.3419 99.5031 23.9681 98.7821 24.7821C98.0611 25.5961 97.7014 26.5493 97.7014 27.6416C97.7014 29.2146 98.2815 30.6144 99.4432 31.841C100.605 33.0677 102.426 33.948 104.908 34.4804L106.43 34.8008C107.23 34.961 107.864 35.1811 108.332 35.4611C108.798 35.741 109.032 36.055 109.032 36.4013C109.032 36.7217 108.771 36.9758 108.251 37.1619C107.731 37.348 107.07 37.4418 106.269 37.4418C105.041 37.4418 103.832 37.2622 102.645 36.9013C101.457 36.5421 100.449 35.9886 99.6214 35.241L96.2173 38.8805C97.5524 40.2139 98.9928 41.1396 100.542 41.6607C102.089 42.1801 103.985 42.4407 106.227 42.4407C108.977 42.4407 111.166 41.994 112.794 41.1007C114.422 40.2075 115.237 38.7607 115.237 36.7622C115.241 34.9999 114.607 33.5936 113.338 32.5401Z" fill="black"/>
<path d="M128.578 36.6796C128.042 36.6796 127.621 36.4595 127.313 36.0178C127.005 35.576 126.836 34.9416 126.811 34.1114C126.783 32.7731 126.811 28.1514 126.811 28.1514H130.644V22.8111H126.755V18.9272H120.599V22.8111H117.89L116.844 28.1514H120.599V32.9075V35.3559C120.568 37.3091 121.158 38.9484 122.31 40.2738C123.462 41.5975 125.096 42.261 127.212 42.261C129.087 42.261 130.427 42.0604 131.231 41.659L130.267 36.4401C129.837 36.6003 129.275 36.6796 128.578 36.6796Z" fill="black"/>
<path d="M160.349 19.1229C159.215 16.99 157.566 15.3296 155.404 14.1435C153.241 12.9573 150.652 12.3504 147.637 12.3229C143.447 12.2695 139.401 12.2824 135.504 12.3634V41.5973C139.082 41.6766 143.111 41.6912 147.596 41.6378C151.253 41.586 154.15 40.8999 156.286 39.5794C158.421 38.2589 159.917 36.4998 160.77 34.3006C161.624 32.1014 162.052 29.5348 162.052 26.6009C162.052 23.7495 161.485 21.2557 160.349 19.1229ZM153.043 33.1403C151.922 34.6987 149.96 35.5062 147.157 35.5596C146.063 35.5855 144.555 35.6001 142.632 35.6001V18.2425C144.607 18.2425 146.156 18.2555 147.277 18.283C148.666 18.3089 149.926 18.6358 151.06 19.262C152.194 19.8899 153.089 20.822 153.743 22.0616C154.396 23.3012 154.724 24.8143 154.724 26.6009C154.725 29.4021 154.165 31.5803 153.043 33.1403Z" fill="black"/>
<path d="M185.554 32.2989C185.554 30.3796 185.18 28.6659 184.433 27.1593C183.686 25.6543 182.573 24.473 181.091 23.6201C179.608 22.7673 177.813 22.3401 175.705 22.3401C173.597 22.3401 171.8 22.7673 170.321 23.6201C168.838 24.473 167.724 25.6543 166.977 27.1593C166.23 28.6659 165.855 30.3796 165.855 32.2989C165.855 34.1923 166.236 35.8914 166.998 37.3981C167.758 38.903 168.893 40.0973 170.402 40.9777C171.909 41.858 173.744 42.2982 175.907 42.2982C177.429 42.2982 178.958 42.0231 180.493 41.4777C182.027 40.9323 183.127 40.2316 183.795 39.3772L180.391 35.4189C179.856 35.9529 179.224 36.3462 178.488 36.5986C177.754 36.8543 176.894 36.9805 175.906 36.9805C175.159 36.9805 174.517 36.8656 173.984 36.6391C173.45 36.4141 173.023 36.0873 172.703 35.66C172.382 35.2328 172.181 34.7263 172.103 34.1405H185.515C185.54 33.6858 185.554 33.0724 185.554 32.2989ZM172.179 30.4169C172.179 29.8828 172.34 29.4103 172.66 28.996C172.981 28.5834 173.407 28.2629 173.942 28.0364C174.475 27.8114 175.063 27.6965 175.703 27.6965C176.345 27.6965 176.925 27.8114 177.445 28.0364C177.967 28.2629 178.373 28.5834 178.667 28.996C178.96 29.4103 179.12 29.8828 179.146 30.4169H172.179Z" fill="black"/>
<path d="M197.466 28.3809C198.121 27.9941 198.808 27.8015 199.529 27.8015C200.383 27.8015 201.104 27.9213 201.692 28.1608C202.278 28.4003 202.905 28.8405 203.574 29.4813L207.259 25.6023C206.378 24.5618 205.25 23.7623 203.876 23.2024C202.5 22.6425 201.053 22.3625 199.532 22.3625C197.343 22.3625 195.46 22.7817 193.885 23.6216C192.311 24.4614 191.116 25.6282 190.302 27.1203C189.487 28.6139 189.08 30.3471 189.08 32.3197C189.08 34.3199 189.487 36.0725 190.302 37.5791C191.115 39.0857 192.309 40.2525 193.885 41.0778C195.46 41.9031 197.341 42.3174 199.532 42.3174C201.186 42.3174 202.641 42.0568 203.897 41.5374C205.151 41.0179 206.219 40.2379 207.1 39.1974L203.696 35.1582C203.215 35.7456 202.607 36.1777 201.875 36.4577C201.141 36.7376 200.36 36.8768 199.532 36.8768C198.732 36.8768 198.011 36.6972 197.371 36.3363C196.731 35.977 196.23 35.4559 195.869 34.7763C195.509 34.0966 195.327 33.2761 195.327 32.3165C195.327 31.4637 195.52 30.6901 195.908 29.9975C196.292 29.3081 196.812 28.7676 197.466 28.3809Z" fill="black"/>
<path d="M229.778 27.1221C228.965 25.6285 227.769 24.4633 226.194 23.6218C224.619 22.7819 222.737 22.3628 220.548 22.3628C218.359 22.3628 216.478 22.7819 214.901 23.6218C213.326 24.4633 212.132 25.6285 211.317 27.1221C210.502 28.6158 210.097 30.3473 210.097 32.32C210.097 34.3202 210.502 36.0728 211.317 37.5794C212.131 39.0843 213.325 40.2527 214.901 41.078C216.476 41.905 218.359 42.3176 220.548 42.3176C222.737 42.3176 224.618 41.9034 226.194 41.078C227.769 40.2511 228.963 39.0843 229.778 37.5794C230.592 36.0728 231 34.3186 231 32.32C231.001 30.3473 230.593 28.6158 229.778 27.1221ZM224.234 34.8413C223.834 35.508 223.305 36.0015 222.652 36.3203C221.998 36.6408 221.296 36.801 220.549 36.801C219.802 36.801 219.101 36.6408 218.446 36.3203C217.793 36.0015 217.265 35.508 216.865 34.8413C216.465 34.1745 216.265 33.3346 216.265 32.3216C216.265 31.2827 216.479 30.4282 216.905 29.7615C217.333 29.0948 217.874 28.6093 218.527 28.3018C219.182 27.996 219.854 27.8423 220.549 27.8423C221.243 27.8423 221.917 27.996 222.571 28.3018C223.224 28.6093 223.766 29.0948 224.193 29.7615C224.619 30.4282 224.833 31.2811 224.833 32.3216C224.833 33.333 224.632 34.1729 224.234 34.8413Z" fill="black"/>
<path d="M61.9382 28.5993L55.4556 35.0723C53.5307 46.7659 43.3411 55.7149 31.0969 55.7149C17.4869 55.7149 6.41259 44.6557 6.41259 31.0607C6.41259 17.4672 17.4869 6.40636 31.0969 6.40636C40.7876 6.40636 49.1917 12.0137 53.2294 20.1471L57.8503 15.5334C56.512 13.2338 54.8804 11.1171 52.9718 9.21243C50.1331 6.37723 46.823 4.14887 43.1402 2.5921C39.3229 0.980307 35.2723 0.163086 31.0969 0.163086C26.9232 0.163086 22.8694 0.980307 19.0553 2.5921C15.3709 4.14725 12.0624 6.37561 9.2237 9.21243C6.38343 12.0493 4.15236 15.3538 2.59531 19.0321C0.981551 22.8447 0.16333 26.892 0.16333 31.0607C0.16333 35.2309 0.981551 39.2782 2.59531 43.0892C4.15236 46.7692 6.38343 50.072 9.2237 52.9089C12.0624 55.7457 15.3725 57.9724 19.0553 59.5292C22.871 61.141 26.9232 61.9582 31.0969 61.9582C35.2723 61.9582 39.3245 61.141 43.1402 59.5292C46.8246 57.9724 50.1331 55.7457 52.9718 52.9089C55.812 50.072 58.0431 46.7675 59.6002 43.0892C61.2139 39.2766 62.0321 35.2309 62.0321 31.0607C62.0354 30.2337 62.003 29.4133 61.9382 28.5993Z" fill="black"/>
<path d="M48.824 24.4178L31.4404 41.7785L14.0569 24.4178L18.7118 19.7669L31.4404 32.4784L44.1674 19.7669L48.824 24.4178Z" fill="url(#paint0_linear_2_1303)"/>
<path d="M74.2567 12.4539L44.9223 41.7445H35.6107L64.9468 12.4539H74.2567Z" fill="url(#paint1_linear_2_1303)"/>
</g>
<defs>
<linearGradient id="paint0_linear_2_1303" x1="18.297" y1="47.1525" x2="74.1072" y2="12.414" gradientUnits="userSpaceOnUse">
<stop offset="0.204556" stop-color="#DF9F40"/>
<stop offset="0.66723" stop-color="#F1AD48"/>
<stop offset="1" stop-color="#DF9F40"/>
</linearGradient>
<linearGradient id="paint1_linear_2_1303" x1="18.297" y1="47.1525" x2="74.1072" y2="12.414" gradientUnits="userSpaceOnUse">
<stop offset="0.204556" stop-color="#DF9F40"/>
<stop offset="0.66723" stop-color="#F1AD48"/>
<stop offset="1" stop-color="#DF9F40"/>
</linearGradient>
<clipPath id="clip0_2_1303">
<rect width="231" height="62" fill="white"/>
</clipPath>
</defs>
</svg>
