<?xml version="1.0" encoding="utf-8"?>
<!-- Generator: Adobe Illustrator 26.3.1, SVG Export Plug-In . SVG Version: 6.00 Build 0)  -->
<svg version="1.1" id="Layer_1" xmlns="http://www.w3.org/2000/svg" xmlns:xlink="http://www.w3.org/1999/xlink" x="0px" y="0px"
	 viewBox="0 0 24 24" style="enable-background:new 0 0 24 24;" xml:space="preserve">
<g>
	<path d="M12,15.8c-4.1,0-7.5-3.3-7.5-7.2S7.9,1.2,12,1.2s7.5,3.3,7.5,7.2S16.1,15.8,12,15.8z M12,2.8c-3.3,0-6,2.6-6,5.8
		s2.7,5.8,6,5.8s6-2.6,6-5.8S15.3,2.8,12,2.8z"/>
</g>
<g>
	<path d="M8.4,22.8c-0.3,0-0.6-0.1-0.8-0.2c-0.5-0.3-0.8-0.9-0.8-1.6l0-7.4c0-0.4,0.3-0.7,0.8-0.7c0,0,0,0,0,0
		c0.4,0,0.7,0.3,0.7,0.8l0,7.4c0,0.2,0.1,0.3,0.1,0.3c0,0,0.1,0,0.2-0.1l2.7-1.3c0.4-0.2,1-0.2,1.5,0l2.7,1.3c0.2,0.1,0.2,0.1,0.2,0
		c0,0,0.1-0.1,0.1-0.3v-7.6c0-0.4,0.3-0.8,0.8-0.8s0.8,0.3,0.8,0.8v7.6c0,0.7-0.3,1.3-0.8,1.6c-0.5,0.3-1.1,0.3-1.7,0l-2.7-1.3
		c0,0-0.1,0-0.2,0l-2.7,1.3C9,22.7,8.7,22.8,8.4,22.8z"/>
</g>
<g>
	<path d="M14,10.8c-0.1,0-0.3,0-0.4-0.1l-1.5-1c-0.5-0.3-0.8-0.9-0.8-1.5V6c0-0.4,0.3-0.8,0.8-0.8s0.8,0.3,0.8,0.8v2.1
		c0,0.1,0.1,0.2,0.1,0.3l1.5,1c0.3,0.2,0.5,0.7,0.2,1C14.5,10.6,14.2,10.8,14,10.8z"/>
</g>
</svg>
