<svg viewBox="0 0 50 30" fill="none" xmlns="http://www.w3.org/2000/svg">
<path d="M30.323 18.1778C29.2196 19.9484 27.2805 21.0242 25.1943 21.0228C23.1079 21.0216 21.1702 19.9434 20.069 18.1715L30.323 18.1778ZM19.2491 18.1708C19.5612 18.7577 19.9575 19.2958 20.4255 19.7679C21.1716 20.5101 22.0807 21.0678 23.0803 21.3966C24.08 21.7254 25.1426 21.8162 26.1836 21.6619C27.2246 21.5075 28.2151 21.1122 29.0763 20.5074C29.9375 19.9026 30.6456 19.1051 31.1441 18.1783L31.9499 18.1788C30.7102 20.7868 28.0798 22.4479 25.1921 22.4461C22.3044 22.4443 19.676 20.7799 18.4397 18.1703L19.2491 18.1708ZM30.5893 22.9339C30.3615 22.9063 30.1308 22.9524 29.9311 23.0655C29.7314 23.1786 29.5732 23.3527 29.4798 23.5623C29.4029 23.7421 29.2895 23.9041 29.1468 24.0379C29.0042 24.1717 28.8353 24.2745 28.651 24.3398C28.4647 24.4067 28.2668 24.4354 28.0692 24.4243C27.8715 24.4132 27.6781 24.3625 27.5005 24.2752C27.2953 24.1738 27.0633 24.1401 26.8378 24.179C26.6123 24.2178 26.405 24.3272 26.2455 24.4913C26.1109 24.6314 25.9497 24.7433 25.7713 24.8203C25.5929 24.8973 25.401 24.938 25.2067 24.9398C25.0124 24.9417 24.8198 24.9047 24.64 24.8312C24.4602 24.7576 24.2968 24.6489 24.1596 24.5114L24.1259 24.4777C23.9664 24.3184 23.7612 24.213 23.5389 24.1762C23.3166 24.1393 23.0883 24.1729 22.886 24.2721C22.7083 24.3596 22.5147 24.4105 22.3169 24.4216C22.1191 24.4327 21.921 24.4038 21.7346 24.3366C21.5497 24.271 21.3804 24.1677 21.2375 24.0332C21.0945 23.8988 20.9811 23.7361 20.9043 23.5556C20.811 23.347 20.6535 23.1738 20.4548 23.0611C20.2561 22.9484 20.0265 22.9022 19.7997 22.9292C19.6039 22.952 19.4055 22.9351 19.2163 22.8795C19.0272 22.8239 18.8512 22.7307 18.6989 22.6055C18.5493 22.4816 18.4267 22.3284 18.3386 22.1552C18.2506 21.982 18.1991 21.7927 18.1871 21.5988C18.174 21.3391 18.0645 21.0936 17.8799 20.9103C17.7387 20.769 17.5611 20.6696 17.3668 20.6231C17.1755 20.5799 16.9951 20.4978 16.837 20.3818C16.6789 20.2657 16.5463 20.1184 16.4477 19.9488C16.3485 19.7821 16.2854 19.5964 16.2626 19.4037C16.2397 19.2111 16.2576 19.0157 16.315 18.8304C16.3804 18.6145 16.3743 18.3832 16.2976 18.1711L17.6607 18.1699C18.9429 21.1929 21.9077 23.1572 25.1915 23.1592C28.4751 23.1613 31.4424 21.2008 32.7284 18.1794L34.095 18.1802C34.0178 18.3922 34.0114 18.6234 34.0769 18.8393C34.1339 19.0248 34.1514 19.2202 34.1283 19.4129C34.1051 19.6056 34.0419 19.7912 33.9426 19.958C33.8434 20.1277 33.7104 20.2751 33.5517 20.391C33.3929 20.5069 33.212 20.5888 33.0202 20.6315C32.7976 20.6833 32.5976 20.8056 32.4501 20.9801C32.3025 21.1547 32.2153 21.3722 32.2013 21.6004C32.1893 21.7947 32.1377 21.9846 32.0497 22.1583C31.9616 22.332 31.839 22.4858 31.6892 22.6103C31.5371 22.7354 31.3612 22.8286 31.1722 22.8842C30.9832 22.9398 30.785 22.9567 30.5893 22.9339ZM20.073 11.7621C21.1763 9.99122 23.1155 8.91558 25.2018 8.91683C27.2882 8.91829 29.226 9.9964 30.3271 11.7687L20.073 11.7621ZM30.3482 11.769C25.2002 9.4 27.6894 9.00652 25.2022 9.00501C22.7149 9.00344 25.1892 9.31817 20.0516 11.7615L18.4435 11.761C19.6826 9.1516 22.3139 7.48939 25.2027 7.49113C28.0913 7.49299 30.7205 9.15862 31.9564 11.7695L30.3482 11.769ZM19.8066 7.00603C20.0344 7.03367 20.2651 6.98754 20.4648 6.87441C20.6645 6.76128 20.8226 6.58712 20.916 6.37749C20.993 6.19771 21.1064 6.03582 21.249 5.90202C21.3917 5.76823 21.5605 5.66541 21.7448 5.60006C21.9311 5.53318 22.129 5.50445 22.3267 5.51556C22.5243 5.52668 22.7177 5.57742 22.8954 5.66477C23.1006 5.76611 23.3326 5.79978 23.5581 5.76092C23.7836 5.72207 23.991 5.61269 24.1505 5.44853C24.285 5.30842 24.4462 5.19658 24.6246 5.11957C24.803 5.04256 24.9949 5.00193 25.1892 5.00007C25.3834 4.9982 25.5761 5.03513 25.7559 5.1087C25.9357 5.18226 26.0991 5.29098 26.2363 5.42848L26.27 5.46224C26.4295 5.62148 26.6347 5.7269 26.8571 5.76374C27.0794 5.80058 27.3077 5.767 27.51 5.66771C27.6879 5.58033 27.8816 5.52972 28.0795 5.5189C28.2774 5.50808 28.4754 5.53727 28.6618 5.60473C28.8468 5.67036 29.016 5.77367 29.159 5.90812C29.3019 6.04257 29.4154 6.20522 29.4922 6.3858C29.6834 6.81362 30.1308 7.06737 30.5963 7.0122C30.7921 6.98942 30.9905 7.00634 31.1796 7.06197C31.3688 7.1176 31.5447 7.21079 31.697 7.33596C31.8467 7.45974 31.9694 7.61294 32.0574 7.78608C32.1454 7.95921 32.197 8.14858 32.2088 8.34245C32.2218 8.57187 32.3088 8.79089 32.4566 8.96677C32.6045 9.14265 32.8053 9.26593 33.0291 9.31817C33.2204 9.36145 33.4007 9.44366 33.5588 9.55966C33.7169 9.67566 33.8495 9.82297 33.9482 9.99242C34.0474 10.1592 34.1105 10.3449 34.1333 10.5376C34.1562 10.7302 34.1383 10.9255 34.0809 11.1109C34.0154 11.3268 34.0215 11.5582 34.0983 11.7704L32.7321 11.7699C31.4509 8.74619 28.486 6.78122 25.202 6.77948C21.9178 6.77777 18.9509 8.73935 17.6663 11.7619L16.3009 11.7597C16.3782 11.5477 16.3845 11.3164 16.3191 11.1005C16.262 10.915 16.2445 10.7197 16.2676 10.527C16.2907 10.3343 16.354 10.1486 16.4533 9.98194C16.5525 9.81222 16.6856 9.66478 16.8443 9.54887C17.003 9.43295 17.184 9.35104 17.3758 9.30827C17.5984 9.2565 17.7984 9.13424 17.9459 8.95969C18.0934 8.78515 18.1807 8.56763 18.1946 8.33951C18.2065 8.14515 18.2581 7.95529 18.3462 7.78161C18.4342 7.60793 18.5569 7.45412 18.7067 7.32963C18.8588 7.20452 19.0347 7.11137 19.2237 7.05577C19.4127 7.00017 19.6109 6.98325 19.8066 7.00603Z" fill="#0062B8"/>
<path d="M15.3337 16.6705C15.0022 16.6705 14.7045 16.6016 14.4405 16.4637C14.1765 16.3258 13.9697 16.1352 13.8201 15.8917C13.6705 15.6453 13.5957 15.3681 13.5957 15.0601C13.5957 14.7521 13.6705 14.4764 13.8201 14.2329C13.9697 13.9865 14.1765 13.7944 14.4405 13.6565C14.7045 13.5186 15.0022 13.4497 15.3337 13.4497C15.6652 13.4497 15.9629 13.5186 16.2269 13.6565C16.4909 13.7944 16.6977 13.9865 16.8473 14.2329C16.9969 14.4764 17.0717 14.7521 17.0717 15.0601C17.0717 15.3681 16.9969 15.6453 16.8473 15.8917C16.6977 16.1352 16.4909 16.3258 16.2269 16.4637C15.9629 16.6016 15.6652 16.6705 15.3337 16.6705ZM15.3337 15.8301C15.4628 15.8301 15.5786 15.7993 15.6813 15.7377C15.7869 15.6732 15.8705 15.5837 15.9321 15.4693C15.9937 15.352 16.0245 15.2156 16.0245 15.0601C16.0245 14.9046 15.9937 14.7697 15.9321 14.6553C15.8705 14.538 15.7869 14.4485 15.6813 14.3869C15.5786 14.3224 15.4628 14.2901 15.3337 14.2901C15.2046 14.2901 15.0873 14.3224 14.9817 14.3869C14.879 14.4485 14.7969 14.538 14.7353 14.6553C14.6737 14.7697 14.6429 14.9046 14.6429 15.0601C14.6429 15.2156 14.6737 15.352 14.7353 15.4693C14.7969 15.5837 14.879 15.6732 14.9817 15.7377C15.0873 15.7993 15.2046 15.8301 15.3337 15.8301Z" fill="#0062B8"/>
<path d="M18.7686 15.8257H18.487V16.6001H17.4486V13.5201H18.9314C19.2159 13.5201 19.4638 13.567 19.675 13.6609C19.8862 13.7548 20.049 13.8897 20.1634 14.0657C20.2778 14.2417 20.335 14.447 20.335 14.6817C20.335 14.9017 20.2851 15.0938 20.1854 15.2581C20.0857 15.4224 19.9419 15.5529 19.7542 15.6497L20.401 16.6001H19.2922L18.7686 15.8257ZM19.2878 14.6817C19.2878 14.5673 19.2526 14.4793 19.1822 14.4177C19.1118 14.3532 19.0062 14.3209 18.8654 14.3209H18.487V15.0425H18.8654C19.0062 15.0425 19.1118 15.0117 19.1822 14.9501C19.2526 14.8856 19.2878 14.7961 19.2878 14.6817Z" fill="#0062B8"/>
<path d="M20.7271 13.5201H21.7655V16.6001H20.7271V13.5201Z" fill="#0062B8"/>
<path d="M24.3026 14.9765H25.2046V16.2789C25.0227 16.405 24.8115 16.5018 24.571 16.5693C24.3305 16.6368 24.0943 16.6705 23.8626 16.6705C23.5341 16.6705 23.2393 16.603 22.9782 16.4681C22.7171 16.3302 22.5118 16.1396 22.3622 15.8961C22.2155 15.6497 22.1422 15.371 22.1422 15.0601C22.1422 14.7492 22.2155 14.472 22.3622 14.2285C22.5118 13.9821 22.7186 13.7914 22.9826 13.6565C23.2495 13.5186 23.5502 13.4497 23.8846 13.4497C24.1867 13.4497 24.4566 13.501 24.6942 13.6037C24.9347 13.7034 25.1342 13.8501 25.2926 14.0437L24.6282 14.6289C24.4346 14.403 24.2043 14.2901 23.9374 14.2901C23.7086 14.2901 23.5267 14.359 23.3918 14.4969C23.2569 14.6348 23.1894 14.8225 23.1894 15.0601C23.1894 15.2918 23.2554 15.4781 23.3874 15.6189C23.5223 15.7597 23.7013 15.8301 23.9242 15.8301C24.0562 15.8301 24.1823 15.8052 24.3026 15.7553V14.9765Z" fill="#0062B8"/>
<path d="M25.647 13.5201H26.6854V16.6001H25.647V13.5201Z" fill="#0062B8"/>
<path d="M30.2213 13.5201V16.6001H29.3677L28.1973 15.2009V16.6001H27.1853V13.5201H28.0389L29.2093 14.9193V13.5201H30.2213Z" fill="#0062B8"/>
<path d="M32.8204 16.0633H31.65L31.4432 16.6001H30.3872L31.7336 13.5201H32.7544L34.1008 16.6001H33.0272L32.8204 16.0633ZM32.5344 15.3153L32.2352 14.5409L31.936 15.3153H32.5344Z" fill="#0062B8"/>
<path d="M34.2666 13.5201H35.305V15.7949H36.6954V16.6001H34.2666V13.5201Z" fill="#0062B8"/>
<rect width="50" height="30" rx="6" fill="#0062B8" fill-opacity="0.1"/>
</svg>
