<svg version="1.1"  xmlns="http://www.w3.org/2000/svg" xmlns:xlink="http://www.w3.org/1999/xlink" x="0px" y="0px"
	 viewBox="0 0 24 24" style="enable-background:new 0 0 24 24;" xml:space="preserve">
<g>
	<path d="M15,22.8H9c-5.4,0-7.8-2.3-7.8-7.8V9c0-5.4,2.3-7.8,7.8-7.8h6c5.4,0,7.8,2.3,7.8,7.8v6C22.8,20.4,20.4,22.8,15,22.8z
		 M9,2.8C4.4,2.8,2.8,4.4,2.8,9v6c0,4.6,1.6,6.2,6.2,6.2h6c4.6,0,6.2-1.6,6.2-6.2V9c0-4.6-1.6-6.2-6.2-6.2H9z"/>
</g>
<g>
	<path d="M8.5,17.7c-0.5,0-1-0.2-1.4-0.5c-0.5-0.5-0.6-1.2-0.4-2l0.2-1C7,13.8,7.3,13.3,7.6,13l5.9-5.9c1-1,2.7-1,3.7,0
		c1,1,1,2.7,0,3.7l-5.9,5.9c-0.3,0.3-0.8,0.6-1.2,0.7l-1,0.2C8.9,17.7,8.7,17.7,8.5,17.7z M14.5,8.2L8.7,14
		c-0.1,0.1-0.3,0.4-0.3,0.5l-0.2,1c-0.1,0.3-0.1,0.5,0,0.6c0.1,0.1,0.3,0.1,0.6,0l1-0.2c0.1,0,0.4-0.2,0.5-0.3l5.9-5.9
		c0.4-0.4,0.4-1.2,0-1.6C15.7,7.7,15,7.7,14.5,8.2L14.5,8.2z"/>
</g>
<g>
	<path d="M15.7,12c-0.2,0-0.4-0.1-0.5-0.2l-2.7-2.7c-0.3-0.3-0.3-0.8,0-1.1c0.3-0.3,0.8-0.3,1.1,0l2.7,2.7c0.3,0.3,0.3,0.8,0,1.1
		C16.1,11.9,15.9,12,15.7,12z"/>
</g>
</svg>
