<svg version="1.1" xmlns="http://www.w3.org/2000/svg" xmlns:xlink="http://www.w3.org/1999/xlink" x="0px" y="0px"
	viewBox="0 0 24 24" style="enable-background:new 0 0 24 24;" xml:space="preserve">
<g>
	<path d="M12.2,11.6C12.1,11.6,12.1,11.6,12.2,11.6c-0.1,0-0.2,0-0.3,0c0,0-0.1,0-0.1,0c-2.8-0.1-5-2.4-5-5.2c0-2.9,2.3-5.2,5.2-5.2
		c2.9,0,5.2,2.3,5.2,5.2C17.2,9.3,15,11.5,12.2,11.6C12.2,11.6,12.2,11.6,12.2,11.6z M12,2.8c-2,0-3.7,1.7-3.7,3.7
		c0,2,1.5,3.6,3.5,3.7c0.1,0,0.2,0,0.4,0c2-0.1,3.5-1.7,3.5-3.7C15.7,4.4,14,2.8,12,2.8z"/>
</g>
<g>
	<path d="M12.2,22.6c-2,0-3.9-0.5-5.4-1.5l0,0c-1.4-0.9-2.1-2.2-2.2-3.6c0-1.4,0.8-2.6,2.1-3.6c3-2,7.9-2,10.8,0
		c1.4,0.9,2.1,2.2,2.1,3.6c0,1.4-0.8,2.6-2.1,3.6C16.1,22.1,14.1,22.6,12.2,22.6z M12.2,13.9c-1.7,0-3.3,0.4-4.6,1.2
		c-1,0.6-1.5,1.5-1.5,2.3c0,0.9,0.5,1.7,1.5,2.3c0,0,0,0,0,0c2.5,1.7,6.7,1.7,9.2,0c1-0.6,1.5-1.5,1.5-2.3c0-0.9-0.5-1.7-1.5-2.3
		C15.5,14.4,13.8,13.9,12.2,13.9z"/>
</g>
</svg>
