<svg version="1.1" xmlns="http://www.w3.org/2000/svg" xmlns:xlink="http://www.w3.org/1999/xlink" x="0px" y="0px"
	viewBox="0 0 24 24" style="enable-background:new 0 0 24 24;" xml:space="preserve">
<g>
	<path d="M19.9,22.8H4.1c-1.9,0-2.9-1-2.9-3v-4c0-2,0.9-3,2.9-3h15.8c1.9,0,2.8,1,2.8,3v4C22.8,21.8,21.8,22.8,19.9,22.8z M4.1,14.2
		c-1,0-1.4,0.2-1.4,1.5v4c0,1.3,0.4,1.5,1.4,1.5h15.8c1,0,1.3-0.2,1.3-1.5v-4c0-1.3-0.4-1.5-1.3-1.5H4.1z"/>
</g>
<g>
	<path d="M19.9,11.2H4.1c-1.9,0-2.9-1-2.9-3v-4c0-2,0.9-3,2.9-3h15.8c1.9,0,2.8,1,2.8,3v4C22.8,10.3,21.8,11.2,19.9,11.2z M4.1,2.8
		c-1,0-1.4,0.2-1.4,1.5v4c0,1.3,0.4,1.5,1.4,1.5h15.8c1,0,1.3-0.2,1.3-1.5v-4c0-1.3-0.4-1.5-1.3-1.5H4.1z"/>
</g>
<g>
	<path d="M13,6.8h-2c-0.4,0-0.8-0.3-0.8-0.8s0.3-0.8,0.8-0.8h2c0.4,0,0.8,0.3,0.8,0.8S13.4,6.8,13,6.8z"/>
</g>
<g>
	<path d="M22,6.8h-1c-0.4,0-0.8-0.3-0.8-0.8s0.3-0.8,0.8-0.8h1c0.4,0,0.8,0.3,0.8,0.8S22.4,6.8,22,6.8z"/>
</g>
<g>
	<path d="M3,6.8H2C1.6,6.8,1.2,6.4,1.2,6S1.6,5.2,2,5.2h1c0.4,0,0.8,0.3,0.8,0.8S3.4,6.8,3,6.8z"/>
</g>
<g>
	<path d="M13,18.8h-2c-0.4,0-0.8-0.3-0.8-0.8s0.3-0.8,0.8-0.8h2c0.4,0,0.8,0.3,0.8,0.8S13.4,18.8,13,18.8z"/>
</g>
<g>
	<path d="M22,18.8h-1c-0.4,0-0.8-0.3-0.8-0.8s0.3-0.8,0.8-0.8h1c0.4,0,0.8,0.3,0.8,0.8S22.4,18.8,22,18.8z"/>
</g>
<g>
	<path d="M3,18.8H2c-0.4,0-0.8-0.3-0.8-0.8s0.3-0.8,0.8-0.8h1c0.4,0,0.8,0.3,0.8,0.8S3.4,18.8,3,18.8z"/>
</g>
</svg>
