<svg version="1.1" xmlns="http://www.w3.org/2000/svg" xmlns:xlink="http://www.w3.org/1999/xlink" x="0px" y="0px"
	viewBox="0 0 24 24" style="enable-background:new 0 0 24 24;" xml:space="preserve">
<g>
	<path d="M11,20.8c-5.4,0-9.8-4.4-9.8-9.8S5.6,1.2,11,1.2s9.8,4.4,9.8,9.8S16.4,20.8,11,20.8z M11,2.8c-4.5,0-8.2,3.7-8.2,8.2
		s3.7,8.2,8.2,8.2s8.2-3.7,8.2-8.2S15.5,2.8,11,2.8z"/>
</g>
<g>
	<path d="M20.2,22.8c-0.1,0-0.2,0-0.2,0c-0.5-0.1-1.3-0.4-1.8-1.8c-0.2-0.8-0.2-1.5,0.3-2.1c0.4-0.6,1.1-0.9,1.9-0.9c0,0,0,0,0,0
		c1,0,1.8,0.4,2.2,1.1s0.3,1.6-0.3,2.4C21.5,22.5,20.7,22.8,20.2,22.8z M20.3,19.5c-0.3,0-0.5,0.1-0.6,0.3c-0.1,0.2-0.1,0.4,0,0.7
		c0.2,0.5,0.4,0.8,0.6,0.8c0.1,0,0.5-0.2,0.8-0.6l0,0c0.3-0.4,0.3-0.7,0.2-0.9C21.1,19.6,20.9,19.5,20.3,19.5z"/>
</g>
</svg>
