<svg version="1.1" xmlns="http://www.w3.org/2000/svg" xmlns:xlink="http://www.w3.org/1999/xlink" x="0px" y="0px"
	 viewBox="0 0 125 125" style="enable-background:new 0 0 125 125;" xml:space="preserve">
<g>
	<path d="M62.6,115.3c-5,0-10-1.4-13.8-4.3L26.3,94.3C21.2,90.5,17,82.2,17,75.8V37.1c0-6.7,5.1-14,11.4-16.4l26-9.8
		c4.5-1.7,11.8-1.7,16.4,0l26,9.7c6.3,2.3,11.4,9.7,11.4,16.4v38.7c0,6.4-4.2,14.7-9.3,18.5L76.4,111
		C72.6,113.9,67.6,115.3,62.6,115.3z M62.5,11.1c-2.8,0-5.5,0.4-7.6,1.2l-26,9.8c0,0,0,0,0,0c-5.6,2.1-10.4,9-10.4,15v38.7
		c0,5.9,4,13.8,8.7,17.3l22.4,16.7c7.1,5.4,18.7,5.4,25.9,0l22.4-16.7c4.7-3.5,8.7-11.5,8.7-17.3V37.1c0-6.1-4.7-12.9-10.4-15
		l-26-9.7C68.1,11.5,65.3,11.1,62.5,11.1z M28.6,21.4L28.6,21.4L28.6,21.4z"/>
</g>
<g>
	<path d="M83.7,77.2c-0.1,0-0.3,0-0.4-0.1l-16.1-9.6c-3.1-1.8-5.5-6-5.5-9.6V36.5c0-0.4,0.3-0.8,0.8-0.8s0.8,0.3,0.8,0.8v21.4
		c0,3,2.2,6.8,4.7,8.3l16.1,9.6c0.4,0.2,0.5,0.7,0.3,1C84.3,77,84,77.2,83.7,77.2z"/>
</g>
</svg>
