<svg version="1.1" xmlns="http://www.w3.org/2000/svg" xmlns:xlink="http://www.w3.org/1999/xlink" x="0px" y="0px"
	viewBox="0 0 24 24" style="enable-background:new 0 0 24 24;" xml:space="preserve">
<g>
	<path d="M12,22.7c-1.1,0-2.2-0.3-3-0.9l-4.3-3.2c-1.1-0.9-2-2.6-2-4V7.1c0-1.5,1.1-3.2,2.6-3.7l5-1.9c1-0.4,2.5-0.4,3.6,0l5,1.9
		c1.4,0.5,2.6,2.2,2.6,3.7v7.4c0,1.4-0.9,3.2-2,4L15,21.8C14.2,22.4,13.1,22.7,12,22.7z M12,2.7c-0.5,0-0.9,0.1-1.3,0.2l-5,1.9
		c0,0,0,0,0,0C4.9,5.1,4.2,6.2,4.2,7.1v7.4c0,0.9,0.7,2.3,1.4,2.8l4.3,3.2c1.1,0.9,3.1,0.9,4.2,0l4.3-3.2c0.8-0.6,1.4-1.9,1.4-2.8
		V7.1c0-0.9-0.7-2-1.6-2.3l-5-1.9C12.9,2.8,12.5,2.7,12,2.7z M5.5,4.1L5.5,4.1L5.5,4.1z"/>
</g>
<g>
	<path d="M16.1,15.4c-0.1,0-0.3,0-0.4-0.1l-3.1-1.8c-0.8-0.5-1.3-1.5-1.3-2.4V7c0-0.4,0.3-0.8,0.8-0.8s0.8,0.3,0.8,0.8v4.1
		c0,0.4,0.3,0.9,0.6,1.1l3.1,1.9c0.4,0.2,0.5,0.7,0.3,1C16.6,15.3,16.3,15.4,16.1,15.4z"/>
</g>
</svg>
