<svg version="1.1" xmlns="http://www.w3.org/2000/svg" xmlns:xlink="http://www.w3.org/1999/xlink" x="0px" y="0px"
	viewBox="0 0 24 24" style="enable-background:new 0 0 24 24;" xml:space="preserve">
<path style="fill-rule:evenodd;clip-rule:evenodd;" d="M7,3.5c-3,0-5,1.5-5,5v7c0,3.5,2,5,5,5h10c3,0,5-1.5,5-5v-7c0-3.5-2-5-5-5H7z
	M14.3,12.1c-0.7,0.5-1.5,0.8-2.3,0.8s-1.7-0.3-2.3-0.8L6.5,9.6C6.2,9.3,6.2,8.9,6.4,8.5c0.3-0.3,0.7-0.4,1.1-0.1l3.1,2.5
	c0.8,0.6,2.1,0.6,2.8,0l3.1-2.5c0.3-0.3,0.8-0.2,1,0.1c0.3,0.3,0.2,0.8-0.1,1.1L14.3,12.1z"/>
</svg>
