<svg version="1.1" xmlns="http://www.w3.org/2000/svg" xmlns:xlink="http://www.w3.org/1999/xlink" x="0px" y="0px"
	viewBox="0 0 24 24" style="enable-background:new 0 0 24 24;" xml:space="preserve">
<path d="M14.4,8.5c0.2,0.3,0.6,0.7,1,0.7l2.2,0.4c1.4,0.2,1.8,1.3,0.7,2.3l-1.7,1.8c-0.3,0.3-0.5,0.9-0.4,1.3l0.5,2.2
	c0.4,1.7-0.5,2.4-2,1.5l-2.1-1.2c-0.4-0.2-1-0.2-1.4,0l-2.1,1.3c-1.5,0.9-2.4,0.2-2-1.5L7.7,15c0.1-0.4-0.1-1-0.4-1.3l-1.8-1.7
	c-1-1-0.7-2.1,0.7-2.3l2.2-0.4c0.4-0.1,0.8-0.4,1-0.7L10.8,6c0.7-1.3,1.8-1.3,2.4,0L14.4,8.5z"/>
</svg>
