<svg version="1.1" xmlns="http://www.w3.org/2000/svg" xmlns:xlink="http://www.w3.org/1999/xlink" x="0px" y="0px"
	viewBox="0 0 25 24" style="enable-background:new 0 0 25 24;" xml:space="preserve">
<path d="M15.4,6.8c0.2,0.5,0.8,0.9,1.4,1l3.1,0.5c2,0.3,2.4,1.7,1,3.2l-2.4,2.4c-0.4,0.4-0.6,1.2-0.5,1.7l0.7,3
	c0.5,2.3-0.7,3.2-2.8,2l-2.9-1.7c-0.5-0.3-1.4-0.3-1.9,0l-2.9,1.7c-2.1,1.2-3.3,0.3-2.8-2l0.7-3c0.1-0.6-0.1-1.3-0.5-1.7l-2.4-2.4
	c-1.4-1.4-1-2.8,1-3.2l3.1-0.5c0.5-0.1,1.1-0.5,1.4-1l1.7-3.4c0.9-1.8,2.4-1.8,3.3,0L15.4,6.8z"/>
</svg>
