<svg version="1.1" xmlns="http://www.w3.org/2000/svg" xmlns:xlink="http://www.w3.org/1999/xlink" x="0px" y="0px"
	viewBox="0 0 21.2 21.2" style="enable-background:new 0 0 21.2 21.2;" xml:space="preserve">
<g>
	<path d="M10.6,21.2C4.8,21.2,0,16.4,0,10.6S4.8,0,10.6,0s10.6,4.8,10.6,10.6S16.4,21.2,10.6,21.2z M10.6,1.2
		c-5.2,0-9.4,4.2-9.4,9.4c0,5.2,4.2,9.4,9.4,9.4c5.2,0,9.4-4.2,9.4-9.4C20,5.4,15.8,1.2,10.6,1.2z"/>
</g>
<g>
	<path d="M9.2,14C9,14,8.9,14,8.8,13.9L5.9,11c-0.2-0.2-0.2-0.6,0-0.8s0.6-0.2,0.8,0l2.4,2.4l5.2-5.2c0.2-0.2,0.6-0.2,0.8,0
		c0.2,0.2,0.2,0.6,0,0.8l-5.7,5.7C9.5,14,9.3,14,9.2,14z"/>
</g>
</svg>
