<svg version="1.1" xmlns="http://www.w3.org/2000/svg" xmlns:xlink="http://www.w3.org/1999/xlink" x="0px" y="0px"
	 viewBox="0 0 24 24" style="enable-background:new 0 0 24 24;" xml:space="preserve">
<path style="fill-rule:evenodd;clip-rule:evenodd;" d="M20.2,9.2c-0.3-0.3-0.5-0.9-0.5-1.3V6.2c0-1.1-0.9-1.9-1.9-1.9h-1.7
	c-0.4,0-1-0.2-1.3-0.5l-1.6-1.4c-0.7-0.6-1.8-0.6-2.5,0L9.2,3.8C8.9,4.1,8.3,4.3,7.9,4.3H6.2c-1.1,0-1.9,0.9-1.9,1.9v1.7
	c0,0.4-0.2,1-0.5,1.3l-1.3,1.6c-0.6,0.7-0.6,1.8,0,2.5l1.3,1.6c0.3,0.3,0.5,0.9,0.5,1.2v1.7c0,1.1,0.9,1.9,1.9,1.9h1.7
	c0.4,0,1,0.2,1.3,0.5l1.6,1.4c0.7,0.6,1.8,0.6,2.5,0l1.6-1.4c0.3-0.3,0.9-0.5,1.3-0.5h1.7c1.1,0,1.9-0.9,1.9-1.9v-1.7
	c0-0.4,0.2-1,0.5-1.3l1.4-1.6c0.6-0.7,0.6-1.8,0-2.5L20.2,9.2z M11.3,14.9c-0.1,0.1-0.3,0.2-0.5,0.2c-0.2,0-0.4-0.1-0.5-0.2
	l-2.4-2.4c-0.3-0.3-0.3-0.8,0-1.1c0.3-0.3,0.8-0.3,1.1,0l1.9,1.9L15.1,9c0.3-0.3,0.8-0.3,1.1,0c0.3,0.3,0.3,0.8,0,1.1L11.3,14.9z"/>
</svg>
