<svg width="150" height="150" viewBox="0 0 150 150" fill="none" xmlns="http://www.w3.org/2000/svg">
<path d="M89.6223 107.636L78.8745 118.384C78.7583 118.502 78.62 118.595 78.4675 118.659C78.315 118.722 78.1514 118.755 77.9862 118.755C77.821 118.755 77.6574 118.722 77.5049 118.659C77.3524 118.595 77.2141 118.502 77.0979 118.384L71.5917 112.878C71.1003 112.386 71.1003 111.586 71.5917 111.095C72.0831 110.604 72.8832 110.604 73.3746 111.095L77.9925 115.713L87.852 105.853C88.3434 105.362 89.1435 105.362 89.6349 105.853C90.1263 106.345 90.1263 107.145 89.6349 107.636H89.6223ZM131.278 27.4436C131.278 26.7506 130.711 26.1836 130.018 26.1836H13.26C12.567 26.1836 12 26.7506 12 27.4436V104.612C12 105.305 12.567 105.872 13.26 105.872C13.953 105.872 14.52 105.305 14.52 104.612V28.7036H130.018C130.711 28.7036 131.278 28.1366 131.278 27.4436ZM138 38.6513V111.341C138 112.034 137.433 112.601 136.74 112.601H100.093C97.9635 121.572 92.8983 131.954 80.985 135.759C80.7345 135.836 80.4669 135.836 80.2164 135.759C68.3031 131.954 63.2379 121.572 61.1085 112.601H24.4614C23.7684 112.601 23.2014 112.034 23.2014 111.341V38.645C23.2014 37.952 23.7684 37.385 24.4614 37.385H136.74C137.433 37.385 138 37.952 138 38.645V38.6513ZM108.9 98.1296C109.511 90.3428 115.742 84.1121 123.529 83.501V66.4973C115.742 65.8862 109.511 59.6555 108.9 51.8687H52.3074C51.6963 59.6555 45.4656 65.8862 37.6788 66.4973V83.501C45.4656 84.1121 51.6963 90.3428 52.3074 98.1296H60.7557C66.5076 93.7763 73.3494 91.4705 80.6007 91.4705C87.852 91.4705 94.7001 93.7763 100.446 98.1296H108.894H108.9ZM99.0723 100.234C93.7362 96.1451 87.3669 93.9842 80.607 93.9842C73.8471 93.9842 67.4778 96.1388 62.1417 100.234C62.2299 107.328 63.9687 127.62 80.607 133.233C97.2453 127.62 98.9904 107.328 99.0723 100.234ZM135.486 39.9113H25.7214V110.081H60.5793C60.0056 106.968 59.6853 103.814 59.6217 100.65H51.0915C50.3985 100.65 49.8315 100.083 49.8315 99.3896C49.8315 91.9871 43.8087 85.9706 36.4125 85.9706C35.7195 85.9706 35.1525 85.4036 35.1525 84.7106V65.2814C35.1525 64.5884 35.7195 64.0214 36.4125 64.0214C43.815 64.0214 49.8315 57.9986 49.8315 50.6024C49.8315 49.9094 50.3985 49.3424 51.0915 49.3424H110.104C110.797 49.3424 111.364 49.9094 111.364 50.6024C111.364 58.0049 117.386 64.0214 124.783 64.0214C125.476 64.0214 126.043 64.5884 126.043 65.2814V84.7106C126.043 85.4036 125.476 85.9706 124.783 85.9706C117.38 85.9706 111.364 91.9934 111.364 99.3896C111.364 100.083 110.797 100.65 110.104 100.65H101.573C101.529 102.924 101.321 106.288 100.616 110.081H135.474V39.905L135.486 39.9113ZM91.506 74.996C91.506 81.0062 86.6172 85.895 80.607 85.895C74.5968 85.895 69.708 81.0062 69.708 74.996C69.708 68.9858 74.5968 64.097 80.607 64.097C86.6172 64.097 91.506 68.9858 91.506 74.996ZM88.986 74.996C88.986 70.3781 85.2249 66.617 80.607 66.617C75.9891 66.617 72.228 70.3781 72.228 74.996C72.228 79.6139 75.9891 83.375 80.607 83.375C85.2249 83.375 88.986 79.6139 88.986 74.996Z" fill="#404040"/>
<path d="M89.6223 107.636L78.8745 118.384C78.7583 118.502 78.62 118.595 78.4675 118.659C78.315 118.722 78.1514 118.755 77.9862 118.755C77.821 118.755 77.6574 118.722 77.5049 118.659C77.3524 118.595 77.2141 118.502 77.0979 118.384L71.5917 112.878C71.1003 112.386 71.1003 111.586 71.5917 111.095C72.0831 110.604 72.8832 110.604 73.3746 111.095L77.9925 115.713L87.852 105.853C88.3434 105.362 89.1435 105.362 89.6349 105.853C90.1263 106.345 90.1263 107.145 89.6349 107.636H89.6223ZM131.278 27.4436C131.278 26.7506 130.711 26.1836 130.018 26.1836H13.26C12.567 26.1836 12 26.7506 12 27.4436V104.612C12 105.305 12.567 105.872 13.26 105.872C13.953 105.872 14.52 105.305 14.52 104.612V28.7036H130.018C130.711 28.7036 131.278 28.1366 131.278 27.4436ZM91.506 74.996C91.506 81.0062 86.6172 85.895 80.607 85.895C74.5968 85.895 69.708 81.0062 69.708 74.996C69.708 68.9858 74.5968 64.097 80.607 64.097C86.6172 64.097 91.506 68.9858 91.506 74.996ZM88.986 74.996C88.986 70.3781 85.2249 66.617 80.607 66.617C75.9891 66.617 72.228 70.3781 72.228 74.996C72.228 79.6139 75.9891 83.375 80.607 83.375C85.2249 83.375 88.986 79.6139 88.986 74.996Z" fill="url(#paint0_linear_1_338)"/>
<defs>
<linearGradient id="paint0_linear_1_338" x1="12" y1="81.0001" x2="138" y2="81.0001" gradientUnits="userSpaceOnUse">
<stop stop-color="#DF9F41"/>
<stop offset="1" stop-color="#FFCB47"/>
</linearGradient>
</defs>
</svg>
