<svg width="162" height="162" viewBox="0 0 162 162" fill="none" xmlns="http://www.w3.org/2000/svg">
<path d="M147.03 59.993V116.859C147.03 117.338 146.773 117.79 146.355 118.026L97.1056 146.463C96.8965 146.584 96.6671 146.645 96.431 146.645C96.1949 146.645 95.9655 146.584 95.7563 146.463L46.5071 118.026C46.0888 117.783 45.8325 117.338 45.8325 116.859V92.538C45.8325 91.7959 46.4396 91.1887 47.1818 91.1887C47.9239 91.1887 48.5311 91.7959 48.5311 92.538V116.083L96.431 143.737L144.331 116.083V60.7756L96.431 33.1218L84.4762 40.0235C83.8286 40.3945 83.0055 40.1719 82.6344 39.531C82.2634 38.8833 82.486 38.0603 83.1269 37.6892L95.7563 30.3963C96.1746 30.1534 96.6873 30.1534 97.1056 30.3963L146.355 58.8326C146.773 59.0755 147.03 59.5208 147.03 59.9998V59.993ZM96.431 137.152C97.1731 137.152 97.7803 136.545 97.7803 135.803V89.2052L138.131 65.9097C138.779 65.5386 138.994 64.7088 138.623 64.0679C138.536 63.9138 138.418 63.7787 138.278 63.6704C138.137 63.562 137.977 63.4827 137.805 63.4369C137.634 63.3911 137.455 63.3797 137.28 63.4035C137.104 63.4273 136.935 63.4857 136.782 63.5754L96.431 86.871L75.8947 75.0174C75.2471 74.6464 74.424 74.869 74.0529 75.5099C73.6819 76.1576 73.9045 76.9806 74.5454 77.3517L95.0817 89.2052V135.803C95.0817 136.545 95.6889 137.152 96.431 137.152ZM62.3343 38.067C61.8081 37.5408 60.9513 37.5408 60.4251 38.067L42.0409 56.4511L33.9384 48.3486C33.4122 47.8224 32.5554 47.8224 32.0292 48.3486C31.503 48.8748 31.503 49.7316 32.0292 50.2579L41.083 59.3116C41.3461 59.5747 41.6901 59.7097 42.0342 59.7097C42.3783 59.7097 42.7223 59.5747 42.9855 59.3116L62.3208 39.9762C62.8471 39.45 62.8471 38.5932 62.3208 38.067H62.3343Z" fill="#404040"/>
<path d="M47.4 16C65.2672 16 79.8 30.5328 79.8 48.4C79.8 66.2673 65.2672 80.8001 47.4 80.8001C29.5328 80.8001 15 66.2673 15 48.4001C15 30.5328 29.5328 16.0001 47.4 16ZM47.4 78.2366C63.8473 78.2366 77.2301 64.8538 77.2301 48.4065C77.2301 31.9591 63.8473 18.5764 47.4 18.5764C30.9526 18.5764 17.5699 31.9591 17.5699 48.4065C17.5699 64.8538 30.9526 78.2366 47.4 78.2366Z" fill="#404040"/>
<path d="M96.431 137.152C97.1731 137.152 97.7803 136.545 97.7803 135.803V89.2053L138.131 65.9097C138.779 65.5387 138.994 64.7088 138.623 64.0679C138.536 63.9138 138.418 63.7787 138.278 63.6704C138.137 63.5621 137.977 63.4827 137.805 63.4369C137.634 63.3911 137.455 63.3797 137.28 63.4035C137.104 63.4273 136.935 63.4857 136.782 63.5754L96.431 86.871L75.8947 75.0174C75.2471 74.6464 74.424 74.869 74.0529 75.5099C73.6819 76.1576 73.9045 76.9807 74.5454 77.3517L95.0817 89.2053V135.803C95.0817 136.545 95.6889 137.152 96.431 137.152ZM62.3343 38.067C61.8081 37.5408 60.9513 37.5408 60.4251 38.067L42.041 56.4512L33.9384 48.3486C33.4122 47.8224 32.5554 47.8224 32.0292 48.3486C31.503 48.8749 31.503 49.7317 32.0292 50.2579L41.083 59.3117C41.3461 59.5748 41.6901 59.7097 42.0342 59.7097C42.3783 59.7097 42.7223 59.5748 42.9855 59.3117L62.3208 39.9763C62.8471 39.4501 62.8471 38.5933 62.3208 38.067H62.3343Z" fill="url(#paint0_linear_1_341)"/>
<defs>
<linearGradient id="paint0_linear_1_341" x1="31.6345" y1="92.1585" x2="147.03" y2="92.1585" gradientUnits="userSpaceOnUse">
<stop stop-color="#DF9F41"/>
<stop offset="1" stop-color="#FFCB47"/>
</linearGradient>
</defs>
</svg>
