<svg width="150" height="150" viewBox="0 0 150 150" fill="none" xmlns="http://www.w3.org/2000/svg">
<path d="M27.306 15L122.694 15C129.48 15 135 20.52 135 27.306L135 122.694C135 129.48 129.48 135 122.694 135L27.306 135C20.52 135 15 129.48 15 122.694L15 27.306C15 20.52 20.52 15 27.306 15ZM122.694 132.6C128.154 132.6 132.6 128.154 132.6 122.694L132.6 27.306C132.6 21.846 128.154 17.4 122.694 17.4L27.306 17.4C21.846 17.4 17.4 21.846 17.4 27.306L17.4 122.694C17.4 128.154 21.846 132.6 27.306 132.6L122.694 132.6ZM29.832 35.43L29.832 40.986C29.832 41.646 30.372 42.186 31.032 42.186C31.692 42.186 32.232 41.646 32.232 40.986L32.232 35.43C32.232 33.666 33.666 32.232 35.43 32.232L114.564 32.232C116.328 32.232 117.762 33.666 117.762 35.43L117.762 114.57C117.762 116.334 116.328 117.768 114.564 117.768L35.43 117.768C33.666 117.768 32.232 116.334 32.232 114.57L32.232 109.014C32.232 108.354 31.692 107.814 31.032 107.814C30.372 107.814 29.832 108.354 29.832 109.014L29.832 114.57C29.832 117.654 32.34 120.168 35.43 120.168L114.564 120.168C117.648 120.168 120.162 117.66 120.162 114.57L120.162 35.436C120.162 32.352 117.654 29.838 114.564 29.838L35.43 29.838C32.346 29.838 29.832 32.346 29.832 35.436L29.832 35.43ZM29.832 55.824L29.832 94.17C29.832 94.83 30.372 95.37 31.032 95.37C31.692 95.37 32.232 94.83 32.232 94.17L32.232 55.824C32.232 55.164 31.692 54.624 31.032 54.624C30.372 54.624 29.832 55.164 29.832 55.824ZM75 44.736C91.686 44.736 105.258 58.308 105.258 74.994C105.258 91.68 91.686 105.252 75 105.252C58.314 105.252 44.742 91.68 44.742 74.994C44.742 58.308 58.314 44.736 75 44.736ZM75 102.858C90.36 102.858 102.858 90.36 102.858 75C102.858 59.64 90.36 47.142 75 47.142C59.64 47.142 47.142 59.64 47.142 75C47.142 90.36 59.64 102.858 75 102.858ZM53.394 75C53.394 86.916 63.084 96.606 75 96.606C75.66 96.606 76.2 96.066 76.2 95.406C76.2 94.746 75.66 94.206 75 94.206C64.41 94.206 55.794 85.59 55.794 75C55.794 64.41 64.41 55.794 75 55.794C85.59 55.794 94.206 64.41 94.206 75C94.206 75.66 94.746 76.2 95.406 76.2C96.066 76.2 96.606 75.66 96.606 75C96.606 63.084 86.916 53.394 75 53.394C63.084 53.394 53.394 63.084 53.394 75ZM71.526 76.776L66.564 81.738C66.096 82.206 66.096 82.968 66.564 83.436C67.032 83.904 67.794 83.904 68.262 83.436L73.224 78.474C73.3917 78.3061 73.5059 78.0923 73.5523 77.8595C73.5987 77.6268 73.5752 77.3855 73.4848 77.1661C73.3943 76.9467 73.241 76.759 73.044 76.6265C72.8471 76.4941 72.6153 76.423 72.378 76.422C72.072 76.422 71.766 76.542 71.532 76.776L71.526 76.776ZM81.738 66.564L76.776 71.526C76.308 71.994 76.308 72.756 76.776 73.224C77.244 73.692 78.006 73.692 78.474 73.224L83.436 68.262C83.6037 68.0941 83.7179 67.8803 83.7643 67.6475C83.8108 67.4148 83.7872 67.1735 83.6968 66.9541C83.6063 66.7347 83.453 66.5469 83.256 66.4145C83.059 66.2821 82.8273 66.211 82.59 66.21C82.284 66.21 81.978 66.33 81.744 66.564L81.738 66.564ZM66.564 66.564C66.096 67.032 66.096 67.794 66.564 68.262L71.526 73.224C71.994 73.692 72.756 73.692 73.224 73.224C73.692 72.756 73.692 71.994 73.224 71.526L68.262 66.564C68.028 66.33 67.722 66.21 67.416 66.21C67.11 66.21 66.804 66.33 66.57 66.564L66.564 66.564ZM76.776 76.776C76.308 77.244 76.308 78.006 76.776 78.474L81.738 83.436C82.206 83.904 82.968 83.904 83.436 83.436C83.904 82.968 83.904 82.206 83.436 81.738L78.474 76.776C78.24 76.542 77.934 76.422 77.628 76.422C77.322 76.422 77.016 76.542 76.782 76.776L76.776 76.776ZM21.66 101.592C21.66 102.252 22.2 102.792 22.86 102.792L39.222 102.792C39.882 102.792 40.422 102.252 40.422 101.592C40.422 100.932 39.882 100.392 39.222 100.392L22.86 100.392C22.2 100.392 21.66 100.932 21.66 101.592ZM21.66 48.408C21.66 49.068 22.2 49.608 22.86 49.608L39.222 49.608C39.882 49.608 40.422 49.068 40.422 48.408C40.422 47.748 39.882 47.208 39.222 47.208L22.86 47.208C22.2 47.208 21.66 47.748 21.66 48.408Z" fill="#404040"/>
<path d="M29.832 55.824L29.832 94.17C29.832 94.83 30.372 95.37 31.032 95.37C31.692 95.37 32.232 94.83 32.232 94.17L32.232 55.824C32.232 55.164 31.692 54.624 31.032 54.624C30.372 54.624 29.832 55.164 29.832 55.824ZM75 44.736C91.686 44.736 105.258 58.308 105.258 74.994C105.258 91.68 91.686 105.252 75 105.252C58.314 105.252 44.742 91.68 44.742 74.994C44.742 58.308 58.314 44.736 75 44.736ZM75 102.858C90.36 102.858 102.858 90.36 102.858 75C102.858 59.64 90.36 47.142 75 47.142C59.64 47.142 47.142 59.64 47.142 75C47.142 90.36 59.64 102.858 75 102.858ZM53.394 75C53.394 86.916 63.084 96.606 75 96.606C75.66 96.606 76.2 96.066 76.2 95.406C76.2 94.746 75.66 94.206 75 94.206C64.41 94.206 55.794 85.59 55.794 75C55.794 64.41 64.41 55.794 75 55.794C85.59 55.794 94.206 64.41 94.206 75C94.206 75.66 94.746 76.2 95.406 76.2C96.066 76.2 96.606 75.66 96.606 75C96.606 63.084 86.916 53.394 75 53.394C63.084 53.394 53.394 63.084 53.394 75ZM71.526 76.776L66.564 81.738C66.096 82.206 66.096 82.968 66.564 83.436C67.032 83.904 67.794 83.904 68.262 83.436L73.224 78.474C73.3917 78.3061 73.5059 78.0923 73.5523 77.8595C73.5987 77.6268 73.5752 77.3855 73.4848 77.1661C73.3943 76.9467 73.241 76.759 73.044 76.6265C72.8471 76.4941 72.6153 76.423 72.378 76.422C72.072 76.422 71.766 76.542 71.532 76.776L71.526 76.776ZM81.738 66.564L76.776 71.526C76.308 71.994 76.308 72.756 76.776 73.224C77.244 73.692 78.006 73.692 78.474 73.224L83.436 68.262C83.6037 68.0941 83.7179 67.8803 83.7643 67.6475C83.8108 67.4148 83.7872 67.1735 83.6968 66.9541C83.6063 66.7347 83.453 66.5469 83.256 66.4145C83.059 66.2821 82.8273 66.211 82.59 66.21C82.284 66.21 81.978 66.33 81.744 66.564L81.738 66.564ZM66.564 66.564C66.096 67.032 66.096 67.794 66.564 68.262L71.526 73.224C71.994 73.692 72.756 73.692 73.224 73.224C73.692 72.756 73.692 71.994 73.224 71.526L68.262 66.564C68.028 66.33 67.722 66.21 67.416 66.21C67.11 66.21 66.804 66.33 66.57 66.564L66.564 66.564ZM76.776 76.776C76.308 77.244 76.308 78.006 76.776 78.474L81.738 83.436C82.206 83.904 82.968 83.904 83.436 83.436C83.904 82.968 83.904 82.206 83.436 81.738L78.474 76.776C78.24 76.542 77.934 76.422 77.628 76.422C77.322 76.422 77.016 76.542 76.782 76.776L76.776 76.776ZM21.66 101.592C21.66 102.252 22.2 102.792 22.86 102.792L39.222 102.792C39.882 102.792 40.422 102.252 40.422 101.592C40.422 100.932 39.882 100.392 39.222 100.392L22.86 100.392C22.2 100.392 21.66 100.932 21.66 101.592ZM21.66 48.408C21.66 49.068 22.2 49.608 22.86 49.608L39.222 49.608C39.882 49.608 40.422 49.068 40.422 48.408C40.422 47.748 39.882 47.208 39.222 47.208L22.86 47.208C22.2 47.208 21.66 47.748 21.66 48.408Z" fill="url(#paint0_linear_1_334)"/>
<defs>
<linearGradient id="paint0_linear_1_334" x1="135" y1="75" x2="15" y2="75" gradientUnits="userSpaceOnUse">
<stop stop-color="#DF9F41"/>
<stop offset="1" stop-color="#FFCB47"/>
</linearGradient>
</defs>
</svg>
