<svg width="150" height="150" viewBox="0 0 150 150" fill="none" xmlns="http://www.w3.org/2000/svg">
<path d="M96.5252 121.064C94.8541 124.145 93.9776 127.594 93.9748 131.099V135.437C93.9748 137.659 92.1674 139.467 89.9456 139.467H60.0496C57.8278 139.467 56.0204 137.659 56.0204 135.437V131.099C56.0204 127.611 55.1423 124.141 53.4812 121.06C53.3975 120.905 53.3452 120.734 53.3273 120.559C53.3094 120.384 53.3263 120.206 53.3769 120.037C53.4275 119.868 53.5109 119.711 53.6223 119.574C53.7338 119.438 53.871 119.324 54.0263 119.241C54.68 118.887 55.4933 119.133 55.8462 119.785C57.7178 123.256 58.7066 127.168 58.7066 131.099V135.437C58.707 135.793 58.8486 136.135 59.1003 136.387C59.3521 136.638 59.6935 136.78 60.0496 136.78H89.9456C90.3017 136.78 90.6431 136.638 90.8948 136.387C91.1466 136.135 91.2882 135.793 91.2886 135.437V131.099C91.2917 127.146 92.28 123.256 94.1642 119.781C94.3346 119.468 94.6221 119.236 94.9636 119.135C95.3051 119.034 95.6727 119.072 95.9859 119.242C96.2988 119.412 96.5315 119.7 96.6326 120.041C96.7337 120.383 96.6951 120.751 96.5252 121.064ZM54.0263 30.7593C54.6735 31.1111 55.4928 30.8698 55.8462 30.215C57.7178 26.7445 58.7066 22.8323 58.7066 18.9013V14.5626C58.707 14.2066 58.8486 13.8652 59.1003 13.6134C59.3521 13.3616 59.6935 13.22 60.0496 13.2197H89.9456C90.3017 13.22 90.6431 13.3616 90.8948 13.6134C91.1466 13.8652 91.2882 14.2066 91.2886 14.5626V18.9013C91.2917 22.8542 92.28 26.744 94.1642 30.219C94.3346 30.5316 94.6221 30.764 94.9636 30.865C95.3051 30.9661 95.6727 30.9276 95.9859 30.758C96.2988 30.5878 96.5313 30.3003 96.6324 29.9587C96.7335 29.6172 96.6948 29.2494 96.5249 28.9363C94.8539 25.8554 93.9773 22.4065 93.9745 18.9016V14.5626C93.9745 12.3408 92.1672 10.5334 89.9453 10.5334H60.0496C57.8278 10.5334 56.0204 12.3408 56.0204 14.5626V18.9013C56.0204 22.3888 55.1423 25.8591 53.4812 28.9402C53.3976 29.0955 53.3453 29.2657 53.3274 29.4411C53.3095 29.6165 53.3264 29.7938 53.377 29.9627C53.4276 30.1316 53.511 30.2889 53.6224 30.4256C53.7338 30.5623 53.8711 30.6757 54.0263 30.7593ZM120.75 75C120.75 100.227 100.226 120.75 74.9997 120.75C49.773 120.75 29.2494 100.227 29.2494 75C29.2494 49.7731 49.7728 29.2497 74.9997 29.2497C100.227 29.2497 120.75 49.7731 120.75 75ZM118.064 75C118.064 51.254 98.7449 31.9357 74.9997 31.9357C51.2544 31.9357 31.9353 51.254 31.9353 75C31.9353 98.7461 51.2544 118.064 74.9997 118.064C98.7449 118.064 118.064 98.7461 118.064 75ZM112.534 74.9961C112.534 95.6939 95.6965 112.532 74.9992 112.532C54.3026 112.532 37.4645 95.6942 37.4645 74.9961C37.4645 54.2996 54.3024 37.4614 74.9992 37.4614C95.6962 37.4614 112.534 54.2996 112.534 74.9961ZM109.848 74.9961C109.848 55.7802 94.2148 40.1476 74.9989 40.1476C55.7838 40.1476 40.1504 55.7802 40.1504 74.9961C40.1504 94.212 55.7838 109.846 74.9989 109.846C94.2148 109.846 109.848 94.212 109.848 74.9961Z" fill="#404040"/>
<path d="M79.4943 74.9507C79.4943 77.4557 77.4562 79.4936 74.9506 79.4936C73.6863 79.4936 72.5432 78.9728 71.7185 78.1368L63.9747 82.1467C63.8179 82.2308 63.6459 82.2829 63.4688 82.3C63.2916 82.3171 63.1129 82.2987 62.9429 82.2461C62.7729 82.1935 62.615 82.1076 62.4785 81.9934C62.342 81.8793 62.2295 81.7391 62.1477 81.5811C62.0658 81.4231 62.0161 81.2504 62.0016 81.0731C61.987 80.8957 62.0079 80.7172 62.0629 80.548C62.118 80.3787 62.2061 80.2221 62.3222 80.0873C62.4383 79.9524 62.58 79.8419 62.7392 79.7623L70.4871 75.7501C70.4403 75.4894 70.4064 75.2244 70.4064 74.9504C70.4064 72.9144 71.7608 71.2077 73.609 70.6313V56.3285C73.609 55.5863 74.2102 54.9856 74.9519 54.9856C75.6936 54.9856 76.2948 55.5863 76.2948 56.3285V70.6323C78.1415 71.2098 79.4943 72.9157 79.4943 74.9507ZM76.8083 74.9507C76.8083 73.9264 75.9749 73.0922 74.9506 73.0922C73.9258 73.0922 73.0922 73.9264 73.0922 74.9507C73.0922 75.9749 73.9256 76.8078 74.9506 76.8078C75.9749 76.8078 76.8083 75.9749 76.8083 74.9507ZM74.9498 45.5916C75.1262 45.5917 75.3009 45.557 75.4638 45.4895C75.6268 45.4221 75.7749 45.3232 75.8996 45.1985C76.0243 45.0737 76.1232 44.9257 76.1907 44.7627C76.2581 44.5998 76.2928 44.4251 76.2927 44.2487V42.8429C76.2927 42.1007 75.6915 41.5 74.9498 41.5C74.2081 41.5 73.6069 42.1007 73.6069 42.8429V44.2487C73.6069 44.4251 73.6416 44.5997 73.7091 44.7627C73.7766 44.9256 73.8755 45.0737 74.0002 45.1984C74.1249 45.3231 74.273 45.422 74.4359 45.4895C74.5988 45.5569 74.7735 45.5917 74.9498 45.5916ZM74.9498 104.308C74.7735 104.308 74.5988 104.343 74.4359 104.41C74.2729 104.478 74.1248 104.577 74.0001 104.702C73.8754 104.826 73.7765 104.974 73.709 105.137C73.6416 105.3 73.6069 105.475 73.6069 105.651V107.057C73.6069 107.799 74.2081 108.4 74.9498 108.4C75.6915 108.4 76.2927 107.799 76.2927 107.057V105.651C76.2928 105.475 76.2581 105.3 76.1907 105.137C76.1232 104.974 76.0243 104.826 75.8996 104.702C75.7749 104.577 75.6268 104.478 75.4638 104.41C75.3009 104.343 75.1262 104.308 74.9498 104.308ZM96.7037 51.298L95.7097 52.292C95.185 52.8167 95.185 53.6665 95.7097 54.1912C96.2344 54.7158 97.0842 54.7158 97.6089 54.1912L98.6028 53.1969C98.7276 53.0723 98.8265 52.9242 98.894 52.7613C98.9615 52.5984 98.9963 52.4238 98.9963 52.2475C98.9963 52.0711 98.9615 51.8965 98.894 51.7336C98.8265 51.5707 98.7276 51.4227 98.6028 51.298C98.4782 51.1732 98.3301 51.0743 98.1672 51.0067C98.0043 50.9392 97.8296 50.9045 97.6532 50.9045C97.4769 50.9045 97.3022 50.9392 97.1393 51.0067C96.9764 51.0743 96.8283 51.1732 96.7037 51.298ZM52.2914 95.7088L51.2971 96.7028C50.7724 97.2275 50.7724 98.0773 51.2971 98.602C51.8218 99.1267 52.6716 99.1267 53.1963 98.602L54.1903 97.608C54.315 97.4833 54.414 97.3353 54.4815 97.1724C54.5491 97.0094 54.5838 96.8348 54.5838 96.6584C54.5838 96.482 54.5491 96.3074 54.4815 96.1445C54.414 95.9815 54.315 95.8335 54.1903 95.7088C54.0656 95.5841 53.9176 95.4852 53.7547 95.4177C53.5918 95.3503 53.4171 95.3155 53.2408 95.3155C53.0645 95.3155 52.8899 95.3503 52.727 95.4177C52.5641 95.4852 52.416 95.5841 52.2914 95.7088ZM107.057 73.6065H105.651C104.909 73.6065 104.308 74.2071 104.308 74.9493C104.308 75.6916 104.909 76.2922 105.651 76.2922H107.057C107.799 76.2922 108.4 75.6916 108.4 74.9493C108.4 74.2071 107.799 73.6065 107.057 73.6065ZM44.2499 73.6065H42.8433C42.1016 73.6065 41.5004 74.2071 41.5004 74.9493C41.5004 75.6916 42.1016 76.2922 42.8433 76.2922H44.2499C44.9916 76.2922 45.5928 75.6916 45.5928 74.9493C45.5928 74.2071 44.9913 73.6065 44.2499 73.6065ZM97.6086 95.7075C97.0839 95.1829 96.2341 95.1829 95.7094 95.7075C95.1847 96.2322 95.1847 97.082 95.7094 97.6067L96.7034 98.6007C97.2281 99.1254 98.0779 99.1254 98.6026 98.6007C99.1273 98.076 99.1273 97.2262 98.6026 96.7018L97.6086 95.7075ZM53.1981 51.2964C53.0734 51.1717 52.9253 51.0727 52.7623 51.0052C52.5994 50.9377 52.4247 50.9029 52.2483 50.9029C52.0719 50.9029 51.8972 50.9377 51.7342 51.0052C51.5712 51.0727 51.4231 51.1717 51.2984 51.2964C51.0465 51.5482 50.905 51.8896 50.9048 52.2457C50.9047 52.6018 51.046 52.9434 51.2976 53.1954L52.2924 54.1909C52.5442 54.4429 52.8859 54.5846 53.2422 54.5847C53.5985 54.5848 53.9402 54.4434 54.1922 54.1916C54.4442 53.9397 54.5859 53.5981 54.586 53.2418C54.5861 52.8855 54.4447 52.5437 54.1929 52.2917L53.1981 51.2964Z" fill="url(#paint0_linear_1_330)"/>
<defs>
<linearGradient id="paint0_linear_1_330" x1="41.5004" y1="74.95" x2="108.4" y2="74.95" gradientUnits="userSpaceOnUse">
<stop stop-color="#DF9F41"/>
<stop offset="1" stop-color="#FFCB47"/>
</linearGradient>
</defs>
</svg>
