<svg width="210" height="120" viewBox="0 0 210 120" fill="none" xmlns="http://www.w3.org/2000/svg">
<path d="M81.4365 77.8509C80.9942 79.2727 80.8994 79.5571 82.4791 79.5571C83.9641 79.5571 84.5328 79.4939 85.3227 78.1985C85.4491 78.1669 85.5755 78.1985 85.6071 78.2617C85.4491 78.704 85.0068 79.6202 84.7856 79.9678C84.2801 79.9678 83.7745 79.9362 83.269 79.9362C82.7635 79.9362 82.258 79.9362 81.7841 79.9362H80.2675C79.7304 79.9362 79.3196 79.9362 78.9089 79.9678C78.8141 79.9046 78.8141 79.715 78.9089 79.6518L79.2249 79.6202C79.8568 79.5255 79.9831 79.3991 80.3939 78.0721L81.9104 73.238C82.2896 72.0058 82.3212 71.8163 81.6261 71.7215L81.3101 71.6583C81.2469 71.5635 81.2469 71.3739 81.3733 71.3423C81.8788 71.3423 82.3212 71.3739 82.8583 71.3739C83.427 71.3739 83.8061 71.3423 84.5012 71.3423C84.596 71.4055 84.6276 71.5951 84.5012 71.6583L84.0905 71.7215C83.3638 71.8163 83.3006 71.9742 82.8899 73.238C82.8899 73.2696 81.4365 77.8509 81.4365 77.8509ZM90.915 75.4497C90.915 76.4291 89.6196 77.0926 87.7555 77.5982C87.6607 77.8193 87.566 78.2301 87.566 78.7672C87.566 79.2095 87.8503 79.4939 88.1979 79.4939C88.6718 79.4939 88.9877 79.2411 89.5564 78.7356C89.6828 78.7356 89.746 78.8304 89.7144 78.9567C88.9245 79.9362 88.1979 80.1258 87.6292 80.1258C86.8393 80.1258 86.5865 79.3991 86.5865 78.7672C86.5865 77.9457 87.092 76.366 88.5138 75.2917C89.1773 74.7862 89.6828 74.6598 90.062 74.6598C90.6307 74.6598 90.915 75.1022 90.915 75.4497ZM88.8614 75.7025C88.3558 76.2396 88.0715 76.8399 87.9135 77.219C88.7666 76.9663 89.1773 76.7135 89.6512 76.2712C90.062 75.892 90.1568 75.5129 90.1568 75.3865C90.1568 75.2601 90.0936 75.1021 89.8724 75.1021C89.6828 75.0706 89.3353 75.1969 88.8614 75.7025ZM98.0239 73.0169C98.3399 72.0058 98.2135 71.911 97.6448 71.8479H97.2025C97.1077 71.7847 97.1393 71.5951 97.2025 71.5319C97.9291 71.4371 98.6558 71.3739 99.3825 71.3739C100.078 71.3739 100.867 71.4371 101.468 71.6899C102.1 71.9742 102.574 72.4482 102.574 73.3328C102.574 74.6282 101.278 75.2601 100.552 75.2917C100.33 75.2917 100.425 75.3865 100.552 75.4497C101.373 75.7341 101.91 76.4923 101.91 77.3454C101.91 77.8193 101.752 78.4828 101.215 79.0199C100.678 79.5571 99.6985 79.9994 98.1187 79.9994C97.4236 79.9994 96.9497 79.9678 96.381 79.9678C95.9387 79.9678 95.4963 79.9678 95.054 79.9994C94.9592 79.9362 94.9592 79.7466 95.054 79.6834L95.3067 79.6518C95.9387 79.5571 96.065 79.4307 96.4758 78.1037L98.0239 73.0169ZM97.3288 78.4828C97.0445 79.3359 97.4236 79.6202 98.3715 79.6202C99.4457 79.6202 100.836 78.9568 100.836 77.1874C100.836 76.0816 99.888 75.5445 98.9086 75.5445C98.2767 75.5445 98.2451 75.5445 98.1187 75.9868L97.3288 78.4828ZM98.4663 74.7862C98.3715 75.1021 98.4031 75.1653 98.9402 75.1653C99.888 75.1653 101.531 74.723 101.531 73.0801C101.531 72.3218 100.962 71.7847 99.888 71.7847C99.3825 71.7847 99.3825 71.7847 99.2561 72.1954L98.4663 74.7862ZM105.228 75.892L104.659 77.535H104.722C105.101 76.8083 105.733 75.7656 106.081 75.3549C106.365 74.9758 106.713 74.6914 107.029 74.6914C107.471 74.6914 107.534 75.1337 107.534 75.3233C107.534 75.5129 107.408 75.892 107.25 76.1132C107.092 76.3028 106.871 76.3344 106.839 76.05C106.776 75.7025 106.681 75.5445 106.555 75.5445C106.428 75.5445 106.302 75.6709 106.112 75.9236C105.322 76.9347 104.596 78.5144 103.901 79.9994C103.837 80.0942 103.774 80.1574 103.679 80.1574C103.521 80.1574 103.174 80.0942 103.237 79.8098C103.395 79.3043 104.217 76.9979 104.564 75.7341C104.596 75.5761 104.564 75.4497 104.469 75.4497C104.122 75.4497 103.774 75.7972 103.553 76.1132C103.427 76.1448 103.332 76.05 103.332 75.892C103.743 75.1969 104.248 74.6598 104.848 74.6598C105.575 74.6598 105.354 75.5445 105.228 75.892ZM112.021 74.3755C112.242 74.2807 112.589 74.4071 112.652 74.565C112.463 75.039 111.325 77.9141 110.915 79.0831C110.852 79.3043 110.915 79.3675 111.01 79.3675C111.231 79.3675 111.61 79.1463 112.337 78.5144C112.431 78.5144 112.526 78.5776 112.526 78.6724C111.989 79.3991 111.073 80.1258 110.346 80.1258C110.156 80.1258 109.967 79.9994 109.967 79.7782C109.967 79.6834 109.998 79.5571 110.093 79.2727L110.536 78.1037H110.504C109.588 79.2411 108.261 80.1258 107.66 80.1258C107.313 80.1258 107.092 79.7782 107.092 79.3991C107.092 79.1147 107.376 78.0721 108.229 76.8715C108.861 76.0184 109.398 75.5129 109.935 75.1969C110.441 74.9126 110.757 74.8178 111.104 74.8178C111.262 74.8178 111.325 74.8494 111.42 74.881C111.483 74.9126 111.61 75.0074 111.673 75.1653L112.021 74.3755ZM109.777 75.8604C108.956 76.5871 108.166 78.2933 108.166 79.2095C108.166 79.3675 108.229 79.4623 108.356 79.4623C108.482 79.4623 108.861 79.3043 109.619 78.6092C110.599 77.693 111.136 76.5871 111.357 75.7972C111.262 75.5445 111.041 75.3233 110.694 75.3233C110.378 75.3549 110.188 75.4813 109.777 75.8604ZM116.57 75.4181C116.57 75.6393 116.444 75.7656 116.349 75.8288C116.254 75.8604 116.191 75.8288 116.096 75.7341C115.875 75.5129 115.717 75.3233 115.306 75.3233C114.927 75.3233 114.769 75.6393 114.769 75.8288C114.769 76.1132 114.833 76.366 115.212 76.9979C115.528 77.535 115.717 77.8509 115.717 78.4512C115.717 78.7988 115.528 79.2727 115.054 79.6834C114.706 79.9678 114.232 80.1574 113.758 80.1574C113.284 80.1574 112.968 79.7782 112.968 79.4623C112.968 79.3359 113.032 79.1779 113.158 79.0199C113.253 78.9252 113.411 78.9252 113.506 79.0199C113.664 79.2095 114.074 79.5255 114.39 79.5255C114.706 79.5255 115.022 79.2095 115.022 78.7988C115.022 78.5776 114.864 78.1669 114.548 77.6614C114.201 77.1242 114.106 76.6819 114.106 76.4607C114.106 75.9552 114.327 75.5761 114.896 75.1021C115.275 74.7862 115.686 74.6598 115.844 74.6598C116.286 74.6598 116.57 75.1021 116.57 75.4181ZM120.267 75.4181C120.267 75.6393 120.14 75.7656 120.046 75.8288C119.951 75.8604 119.888 75.8288 119.793 75.7341C119.572 75.5129 119.414 75.3233 119.003 75.3233C118.624 75.3233 118.466 75.6393 118.466 75.8288C118.466 76.1132 118.529 76.366 118.908 76.9979C119.224 77.535 119.414 77.8509 119.414 78.4512C119.414 78.7988 119.224 79.2727 118.75 79.6834C118.403 79.9678 117.929 80.1574 117.455 80.1574C116.949 80.1574 116.665 79.7782 116.665 79.4623C116.665 79.3359 116.728 79.1779 116.855 79.0199C116.949 78.9252 117.107 78.9252 117.202 79.0199C117.36 79.2095 117.771 79.5255 118.087 79.5255C118.403 79.5255 118.719 79.2095 118.719 78.7988C118.719 78.5776 118.561 78.1669 118.245 77.6614C117.897 77.1242 117.802 76.6819 117.802 76.4607C117.802 75.9552 118.024 75.5761 118.592 75.1021C118.971 74.7862 119.382 74.6598 119.54 74.6598C119.983 74.6598 120.267 75.1021 120.267 75.4181ZM122.226 78.862C122.099 79.1779 122.163 79.3043 122.321 79.3043C122.51 79.3043 123.047 78.8936 123.711 78.2301C124.88 77.061 125.575 75.5445 125.986 74.7546C126.27 74.6914 126.554 74.8178 126.617 74.9758C126.491 75.3233 125.638 77.4402 125.101 78.9883C125.038 79.1463 125.038 79.3043 125.164 79.3043C125.417 79.3043 126.112 78.704 126.428 78.2933C126.554 78.2617 126.649 78.3248 126.649 78.4828C126.302 79.1147 125.069 80.1258 124.374 80.1258C124.153 80.1258 123.964 79.873 124.058 79.6834L124.943 77.3138H124.911C123.964 78.4828 122.384 80.1574 121.657 80.1574C121.12 80.1574 121.057 79.6202 121.278 79.0515L122.479 75.892C122.573 75.6393 122.573 75.5129 122.479 75.5129C122.226 75.5129 121.562 76.0816 121.246 76.3976C121.152 76.4291 121.057 76.3659 121.025 76.2712C121.025 76.2396 121.025 76.2396 121.025 76.208C121.373 75.7025 122.668 74.6598 123.268 74.6598C123.426 74.6598 123.742 74.8178 123.648 75.039L122.226 78.862ZM130.693 75.4181C130.693 75.6393 130.567 75.7656 130.472 75.8288C130.377 75.8604 130.314 75.8288 130.219 75.7341C129.998 75.5129 129.84 75.3233 129.429 75.3233C129.05 75.3233 128.892 75.6393 128.892 75.8288C128.892 76.1132 128.956 76.366 129.335 76.9979C129.651 77.535 129.84 77.8509 129.84 78.4512C129.84 78.7988 129.651 79.2727 129.177 79.6834C128.829 79.9678 128.355 80.1574 127.881 80.1574C127.407 80.1574 127.091 79.7782 127.091 79.4623C127.091 79.3359 127.155 79.1779 127.281 79.0199C127.376 78.9252 127.534 78.9252 127.629 79.0199C127.787 79.2095 128.197 79.5255 128.513 79.5255C128.829 79.5255 129.145 79.2095 129.145 78.7988C129.145 78.5776 128.987 78.1669 128.671 77.6614C128.324 77.1242 128.229 76.6819 128.229 76.4607C128.229 75.9552 128.45 75.5761 129.019 75.1021C129.398 74.7862 129.809 74.6598 129.967 74.6598C130.409 74.6598 130.693 75.1021 130.693 75.4181ZM34.9917 44.9288C35.9396 44.9288 36.761 45.9083 36.761 47.4248V59.3362C36.761 63.7279 34.9601 63.3488 33.0644 63.3488C31.1687 63.3488 30.9475 61.4847 30.9475 59.3046V47.4248C30.9475 45.9083 31.769 44.9288 32.7169 44.9288V44.2969H26.2715V44.9288C27.2193 44.9288 28.0724 45.9083 28.0724 47.4248V60.3156C28.0724 62.8117 29.431 64.6442 32.5589 64.6442C35.7184 64.6442 37.6457 64.4862 37.6457 59.273V47.4248C37.6457 45.9083 38.4672 44.9288 39.415 44.9288V44.2969H35.0233V44.9288M171.388 44.9288C172.336 44.9288 173.094 45.9083 173.094 47.4248V59.3362C173.094 63.7279 171.293 63.3488 169.397 63.3488C167.502 63.3488 167.28 61.4847 167.28 59.3046V47.4248C167.28 45.9083 168.07 44.9288 169.018 44.9288V44.2969H162.667V44.9288C163.615 44.9288 164.405 45.9083 164.405 47.4248V60.3156C164.405 62.8117 165.764 64.6442 168.892 64.6442C172.051 64.6442 173.979 64.4862 173.979 59.273V47.4248C173.979 45.9083 174.737 44.9288 175.685 44.9288V44.2969H171.419L171.388 44.9288ZM47.9773 63.2224C47.7245 63.2856 46.6187 63.412 45.7025 63.3488C44.9442 63.2856 44.9126 63.1592 44.9126 61.5163V47.2353C44.9126 45.5923 45.3233 45.1816 46.6503 45.1816C48.2933 45.1816 49.0199 45.6555 49.5571 47.1089C50.6629 49.9209 50.4733 55.1972 50.1574 59.1782C50.2206 59.2098 49.7782 62.7169 47.9773 63.2224ZM47.535 44.3285H40.2997V44.9604C41.2475 44.9604 42.0374 45.9399 42.0374 47.4564V61.2003C42.0374 62.7169 41.2475 63.6963 40.2997 63.6963V64.2966H48.4196C49.715 64.2966 51.2316 63.5383 52.1479 60.8844C53.0641 58.104 53.1589 55.8607 53.0325 52.3853C52.8745 48.9414 52.3058 46.8561 51.4844 45.8135C50.6945 44.7393 49.3991 44.3285 47.535 44.3285ZM59.5095 63.3172C58.5933 63.1908 58.4669 62.7801 58.4669 61.2951V54.7233C60.5522 54.9129 60.7417 54.8813 61.2788 57.6301H61.8475V50.7739H61.2788C60.8365 53.3647 60.5522 53.5227 58.4669 53.6807V46.9825C58.4669 45.4975 58.5933 45.2132 59.2568 45.2448L60.4574 45.308C63.3009 45.4344 63.4589 47.1405 63.6485 48.1199H64.3752V44.2969H53.8224V44.9288C54.7703 44.9288 55.5917 45.9083 55.5917 47.4248V61.1687C55.5917 62.6853 54.7703 63.6647 53.8224 63.6647V64.265H64.4699L65.2598 60.6632H64.4383C63.5221 63.8543 60.9313 63.3804 59.5095 63.3172ZM182.193 63.3172C181.277 63.1908 181.151 62.7801 181.151 61.2951V54.7233C183.236 54.9129 183.425 54.8813 183.963 57.6301H184.531V50.7739H183.963C183.52 53.3647 183.236 53.5227 181.151 53.6807V46.9825C181.151 45.4975 181.277 45.2132 181.941 45.2448L183.141 45.308C185.985 45.4344 186.143 47.1405 186.332 48.1199H187.059V44.2969H176.569V44.9288C177.517 44.9288 178.307 45.9083 178.307 47.4248V61.1687C178.307 62.6853 177.517 63.6647 176.569 63.6647V64.265H187.185L187.975 60.6632H187.154C186.206 63.8543 183.615 63.3804 182.193 63.3172ZM21.2479 55.6712H16.2558L21.2479 43.3491V55.6712ZM24.439 40H18.973V40.6319C20.4264 40.6319 20.5528 41.7061 20.0788 42.8752C18.2463 47.5196 13.6018 59.3046 13.0647 60.5052C12.4012 62.0218 11.4218 63.6647 10 63.6647V64.265H15.1816V63.6647C14.0126 63.6647 13.6334 61.927 14.2337 60.5052C14.8341 59.0834 15.8451 56.5874 15.8451 56.5874H21.2479V60.916C21.2479 63.5383 20.3 63.6647 19.0046 63.6647V64.265H26.7454V63.6647C25.6396 63.6647 24.5022 63.5699 24.5022 60.916C24.4706 59.4942 24.439 40 24.439 40ZM138.055 51.5954C138.055 52.2589 137.834 52.6064 137.328 52.6064H134.737V47.2985V46.0663V40.8847H137.328C137.802 40.8847 138.055 41.2638 138.055 42.0221V51.5954ZM138.655 40H129.208V40.6319C130.567 40.6319 131.483 41.5482 131.483 43.3491V60.6632C131.483 63.412 130.441 63.6331 129.24 63.6331V64.2334H136.981V63.6331C135.59 63.6331 134.769 63.3172 134.769 60.6632V53.5227H138.908C140.235 53.5227 141.278 52.5433 141.278 50.3632V43.0015C141.214 41.2638 140.361 40 138.655 40ZM75.0227 58.262L71.1681 44.3285H66.0813V44.9604C67.3451 44.9604 67.8822 45.4028 67.8822 47.5196V61.2003C67.8822 62.7169 67.1555 63.6963 66.1129 63.6963V64.2966H70.5994V63.6963C69.5568 63.6963 68.8301 62.7485 68.8301 61.2003V46.7929L73.7273 64.2334H74.2012L79.2564 46.8561V61.1371C79.2564 62.6537 78.5298 63.6331 77.4871 63.6331V64.2334H83.9957V63.6331C82.9531 63.6331 82.1948 62.6853 82.1948 61.1371V47.4248C82.1948 45.9083 82.9531 44.9288 83.9957 44.9288V44.2969H79.0985L75.0859 57.9144M106.081 51.9429C106.081 54.3442 103.553 53.9966 102.668 54.0282V46.5086C102.668 45.7187 102.7 45.308 103.395 45.308C104.754 45.308 106.081 45.0868 106.081 46.9509V51.9429ZM109.746 62.5905L106.428 54.7549C107.471 54.5022 108.829 54.0914 108.829 52.2589C108.829 50.2684 108.798 48.1831 108.798 46.7929C108.798 44.3285 106.523 44.3285 104.185 44.3285H98.0871V44.9604C99.035 44.9604 99.8248 45.9399 99.8248 47.4564V61.2003C99.8248 62.7169 98.8138 63.6963 98.0871 63.6963V64.2966H104.501V63.6963C103.553 63.6963 102.732 62.7485 102.732 61.2003V55.0077H103.679L106.965 63.1908C106.965 63.1908 107.123 63.6647 107.471 64.0123C107.787 64.3282 108.419 64.2966 108.419 64.2966H110.788V63.6963C110.536 63.6331 110.251 63.7911 109.746 62.5905ZM143.142 44.9288C144.311 44.9288 144.879 45.9083 144.879 47.4248V61.1687C144.879 62.6853 144.342 63.6647 143.142 63.6647V64.265H149.461V63.6647C148.292 63.6647 147.755 62.7169 147.755 61.1687V47.4248C147.755 45.9083 148.292 44.9288 149.461 44.9288V44.2969H143.142V44.9288ZM117.329 51.9745C115.117 50.8371 114.295 49.3521 114.295 48.0567C114.295 47.3617 114.58 44.7709 116.349 44.7709C119.035 44.8025 119.856 48.5939 120.14 50.2368H120.678V44.0442H120.077C120.046 44.7077 119.793 44.8972 119.477 44.8972C118.498 44.8656 118.182 43.6966 115.591 43.823C113.916 43.8862 111.831 45.3712 111.831 49.3521C111.831 51.1847 112.526 53.7123 114.769 55.2288C118.024 57.4405 119.066 58.2936 119.066 59.9997C119.066 60.6948 118.877 63.6647 116.254 63.6647C114.422 63.6647 113.221 60.6316 112.968 59.4942L112.558 57.4405H111.957V64.423H112.558C112.621 63.8543 112.779 63.5699 113 63.5699C113.948 63.5699 114.927 64.581 116.633 64.581C120.93 64.5178 121.72 60.8844 121.72 58.8307C121.752 55.9555 120.393 53.5543 117.329 51.9745ZM157.77 54.1862V54.6917C157.77 54.6917 158.655 54.7865 158.655 56.1767V60.8528C158.655 63.3488 157.802 63.5383 156.285 63.5383C154.769 63.5383 154.168 62.9696 154.168 61.0739V47.3301C154.168 46.0347 154.832 44.9288 156.443 44.9288C158.213 44.9288 160.14 46.6982 160.14 50.1736H161.119V44.0442H160.393C160.393 46.3822 159.002 43.981 156.538 43.981C154.769 43.981 153.284 44.4233 152.462 45.3712C151.609 46.319 151.23 47.488 151.23 48.8466V59.6206C151.23 60.9791 151.609 62.1166 152.462 63.0644C153.315 64.0439 155.179 64.5178 156.38 64.5178C157.075 64.5178 158.086 64.265 158.592 64.0123C159.097 63.7595 159.571 63.412 159.982 62.938C160.835 61.9586 161.277 60.8212 161.277 59.4942V56.1451C161.277 54.8181 162.162 54.7233 162.162 54.7233V54.2178C162.099 54.1862 157.77 54.1862 157.77 54.1862ZM96.1598 62.2745L92.1157 44.2337H88.5454V44.8656C89.7776 44.8656 89.6196 45.8767 89.3985 47.1089L86.4917 61.6742C86.081 63.3172 85.5755 63.6015 85.0699 63.6015V64.2018H88.4506V63.6015C87.1868 63.6015 87.1552 62.5589 87.5344 61.0423L88.1347 58.1356H92.4L93.1899 61.7058C93.6006 63.3172 92.9687 63.6015 92.1788 63.6015V64.2018H97.3288V63.6015C96.9813 63.6331 96.4758 63.5068 96.1598 62.2745ZM88.3242 57.2193L90.1252 48.2463L92.1472 57.2193H88.3242ZM188.354 44.3285V48.1515H189.018C189.113 47.3933 189.271 46.2558 189.966 45.8135C190.661 45.3712 191.356 45.4028 192.525 45.4028V61.1687C192.525 62.6853 191.767 63.6647 190.819 63.6647V64.265H197.138V63.6647C196.19 63.6647 195.4 62.7169 195.4 61.1687V45.4028C196.537 45.4028 197.264 45.3712 197.959 45.8135C198.654 46.2558 198.812 47.3933 198.907 48.1515H199.571V44.3285H188.354Z" fill="#AB9257"/>
</svg>
