<svg width="210" height="120" viewBox="0 0 210 120" fill="none" xmlns="http://www.w3.org/2000/svg">
<path d="M19 71.6953C19.5681 71.7949 19.8522 71.994 19.8522 72.2903V86.7277C19.8522 87.024 19.5681 87.2231 19 87.3203V87.6166H30.4716C32.4623 87.6166 34.0759 87.1236 35.119 86.2347C35.9735 85.4431 36.4461 84.3551 36.4461 83.068C36.4461 81.0912 35.3099 79.8041 33.0328 79.112V79.0124C33.8873 78.8133 34.644 78.4174 35.119 77.9244C35.6206 77.2826 35.8894 76.4769 35.878 75.6489C35.878 74.1651 35.3099 73.0747 34.2668 72.385C33.4146 71.6929 32.0852 71.3942 30.3808 71.3942H19V71.6953ZM29.5776 77.5067C29.361 77.5067 24.2783 77.497 24.3086 77.531V74.663L29.5776 74.6775C31.5683 74.6775 31.5333 75.6781 31.4984 76.2731C31.4635 76.8656 31.1445 77.5067 29.5776 77.5067ZM31.6102 81.0888C32.0852 81.385 32.2738 81.7809 32.2738 82.473C32.2738 83.1651 32.0828 83.6581 31.6102 83.9568C31.1352 84.2531 30.3785 84.3502 29.3354 84.3502H24.3086V80.6929H29.3354C30.3785 80.6929 31.1352 80.7925 31.6102 81.0888ZM46.6861 78.2231V74.8597H51.7106C53.2286 74.8597 53.9877 75.4522 53.9877 76.5402C53.9877 77.6282 53.2286 78.2207 51.7106 78.2207L46.6861 78.2231ZM49.6267 81.4846L51.522 84.2555C52.5651 85.7369 53.1332 86.6282 53.1332 86.7277C53.1332 87.024 52.9423 87.2231 52.5627 87.3203V87.6166H58.7258V87.3203C58.4417 87.3203 58.1577 87.1236 57.8736 86.7277L54.3649 81.5866C57.1146 80.7949 58.5372 79.112 58.5372 76.5426C58.5372 74.7625 58.0622 73.4754 57.1146 72.5866C56.0715 71.7949 54.4603 71.3991 52.2787 71.3991H41.4706V71.6978C41.9456 71.7973 42.2297 71.9965 42.2297 72.2928V86.7302C42.2297 87.0264 41.9456 87.2256 41.4706 87.3227V87.619H47.5382V87.3227C46.9678 87.2256 46.6837 87.0264 46.6837 86.7302V81.4895H49.6267V81.4846ZM78.924 71.1999C79.0194 71.1004 79.0194 70.8041 79.1149 70.5078H79.4944V75.8481H79.1149C79.1149 75.8481 79.0544 75.2919 78.924 75.1559C78.7936 75.02 78.5445 75.0564 78.5445 75.0564H69.0635V77.6306H74.563C75.038 77.6306 75.3221 77.3343 75.4175 76.8389H75.797V81.6837H75.4152C75.3197 81.1908 75.0357 80.9916 74.5607 80.9916H69.0612V83.8621H78.5421C78.7331 83.8621 78.8262 83.7625 78.9216 83.663C79.0171 83.5658 79.0171 83.3667 79.1126 82.9708H79.4921V88.3111H79.1126C79.0171 87.8181 78.8262 87.619 78.5421 87.619H63.7503V87.3227C64.3208 87.2256 64.6048 87.0264 64.6048 86.7302V72.2928C64.6048 71.9965 64.3208 71.7973 63.7503 71.6978V71.3991H78.5421C78.7354 71.3966 78.8285 71.2995 78.924 71.1999ZM84.803 71.3966H90.8706V71.6953C90.3001 71.7949 90.0161 71.994 90.0161 72.2903V86.7277C90.0161 87.024 90.3001 87.2231 90.8706 87.3203V87.6166H84.803V87.3203C85.278 87.2231 85.562 87.024 85.562 86.7277V72.2903C85.562 71.994 85.278 71.7949 84.803 71.6953V71.3966ZM105.758 75.1559V86.7277C105.758 87.024 106.042 87.2231 106.515 87.3203V87.6166H100.447V87.3203C101.017 87.2231 101.301 87.024 101.301 86.7277V75.1559H96.1815C95.9929 75.1559 95.8974 75.2555 95.802 75.3551L95.6134 76.0448H95.2339V70.5078H95.6134L95.802 71.1999C95.8974 71.2995 95.9929 71.3966 96.1815 71.3966H110.878C110.973 71.3966 111.069 71.2995 111.164 71.1999L111.353 70.5078H111.732V76.0448H111.353L111.164 75.3551C111.069 75.2555 110.973 75.1559 110.878 75.1559H105.758ZM132.212 82.9684V88.5078H131.928C131.833 87.9153 131.644 87.6166 131.36 87.6166H115.905V87.3203C116.377 87.2231 116.661 87.024 116.661 86.7277V72.2903C116.661 71.994 116.377 71.7949 115.905 71.6953V71.3966H121.972V71.6953C121.402 71.7949 121.118 71.994 121.118 72.2903V83.8621H131.358C131.546 83.8621 131.642 83.8621 131.737 83.7625L131.926 82.9708L132.212 82.9684ZM142.168 72.2879V86.7253C142.168 87.0216 142.452 87.2207 143.02 87.3178V87.6141H136.86V87.3178C137.428 87.2207 137.712 87.0216 137.712 86.7253V72.2879C137.712 71.9916 137.428 71.7925 136.86 71.6929V71.3942H143.02V71.6929C142.452 71.7925 142.168 71.9916 142.168 72.2879ZM166.441 72.2879V86.7253C166.441 87.0216 166.725 87.2207 167.293 87.3178V87.6141H161.7V87.3178C162.175 87.3178 162.364 87.2207 162.364 86.922C162.364 86.8249 161.891 86.2323 161.037 85.2439C158.855 82.7693 156.392 80.1004 153.735 77.0332V86.7253C153.735 87.0216 154.019 87.2207 154.59 87.3178V87.6141H148.995V87.3178C149.47 87.2207 149.754 87.0216 149.754 86.7253V72.2879C149.754 71.9916 149.47 71.7925 148.995 71.6929V71.3942H156.108V71.6929C155.54 71.7925 155.256 71.8921 155.256 72.1883C155.256 72.2879 156.203 73.473 158.101 75.5518L162.462 80.5958V72.2879C162.462 71.9916 162.271 71.7925 161.894 71.6929V71.3942H167.295V71.6929C166.725 71.7925 166.441 71.9916 166.441 72.2879ZM188.439 72.6837L188.818 72.4846L189.198 72.5842L187.3 76.7369L186.923 76.4406V76.1443C186.923 75.8481 186.353 75.4522 185.216 75.1559C184.006 74.8464 182.765 74.681 181.519 74.663C180.001 74.663 178.767 75.0564 177.819 75.8481C176.683 76.7369 176.115 78.024 176.115 79.6074C176.115 81.0888 176.779 82.3759 178.01 83.2671C179.053 83.9592 180.381 84.3527 181.899 84.3527C183.278 84.3637 184.652 84.1641 185.975 83.7601V81.7833H182.183C181.899 81.7833 181.803 81.98 181.708 82.3759H181.424V78.0216H181.708C181.803 78.4174 181.899 78.6166 182.183 78.6166H191V78.9128C190.62 79.0124 190.432 79.2091 190.432 79.5054V84.6465C190.432 84.9428 190.525 85.1419 190.811 85.1419H191V85.5378C188.343 87.0191 185.121 87.8133 181.424 87.8133C178.767 87.8133 176.588 87.1211 174.786 85.7369C172.795 84.2555 171.752 82.1767 171.752 79.5078C171.752 76.8389 172.793 74.7601 174.786 73.2787C176.585 71.8945 178.651 71.2024 181.424 71.2024C184.197 71.1999 188.343 72.6837 188.439 72.6837Z" fill="black"/>
<path d="M111.161 40.3391C111.161 41.0024 110.782 41.7611 110.023 42.6153C109.55 42.3313 108.98 42.2359 108.412 42.2359C107.56 42.2359 106.8 42.4267 106.326 42.8061C105.851 43.1855 105.662 43.5648 105.662 43.9442C105.662 44.9869 106.421 45.4593 107.844 45.4593C108.412 45.4593 109.075 45.2685 109.834 44.796C110.214 45.2708 110.402 45.9341 110.402 46.5974C110.402 47.924 110.023 49.0621 109.359 49.914C108.698 50.7658 107.939 51.2406 107.178 51.2406C106.326 51.2406 105.566 50.7658 104.903 49.7231L104.807 39.5827C107.653 38.1606 109.641 38.0652 110.78 39.2987C110.91 39.4374 111.011 39.6011 111.077 39.7799C111.142 39.9587 111.171 40.1489 111.161 40.3391ZM107.087 43.9419C107.087 43.751 107.371 43.6556 107.844 43.6556L108.507 43.8464C108.128 44.0373 107.939 44.1304 107.844 44.1304C107.369 44.1304 107.087 44.0373 107.087 43.9419ZM112.868 37.8767C112.205 37.0225 111.164 36.6455 109.739 36.6455C108.319 36.6455 106.61 37.0248 104.81 37.8767V36.4546C105.566 35.9798 105.946 35.3165 105.946 34.4647C105.946 33.8014 105.757 33.2335 105.282 32.7587C104.81 32.2839 104.239 32 103.578 32C102.915 32 102.346 32.2839 101.871 32.7587C101.396 33.2335 101.208 33.8014 101.208 34.4647C101.208 35.3189 101.587 35.9822 102.346 36.4546V39.1079C102.346 39.1079 98.7538 40.8208 95.8015 44.5098C94.3696 46.3018 93.6199 48.0171 93.4313 49.6277V50.1025C93.4313 51.3337 93.8108 52.3764 94.5698 53.1351C95.2334 53.6099 95.897 53.8938 96.656 53.8938C98.2672 53.7984 100.069 52.6603 102.155 50.2933L102.06 58.2554C101.208 58.5393 100.735 58.9187 100.449 59.3911C98.5536 58.9163 96.94 57.9714 95.5174 56.6425C95.8015 56.2631 96.0855 55.8837 96.3696 55.4113V55.3159C95.1379 54.6525 94.188 53.9892 93.6199 53.2305C92.9263 52.3368 92.5584 51.2334 92.5768 50.1025H92.3882C91.9524 51.0542 91.7261 52.0884 91.7246 53.1351C91.7246 55.0296 92.2927 56.831 93.4313 58.4415H93.5267L94.2858 57.8737C95.1379 58.9163 96.0856 59.7682 97.3196 60.5269C98.5536 61.1902 99.8807 61.7604 101.303 62.0444C101.967 62.1375 102.44 62.4214 102.915 63.0847C103.294 63.5595 103.483 64.032 103.483 64.5067H103.671C103.671 64.032 103.862 63.5595 104.239 63.0847C104.619 62.4214 105.094 62.1375 105.757 62.0444C108.698 61.4741 111.066 60.0544 112.773 57.8737L113.627 58.4415H113.72C114.763 56.8674 115.323 55.023 115.331 53.1351C115.318 52.099 115.126 51.073 114.763 50.1025H114.575C114.575 51.3337 114.195 52.3764 113.532 53.2305C112.964 53.9892 112.016 54.6525 110.782 55.3159V55.4113L111.539 56.6425C110.211 57.9857 108.538 58.9368 106.705 59.3911C106.421 58.9163 105.946 58.5393 105.094 58.2554L104.998 52.6626C105.851 53.1374 106.705 53.4214 107.655 53.4214C108.372 53.4223 109.081 53.2707 109.735 52.9766C110.389 52.6824 110.973 52.2525 111.448 51.7154C112.491 50.5773 113.059 49.2507 113.059 47.6401C113.059 46.0295 112.489 44.7029 111.448 43.6603C112.868 42.3336 113.629 41.007 113.629 39.7758C113.627 39.1079 113.343 38.54 112.868 37.8767ZM102.344 41.0978L102.153 48.4919C101.49 49.4392 100.733 50.1979 99.8761 50.6727C99.0239 51.2429 98.3603 51.5269 97.6944 51.5269C97.1263 51.5269 96.6513 51.336 96.3673 50.8635C96.0832 50.3888 95.8946 49.9163 95.8946 49.3484C95.8946 48.3057 96.2741 47.1676 97.1263 45.9364C98.0739 44.6098 99.4965 43.1878 101.299 41.7658L102.344 41.0978Z" fill="black"/>
<path d="M113.531 44.6075C113.531 45.4593 113.911 46.6928 114.67 48.1125L115.333 49.5346L115.429 49.9139C115.808 51.1451 115.997 52.6626 115.997 54.464C115.997 55.4112 116.283 56.0722 116.851 56.5493C117.42 57.0241 118.272 57.3081 119.317 57.3081C120.265 57.3081 121.117 57.1172 121.878 56.6448C122.469 56.3927 122.965 55.9622 123.299 55.4136C124.153 55.5067 124.817 55.4136 125.289 55.2227C125.842 55.0437 126.312 54.6741 126.616 54.18C128.228 54.4663 129.273 54.0846 129.746 53.042C130.977 53.042 131.832 52.9465 132.307 52.758C132.78 52.5672 133.254 52.1901 133.729 51.5268C134.773 51.5268 135.627 51.336 136.291 50.8635C136.954 50.4841 137.238 50.1048 137.334 49.6323L137.713 49.5369C138.377 49.3484 138.945 49.0621 139.42 48.5896C139.797 48.1149 139.988 47.7378 140.081 47.263C141.692 46.5997 142.549 45.841 142.549 44.8937V44.7006C143.213 44.5097 143.497 44.1304 143.497 43.5625C143.5 43.4377 143.476 43.3137 143.427 43.1992C143.378 43.0846 143.304 42.9822 143.21 42.8992C142.924 42.6152 142.356 42.4244 141.504 42.4244L139.797 42.6152L134.773 42.8061C131.075 42.8061 127.471 42.5198 123.867 42.0473L118.651 41.668C116.661 41.668 115.238 42.0473 114.383 42.7106C114.107 42.9419 113.887 43.2327 113.74 43.5613C113.592 43.8898 113.521 44.2475 113.531 44.6075ZM118.083 43.1831L120.737 43.467C124.814 43.9418 128.514 44.2258 131.643 44.2258L139.702 43.751L141.408 43.6556L141.979 43.751C141.979 43.8464 141.788 43.9418 141.504 43.9418L138.47 44.3212L131.643 44.7006L121.878 44.0373L118.272 43.8464L117.04 43.9418H116.377C116.188 43.9418 116.092 43.9418 116.092 43.8464C116.092 43.751 116.188 43.5625 116.472 43.467C116.984 43.2651 117.532 43.1685 118.083 43.1831ZM115.429 46.4065C115.429 45.3639 116.377 44.796 118.37 44.796L120.36 44.8914L131.643 45.4593C135.72 45.4593 138.47 45.2685 140.081 44.9845C140.84 44.7937 141.22 44.7937 141.313 44.9845C141.408 45.0799 141.313 45.1754 141.22 45.3639C141.124 45.6478 140.84 45.9318 140.556 46.2157L139.42 46.9744L139.324 47.0699C139.42 47.3538 139.229 47.6377 138.756 48.1125C138.279 48.585 137.615 48.9667 136.952 49.1552L136.763 49.4391C136.479 49.9139 136.004 50.1979 135.532 50.4818C134.868 50.7658 134.204 50.9566 133.445 50.9566C132.689 52.0947 131.359 52.5672 129.464 52.4741L129.369 52.5695C128.896 53.4236 127.853 53.8007 126.335 53.8007H126.239C125.576 54.6548 124.535 55.0342 123.015 55.0342V55.1296C121.878 56.0769 120.737 56.5517 119.506 56.5517C117.895 56.5517 117.04 55.8884 117.04 54.4663C117.04 52.9489 116.945 51.7177 116.661 50.7681L115.997 48.7758C115.62 47.9217 115.429 47.0699 115.429 46.4065Z" fill="black"/>
<path d="M118.556 47.0698C118.46 47.0698 118.367 46.9744 118.367 46.8789C118.367 46.6881 118.556 46.4996 118.842 46.4041C119.506 46.3087 120.549 46.3087 121.971 46.4041C121.876 46.8789 121.592 47.1629 120.928 47.2583H119.601L118.556 47.0698ZM116.756 47.8285L116.945 48.6827L116.851 50.2932C116.851 50.8611 117.231 51.1451 117.988 51.1451C118.556 51.1451 119.031 51.0496 119.503 50.7657C119.76 50.6526 119.978 50.4666 120.13 50.2307C120.282 49.9948 120.361 49.7196 120.358 49.4391C120.642 49.4391 120.926 49.2482 121.21 48.9643C121.494 48.6803 121.59 48.301 121.683 48.017C122.008 47.8965 122.301 47.7012 122.537 47.4468C122.816 47.156 123.012 46.796 123.105 46.4041H123.201C123.105 46.8789 123.01 47.1629 122.821 47.3514V47.4468L123.485 47.5422L123.58 47.4468C123.864 47.1629 123.96 46.8789 124.055 46.4996H126.332C126.521 46.595 126.616 46.7835 126.521 46.8789C126.521 47.0698 126.426 47.1629 126.141 47.1629L124.244 47.0675L124.151 47.1629L123.774 47.7331V47.8285L125.573 47.9239C125.953 48.0194 126.144 48.1148 126.144 48.3033C126.144 48.3987 126.048 48.4941 125.764 48.5872C125.498 48.7167 125.206 48.7821 124.91 48.7781L123.203 48.6827L122.728 49.2506V49.346L124.339 49.5345L124.53 49.7253C124.435 49.9162 124.055 50.0093 123.58 49.9162L122.158 49.7253H122.062L121.59 50.1047V50.2932L123.01 50.4817C123.201 50.5772 123.294 50.6726 123.201 50.7657C123.105 51.052 122.821 51.1451 122.158 51.052L120.926 50.6726L120.831 50.768L120.262 51.1474V51.2428L121.494 51.6222L121.683 51.813C121.59 52.0039 121.306 52.0039 120.642 51.9084L119.694 51.4337L119.124 51.813V51.9084L119.978 52.3832C120.167 52.4787 120.262 52.5741 120.167 52.6672C120.072 52.7626 119.978 52.858 119.787 52.858L119.028 52.5717L118.651 51.9992H118.556L117.988 52.0946V52.2855C119.031 53.7075 120.36 54.6548 122.065 55.3181H122.16L122.54 55.0341V54.9364C121.671 54.5466 120.844 54.0702 120.072 53.5143C120.451 53.6098 120.735 53.5143 120.926 53.2304L121.115 52.851C122.158 53.2304 123.58 53.6098 125.382 54.0822L125.476 53.9868L125.951 53.7029V53.5143C124.435 53.2304 123.201 52.851 122.158 52.5671C122.442 52.4717 122.537 52.3762 122.63 52.1877V51.9038C124.432 52.3786 126.423 52.6625 128.509 52.8534L128.982 52.5671V52.3762C127.189 52.2067 125.414 51.8899 123.673 51.429C123.958 51.3336 124.053 51.2405 124.148 51.0496V50.6703C127.087 51.1451 129.741 51.3336 132.302 51.3336L132.966 51.0496V50.8611L125.38 50.1978L125.569 49.9139V49.5345C128.13 49.7253 131.541 49.8184 135.809 49.8184L136.472 49.2506V49.1551C132.395 49.1551 129.075 49.0597 126.707 48.9643C126.991 48.8689 127.084 48.6803 127.084 48.3964L126.989 48.017C130.307 48.1125 134.1 48.017 138.556 47.8262L138.652 47.7308L139.124 47.1606L139.031 46.9697C134.195 47.256 130.307 47.3491 127.368 47.256C127.464 47.1606 127.464 46.9697 127.464 46.7812L127.368 46.5903C132.395 46.6858 136.565 46.5903 139.883 46.3041H139.979L140.451 45.6408L140.358 45.5453L132.202 45.9247L122.246 45.4499L118.928 45.3545C117.317 45.3545 116.558 45.7339 116.558 46.4926C116.567 46.8813 116.661 47.3537 116.756 47.8285ZM117.988 49.5345H119.599C119.503 49.9139 119.315 50.1978 119.031 50.2932L118.179 50.4817C117.892 50.4817 117.799 50.4817 117.704 50.3863C117.608 50.2909 117.513 50.1024 117.608 49.9115L117.988 49.5345ZM118.179 48.301C118.272 48.1101 118.463 48.017 118.747 47.9216L120.735 48.017C120.735 48.301 120.547 48.5849 120.072 48.6803L119.031 48.7758C118.556 48.7758 118.367 48.7758 118.272 48.6803L118.179 48.301Z" fill="black"/>
<path d="M122.539 47.7332L122.444 47.8286L122.255 48.2056L121.971 48.6804V48.7758L122.539 48.8713H122.632L123.203 47.9217L123.107 47.8286L122.539 47.7332ZM121.496 49.0598H121.401C121.305 49.346 121.114 49.63 120.83 49.7231V49.9139L121.305 50.0093C121.589 49.8185 121.873 49.5346 121.969 49.2506L121.873 49.1552L121.496 49.0598ZM120.833 50.2933L120.737 50.1024L120.453 50.007L120.36 50.1024L119.885 50.4818V50.6727L120.169 50.7681V50.6703C120.264 50.7658 120.548 50.5772 120.833 50.2933ZM119.41 51.2405C119.598 51.2405 119.789 51.1451 120.071 50.9543V50.7657L119.787 50.6703H119.692C119.647 50.7576 119.579 50.8306 119.495 50.8808C119.411 50.9311 119.315 50.9565 119.217 50.9543V51.1451L119.41 51.2405ZM118.935 51.2405L118.842 51.1451L118.555 51.336H118.271L118.178 51.5245L118.271 51.6199L119.03 51.4291V51.336L118.935 51.2405Z" fill="black"/>
<path d="M92.7669 42.7106C91.9124 42.0473 90.4898 41.668 88.499 41.668L83.1905 42.0473C79.6081 42.5417 75.9965 42.7952 72.3801 42.8061L67.2601 42.6152L65.6489 42.4244C64.7968 42.4244 64.2286 42.6152 63.9423 42.8992L63.6582 43.5625C63.6582 44.1304 63.9423 44.5097 64.6058 44.7006V44.8914C64.6058 45.8387 65.4603 46.5974 67.0715 47.2607C67.0715 47.7355 67.2601 48.1125 67.7351 48.5873C68.2101 49.0621 68.7782 49.346 69.4418 49.5346L69.8213 49.63C69.9167 50.1048 70.2008 50.4818 70.7689 50.8612C71.5279 51.336 72.3801 51.5245 73.4255 51.5245C73.8982 52.1878 74.3731 52.5672 74.8458 52.7557C75.3208 52.9465 76.0798 53.042 77.3115 53.042C77.7864 54.0846 78.8272 54.464 80.4407 54.18C80.7248 54.6525 81.1974 55.0319 81.8633 55.2204L83.854 55.4112C84.1381 55.8837 84.5176 56.3585 85.1812 56.6424C86.0357 57.1149 86.8879 57.3057 87.8355 57.3057C88.8786 57.3057 89.6376 57.0218 90.208 56.547C90.7761 56.0722 91.0602 55.4112 91.0602 54.4617C91.0602 52.6603 91.2511 51.1428 91.7238 49.9116L91.8192 49.5322L92.4828 48.1102C92.8623 47.4469 93.1464 46.879 93.2418 46.4996C93.5043 45.9031 93.6338 45.2567 93.6213 44.6051C93.6306 44.2455 93.5586 43.8883 93.4106 43.5603C93.2627 43.2323 93.0426 42.9419 92.7669 42.7106ZM88.69 44.796C90.6807 44.796 91.6283 45.3662 91.6283 46.4065C91.6283 47.0699 91.4397 47.9217 91.0602 48.7758L90.3966 50.7658C90.1102 51.7153 90.0171 52.9465 90.0171 54.464C90.0171 55.8837 89.2581 56.5493 87.6469 56.5493C86.4152 56.5493 85.1812 56.0746 84.1381 55.1273L84.0426 55.0319C82.6224 55.0319 81.577 54.6525 80.9134 53.7984H80.8179C79.2067 53.7984 78.2568 53.419 77.7841 52.5672L77.6887 52.4717C75.6979 52.5672 74.3708 52.0924 73.7072 50.9543H73.6118C72.8527 50.9543 72.1892 50.7634 71.5256 50.4795C71.0506 50.1955 70.6711 49.9116 70.387 49.4368L70.1961 49.1529C69.5326 48.962 68.869 48.5827 68.394 48.1102C67.919 47.6377 67.7304 47.3515 67.7304 47.0675V46.9744C67.3031 46.8017 66.9157 46.5435 66.5919 46.2157C66.2124 45.9318 65.9283 45.6478 65.8329 45.3639L65.7374 44.9845C65.8329 44.7937 66.3055 44.7937 67.0645 44.9845C68.5803 45.2685 71.4255 45.4593 75.5024 45.4593L86.7854 44.8914L88.69 44.796ZM88.7831 43.8464L85.2767 44.0373C81.2952 44.512 78.0705 44.7006 75.5094 44.7006L68.5873 44.3212L65.6466 43.9418C65.3625 43.9418 65.1739 43.8464 65.1739 43.751L65.7421 43.6556L67.3532 43.751L75.507 44.2258C78.6363 44.2258 82.2405 43.9418 86.4129 43.467L88.9717 43.1831C89.6353 43.1831 90.2057 43.2785 90.5829 43.467C90.8716 43.5625 91.0602 43.7533 91.0602 43.8464C91.0602 43.9418 90.9647 43.9418 90.6807 43.9418L88.7831 43.8464Z" fill="black"/>
<path d="M84.8016 45.4592L74.8457 45.934L66.6919 45.5546V45.6501L67.1669 46.3134H67.2623C70.5802 46.5996 74.7525 46.6927 79.7771 46.5996L79.6816 46.7905L79.7771 47.2653C76.8387 47.3607 72.9504 47.2653 68.1145 46.979L68.019 47.1698L68.4917 47.7401L68.5871 47.8355C73.0436 48.0263 76.8364 48.1194 80.1542 48.0263L80.0588 48.4057C80.0588 48.6896 80.1542 48.8782 80.4383 48.9736C77.9726 49.069 74.7502 49.1644 70.6733 49.1644L70.5779 49.2598L71.3369 49.8277C75.6047 49.8277 79.0157 49.7323 81.5768 49.5438L81.4814 49.9232L81.7678 50.2071C79.2066 50.5865 76.6478 50.775 74.1821 50.8704V51.0613L74.8457 51.3452C77.4068 51.3452 80.0611 51.1543 82.9994 50.6819L82.904 51.0613L83.379 51.4406C81.7678 51.9154 79.9656 52.1993 78.1635 52.3879L78.0681 52.5787L78.543 52.865H78.6385C80.6292 52.6741 82.6223 52.3902 84.4221 51.9154V52.2017C84.5175 52.3902 84.613 52.4856 84.897 52.581C83.8539 52.8673 82.6223 53.2443 81.1997 53.5283V53.7191L81.6746 54.0031L81.7701 54.0985C83.5722 53.6237 84.9925 53.2443 86.0379 52.8673L86.1334 53.2467C86.4197 53.5306 86.7038 53.626 87.081 53.5306C86.2756 54.0856 85.4188 54.5618 84.5222 54.9527V55.0481L84.9948 55.332C86.7969 54.6687 88.1241 53.7215 89.1672 52.2994V52.0923L88.5991 51.9969H88.4989L88.024 52.5648C87.4559 52.851 87.0763 52.9464 86.9832 52.6602C86.8877 52.5647 86.9832 52.4717 87.0787 52.3762L88.0263 51.9014V51.8083L87.4582 51.429H87.3627L86.5082 51.9038C85.8447 51.9992 85.5606 51.9992 85.4651 51.8083L85.6537 51.6175L86.7923 51.2381L86.8877 51.1427L86.2242 50.7633V50.6702L84.897 51.0496C84.3289 51.145 83.9494 51.0496 83.8539 50.7633C83.8539 50.6679 83.9494 50.5748 84.0425 50.4794L85.4651 50.2909L85.5606 50.1L84.9902 49.7207H84.8947L83.4721 49.9115C82.9971 50.0069 82.7131 49.9115 82.6199 49.7207L82.8085 49.5298L84.3266 49.3413L84.4221 49.2459L83.9471 48.678H83.8516L82.2404 48.7734C81.8609 48.7734 81.5768 48.678 81.2928 48.5826C81.1019 48.4872 81.0087 48.3941 81.0087 48.2986C81.0087 48.1078 81.1973 48.0147 81.5768 47.9193L83.2835 47.8238L83.379 47.7284L82.9994 47.1582L82.904 47.0628L80.9133 47.1582C80.7223 47.1582 80.6292 47.0628 80.5338 46.8743L80.8201 46.4949H83.0949C83.1904 46.8743 83.2858 47.1582 83.5699 47.4422L83.6653 47.5376L84.2335 47.4422L84.3289 47.3467C84.0425 47.1559 83.9494 46.8719 83.9494 46.3995H84.0449C84.0449 46.7788 84.2358 47.1582 84.6153 47.4422C84.8515 47.6965 85.1442 47.8918 85.4698 48.0124C85.4698 48.2963 85.6584 48.6757 85.9424 48.9596C86.1828 49.1872 86.4767 49.3505 86.7969 49.4344C86.7969 50.0023 87.081 50.4771 87.6514 50.761C88.1264 51.0473 88.5991 51.1404 89.1672 51.1404C89.9262 51.1404 90.3057 50.8564 90.3057 50.2886L90.2103 48.678L90.3988 47.8238C90.4943 47.3491 90.5898 46.8766 90.5898 46.4972C90.5898 45.7385 89.7376 45.3591 88.1241 45.3591L84.8016 45.4592ZM88.5944 47.0698L87.4559 47.2606H86.2242C85.5606 47.1652 85.2765 46.8812 85.1811 46.4065C86.6037 46.311 87.5513 46.311 88.2149 46.4065C88.5944 46.5019 88.783 46.6904 88.783 46.8812C88.783 46.9743 88.6899 47.0698 88.5944 47.0698ZM88.8785 48.6803C88.783 48.7757 88.4989 48.7757 88.1194 48.7757L87.0763 48.6803C86.6014 48.5849 86.3173 48.301 86.3173 48.017L88.4035 47.9216C88.6875 48.017 88.783 48.1124 88.8785 48.301V48.6803ZM89.4466 49.9138C89.542 50.1047 89.542 50.2932 89.4466 50.3886C89.3511 50.4841 89.1625 50.4841 88.8785 50.4841L88.1217 50.2932C87.9577 50.2304 87.8114 50.1284 87.6958 49.9962C87.5801 49.8639 87.4985 49.7054 87.4582 49.5345H89.1648C89.258 49.6299 89.3534 49.723 89.4466 49.9138Z" fill="black"/>
<path d="M84.8972 48.2056L84.7063 47.8263L84.6132 47.7332L84.0427 47.8286L83.9473 47.924C84.0427 48.2079 84.2313 48.5873 84.5177 48.8713H84.6132L85.0881 48.7758L85.1836 48.6804L84.8972 48.2056ZM85.7494 50.007H85.8448L86.2244 49.9116L86.3198 49.7207C86.0358 49.6253 85.8448 49.3414 85.7517 49.0574H85.6563L85.1813 49.1529V49.2483C85.2814 49.5571 85.4812 49.8239 85.7494 50.007ZM87.2674 50.6703L87.172 50.4818L86.7925 50.1024L86.697 50.007L86.3175 50.1024V50.2933C86.6015 50.5772 86.7925 50.7658 86.8856 50.6727V50.7681L87.2674 50.6703ZM87.7401 51.2405L87.931 51.1451V50.9566C87.8332 50.9583 87.7369 50.9326 87.653 50.8824C87.569 50.8323 87.5008 50.7596 87.456 50.6727H87.2651L87.0742 50.7681V50.9589C87.2675 51.1451 87.456 51.2405 87.7401 51.2405ZM88.0242 51.4291C88.3105 51.6199 88.5946 51.7153 88.7832 51.6199H88.8786L88.9741 51.5245L88.8786 51.3336H88.5946L88.3105 51.1428L88.1196 51.2382L88.0242 51.3336V51.4291Z" fill="black"/>
</svg>
