<svg width="210" height="120" viewBox="0 0 210 120" fill="none" xmlns="http://www.w3.org/2000/svg">
<path d="M68.8773 43C67.7913 42.9976 66.5785 43.1193 65.2628 43.4414C65.2628 43.4414 58.517 45.0529 51.0819 51.7358C51.0819 51.7358 47.5366 55.1957 45.0254 59.6509C45.0254 59.6509 42.4157 64.2957 42.0218 68.1822C42.0218 68.1822 41.6279 72.5426 44.1883 74.7703C44.1883 74.7703 47.1427 77.377 53.5931 76.8557C53.5931 76.8557 57.6307 76.3817 62.013 73.7275C62.013 73.7275 64.1303 72.4005 65.509 71.1682C65.509 71.1682 64.8689 73.3958 65.8045 75.0072C65.8045 75.0072 66.6908 76.5239 68.7096 76.8557C68.7096 76.8557 70.1868 77.1401 72.3041 76.3817C72.3041 76.3817 73.6335 75.813 74.5198 75.3864C74.5198 75.3864 76.3417 74.4385 78.1143 73.1114C78.1143 73.1114 77.7696 74.4385 78.5575 75.576C78.5575 75.576 79.493 76.8557 81.2164 76.9979C81.2164 76.9979 85.8449 77.3297 92.2953 69.6989L87.7652 76.7135L91.9014 76.6661L95.4958 70.6942C95.4958 70.6942 99.238 64.5327 100.026 63.7744C100.026 63.7744 101.946 61.3098 104.851 60.741L106.772 60.8832C106.772 60.8832 107.56 61.2624 107.56 62.1155L106.132 61.8785C106.132 61.8785 105.294 61.9733 104.851 62.8264C104.851 62.8264 104.457 63.6322 104.654 64.4379C104.654 64.4379 104.901 65.1015 105.541 65.3384L105.984 65.4806L107.412 65.291C107.412 65.291 109.923 64.3905 113.37 60.2197L112.582 61.5941L109.677 66.3811L106.279 72.1635C106.279 72.1635 105.294 74.0593 105.738 75.1968C105.738 75.1968 106.181 76.2869 107.658 76.5713L110.859 76.3343C110.859 76.3343 112.68 75.813 114.158 74.5807L116.275 72.9218C116.275 72.9218 118.835 70.8364 121.15 68.3718L121.002 68.5614C121.002 68.5614 118.983 72.1161 118.638 73.301C118.638 73.301 117.851 75.813 119.672 76.8083L121.74 76.9979C121.74 76.9979 123.464 76.7609 125.187 75.576L127.994 73.2536C127.994 73.2536 130.407 71.0734 131.687 69.5093C131.687 69.5093 131.047 70.9312 130.899 71.9739C130.899 71.9739 130.407 75.2916 133.607 76.6187L136.611 76.8557C136.611 76.8557 137.793 76.7609 139.614 76.1447C139.614 76.1447 143.849 74.8177 149.807 69.5567C149.807 69.5567 152.811 66.9025 154.928 64.5327L147.443 76.6187H151.136L153.894 72.1635L157.439 66.6181C157.439 66.6181 159.458 63.5374 163.151 61.5467C163.151 61.5467 164.628 60.6936 165.761 60.504C165.761 60.504 166.942 60.2671 167.188 60.8358C167.188 60.8358 165.514 60.504 165.12 62.1629C165.12 62.1629 164.727 63.8218 166.105 64.3431C166.105 64.3431 167.139 64.6749 167.976 64.1061C167.976 64.1061 168.715 63.5848 168.961 62.5895C168.961 62.5895 169.158 61.5941 168.666 60.8832C168.666 60.8832 168.075 60.0301 166.696 59.9353C166.696 59.9353 165.17 59.8879 162.117 61.8311C162.117 61.8311 159.852 63.253 158.916 64.1535L161.427 60.0301H157.685C157.685 60.0301 154.14 65.8124 147.887 70.789C147.887 70.789 141.781 75.576 138.334 75.7182C138.334 75.7182 134.986 75.9552 134.641 73.4906C134.641 73.4906 134.444 72.0213 135.331 69.9359C135.331 69.9359 137.399 70.1254 140.156 69.2723C140.156 69.2723 142.766 68.4666 144.932 67.0447C144.932 67.0447 147.247 65.528 148.084 63.9166C148.084 63.9166 149.068 62.1155 147.936 60.5988C147.936 60.5988 145.868 58.6556 141.387 60.4566C141.387 60.4566 136.758 62.3051 133.312 66.7129L132.425 67.9926L132.327 68.1348L129.865 70.8838L127.354 73.301C127.354 73.301 124.301 76.1921 122.774 75.339C122.774 75.339 122.184 74.9598 122.184 74.0593C122.184 74.0593 122.184 73.1588 122.873 72.0687L130.013 60.1249H126.812C126.812 60.1249 125.04 62.9212 122.971 65.5754C122.971 65.5754 118.934 70.7416 114.552 73.7275C114.552 73.7275 111.548 75.9552 109.874 75.1968C109.874 75.1968 109.135 74.8651 109.184 73.9645C109.184 73.9645 109.234 72.9692 110.218 71.5947L117.21 60.1249L121.1 60.0775L121.593 59.6035H117.654L121.839 52.4467L118.294 52.4941C118.294 52.4941 115.832 56.5228 113.961 58.94C113.961 58.94 110.514 63.3004 107.658 64.4853C107.658 64.4853 108.15 63.8692 108.2 62.9212L108.15 62.1629C108.15 62.1629 107.953 61.1676 106.969 60.6936L106.082 60.4566L104.408 60.5988C104.408 60.5988 102.439 61.0254 100.617 62.5421L102.143 60.0775H98.5979C98.5979 60.0775 95.3974 65.5754 91.212 70.2676C91.212 70.2676 85.7464 76.3343 82.7428 75.6234C82.7428 75.6234 81.8565 75.1968 81.8073 74.1541C81.8073 74.1541 81.8073 73.1114 82.7428 71.6421L89.8825 60.0301L86.3373 60.0775L85.2048 61.9733L84.4662 63.3478C84.4662 63.3478 84.6139 62.9212 84.4662 62.0207C84.4662 62.0207 84.1708 59.8879 82.0535 59.4613L80.3793 59.3191C80.3793 59.3191 76.1447 59.2717 71.3193 63.3478C71.3193 63.3478 68.0202 66.1916 65.509 70.5046C65.509 70.5046 60.4866 75.0072 55.1687 76.0026C55.1687 76.0026 50.4418 76.9505 48.4229 74.9124C48.4229 74.9124 46.2072 72.7322 46.2072 68.9405C46.2072 68.9405 46.2564 64.4379 49.6047 58.3238C49.6047 58.3238 53.1499 53.2998 55.3165 51.0248C55.3165 51.0248 60.8313 45.1951 66.5431 43.7258C66.5431 43.7258 71.2208 42.5409 73.8305 44.5789C73.8305 44.5789 76.0463 46.3326 76.2432 49.8873L77.5234 47.8019C77.5234 47.8019 79.1483 45.3373 80.5763 43.9154C80.5763 43.9154 79.2468 44.4842 77.6219 44.6737C77.6219 44.6737 75.6031 44.9107 74.6183 44.342C74.6183 44.342 72.4248 43.0083 68.8773 43.0001L68.8773 43ZM80.9025 59.7487C82.3452 59.7557 83.0875 60.4092 83.0875 60.4092C84.8109 61.9259 83.4322 64.7697 83.4322 64.7697C80.7732 70.078 76.8833 73.301 76.8833 73.301L74.5198 74.9124C70.8269 76.6661 69.2512 75.4338 69.2512 75.4338C67.971 74.3911 68.5126 72.0213 68.5126 72.0213C68.8573 70.4098 70.236 68.0874 70.236 68.0874L72.8949 64.3431C75.3077 61.7837 78.0651 60.4566 78.0651 60.4566C79.1991 59.919 80.1468 59.745 80.9025 59.7487ZM144.244 60.1663C144.294 60.1658 144.343 60.1678 144.391 60.1723C144.391 60.1723 145.178 60.2671 145.523 60.6462C145.523 60.6462 145.868 61.1202 145.769 62.0681C145.769 62.0681 145.523 64.5801 142.618 66.9499C142.618 66.9499 139.319 69.6515 135.478 69.5567L136.217 68.0874C136.217 68.0874 137.891 64.9593 140.353 62.5421C140.353 62.5421 142.709 60.1844 144.244 60.1663Z" fill="black"/>
</svg>
