<svg width="210" height="120" viewBox="0 0 210 120" fill="none" xmlns="http://www.w3.org/2000/svg">
<path d="M120.362 31.0017H117.159C117.159 36.9393 115.692 39.632 112.641 41.4983V31H107.713V43.6818C106.793 44.0112 105.805 44.3527 104.745 44.7236C104.151 44.9303 103.575 45.1361 103.016 45.3397V31H98.085V47.4344C93.0993 50.0175 90.3999 53.5922 90.3999 61.6585H93.6023C93.6023 56.151 94.9232 53.4235 98.0852 51.3929V61.6624H103.016V49.0742C103.852 48.7559 104.747 48.4358 105.713 48.0974C106.394 47.8591 107.061 47.6269 107.713 47.3973V61.6624H112.641V45.411C117.339 43.094 120.362 39.6226 120.362 31.0017M101.696 85.3167H95.8658L95.8634 80.9152H101.715C103.448 80.9152 104.2 81.607 104.2 83.1787C104.2 84.3551 103.729 85.3167 101.696 85.3167M101.177 74.206C103.048 74.206 103.623 74.8993 103.623 76.0528C103.623 77.2046 103.124 78.0277 101.248 78.0277L95.8634 78.0296V74.2063H101.177V74.206ZM105.62 79.3285C106.658 78.5007 107.251 77.294 107.251 75.8348C107.251 74.3796 106.674 70.9968 101.342 70.9968H92.5276V88.5133H101.902C105.677 88.5133 107.843 86.5669 107.843 83.1841C107.843 81.5338 107.073 80.2141 105.62 79.3285ZM144.986 70.9966V74.559H150.379V88.513H153.742V74.559H159V70.9966H144.986ZM134.425 85.5328C131.162 85.5328 128.602 82.9716 128.602 79.7013C128.602 76.431 131.162 73.8714 134.425 73.8714C137.693 73.8714 140.249 76.431 140.249 79.7015C140.249 82.972 137.693 85.5328 134.425 85.5328M134.425 70.4973C129.273 70.4973 125.233 74.5401 125.233 79.7021C125.233 84.865 129.273 88.906 134.425 88.906C139.581 88.906 143.619 84.865 143.619 79.7021C143.619 74.5401 139.581 70.4973 134.425 70.4973ZM112.615 70.9966V88.5091H124.191V84.9654H115.973V70.9966H112.615ZM84.6832 70.9972V80.1393C84.6832 82.7972 84.4138 85.6141 80.1494 85.6141C75.8836 85.6141 75.5804 82.8566 75.5804 80.1393V70.9972H72.2383V80.3564C72.2383 84.536 73.3819 89 80.1496 89C86.9155 89 88.0528 84.4718 88.0528 80.3564V70.9972H84.6832ZM64.0009 70.9966V77.5189H55.3599V70.9926H52V88.5153H55.3599V81.1036H64.0009V88.5153H67.3375V70.9966H64.0009Z" fill="black"/>
</svg>
