<svg width="210" height="120" viewBox="0 0 210 120" fill="none" xmlns="http://www.w3.org/2000/svg">
<path fill-rule="evenodd" clip-rule="evenodd" d="M86.0202 81.0793L79.0881 65.2532L72.722 87.5342H75.7758L79.735 73.615L86.0202 87.9988L92.3229 73.615L96.2652 87.5342H99.3196L92.9686 65.2532L86.0202 81.0793ZM60.5539 65.2532H60.5049C57.1926 65.2694 54.4293 66.4225 52.1994 68.7294C50.0661 70.9561 49 73.5827 49 76.626C49 79.6214 50.034 82.2163 52.1027 84.4262C54.3327 86.7972 57.128 87.982 60.5055 87.9988H60.5545C63.7865 87.9988 66.5328 86.8451 68.7791 84.5226C70.9444 82.2959 72.0268 79.6532 72.0268 76.626C72.0268 73.5665 70.9444 70.9238 68.7791 68.6971C66.5491 66.407 63.8185 65.2532 60.5539 65.2532ZM66.4682 82.7929C64.9165 84.4268 62.9451 85.2441 60.5212 85.2441H60.5049C58.0811 85.2441 56.0939 84.4106 54.5423 82.7612C53.0069 81.0955 52.2314 79.061 52.2314 76.6589C52.2314 74.2557 53.0069 72.2056 54.5423 70.5238C56.0939 68.842 58.0811 68.0092 60.5049 68.0092H60.5212C62.9451 68.0092 64.9165 68.8426 66.4682 70.5082C68.003 72.1901 68.7785 74.2401 68.7785 76.6589C68.7791 79.1089 68.003 81.1434 66.4682 82.7929ZM101.775 60.0958V58.7181C99.5938 57.3405 97.687 55.6108 96.1679 53.3679C93.6638 48.6105 93.0006 43.8692 96.3618 39.1117C102.631 32.0958 107.01 34.8188 111.114 38.9195C113.814 42.7477 113.944 46.576 112.924 50.4042C111.794 54.2163 109.855 57.004 107.14 58.7175V60.0784H118.726L120.617 55.7862C120.439 54.8091 120.002 54.9372 119.129 54.9689L117.708 56.9232H114.314C115.32 55.4772 116.317 54.0248 117.304 52.5662C118.677 49.0421 119.21 45.3582 117.901 41.2898C115.139 32.4167 103.86 30.0458 96.6693 33.5537C92.2577 35.684 89.0583 39.9289 89.1712 45.6474C89.3005 49.9402 91.4012 53.8487 94.4387 56.9238H91.8373L89.4455 55.0019C88.7666 54.7773 88.2658 55.0821 88.1366 55.8347L90.6088 60.0958H101.775ZM151.48 65.2856L151.465 65.2532L140.961 87.5342H144.257L147.021 81.6715H155.924L158.686 87.5342H162L151.48 65.2856ZM151.48 78.9167H148.088L151.465 72.2368L151.48 72.2691L154.858 78.9173L151.48 78.9167ZM101.663 87.5342H114.784V84.7789H104.717V77.1224H114.784V74.3676H104.717V68.4247H114.784V65.7178H101.663V87.5342ZM128.713 78.7563H136.582C136.404 80.6309 135.613 82.1846 134.206 83.4174C132.816 84.6346 131.103 85.2441 129.068 85.2441C126.628 85.2441 124.64 84.4106 123.105 82.7612C121.554 81.0955 120.778 79.061 120.778 76.6589C120.778 74.2557 121.553 72.2056 123.105 70.5238C124.64 68.842 126.628 68.0092 129.068 68.0092C130.345 68.0092 131.443 68.2181 132.381 68.6498C133.317 69.0659 134.205 69.7071 135.047 70.5561L137.358 68.73C136.177 67.593 134.933 66.7273 133.609 66.1346C132.267 65.5424 130.779 65.2538 129.1 65.2538C125.77 65.2538 122.976 66.4076 120.745 68.73C118.612 70.9567 117.546 73.5833 117.546 76.6266C117.546 79.3173 118.386 81.7361 120.083 83.8987C122.216 86.6379 125.237 88 129.1 88C132.897 88 135.756 86.6062 137.679 83.8029C139.182 81.6409 139.926 79.0461 139.926 76.0021H129.811L128.713 78.7563Z" fill="#CC2229"/>
</svg>
