<svg width="210" height="120" viewBox="0 0 210 120" fill="none" xmlns="http://www.w3.org/2000/svg">
<path d="M49.7828 75.4881H42.4577L40.9733 79.3951H38.8524L45.2725 63.0289H47.2397L53.5526 79.3951H51.2635L49.7828 75.4881ZM43.1301 73.7129H49.1139L46.1345 65.8449L43.1301 73.7129ZM32.0638 64.7718V70.6917H34.9251C34.9251 70.6917 35.4438 70.6737 35.7049 70.6737C36.574 70.6737 37.1498 70.4828 37.6971 69.9751C38.2515 69.4566 38.4947 68.6104 38.4947 67.7245C38.5268 66.8911 38.2386 66.0773 37.6899 65.4524C37.1248 64.8294 36.0697 64.7718 35.8873 64.7718H35.6011H32.0638ZM30 63.0325H35.6011C36.4452 63.0325 37.9474 63.2306 38.9632 64.0624C40.3581 65.2075 40.6085 66.6911 40.6085 67.6921C40.6085 68.6932 40.3653 70.0327 39.3924 70.9906C38.1227 72.2437 36.7922 72.4345 34.9251 72.4345H32.0638V79.3951H30V63.0325ZM107.879 63.0289H109.939V70.0507H117.243V63.0289H119.303V79.3951H117.243V71.8584H109.939V79.3951H107.879V63.0289ZM122.944 63.0289H125.005V79.3879H122.944V63.0289ZM128.549 63.0289H130.609V77.5839H137.652V79.3951H128.549V63.0289ZM63.1132 63.0289V64.8402H58.1666V79.3951H56.1028V64.8402H51.1383V63.0289H63.1132ZM74.0758 63.0289L73.0493 64.8402H66.9045V69.9607H72.6487V71.7756H66.9045V77.5839H72.9133L73.9434 79.3951H64.8443V63.0289H74.0758ZM78.3499 70.7025L85.3424 63.0217L87.9176 63.0253L82.5597 68.8588L88.0321 79.3915H85.6822L81.1398 70.3784L78.3499 73.4032V79.3915H76.2898V63.0253H78.3499V70.7025ZM96.9739 64.7718V70.6917H99.8352C99.8352 70.6917 100.354 70.6737 100.615 70.6737C101.491 70.6737 102.067 70.4828 102.607 69.9751C103.162 69.4566 103.405 68.6104 103.405 67.7245C103.438 66.8903 103.148 66.0757 102.596 65.4524C102.038 64.8294 100.98 64.7718 100.79 64.7718H100.511H96.9739ZM94.9101 63.0325H100.511C101.355 63.0325 102.865 63.2306 103.88 64.0624C105.272 65.2075 105.522 66.6911 105.522 67.6921C105.522 68.6932 105.279 70.0327 104.306 70.9906C103.033 72.2437 101.702 72.4345 99.8352 72.4345H96.9739V79.3951H94.9101V63.0325ZM139.39 63.0289H141.443V79.3879H139.39V63.0289ZM147.001 64.7718V70.6917H149.863C149.863 70.6917 150.374 70.6737 150.642 70.6737C151.512 70.6737 152.091 70.4828 152.631 69.9751C153.189 69.4566 153.429 68.6104 153.429 67.7245C153.463 66.8908 153.175 66.0761 152.624 65.4524C152.059 64.8294 151 64.7718 150.818 64.7718H150.539H147.001ZM144.941 63.0325H150.539C151.39 63.0325 152.885 63.2306 153.901 64.0624C155.299 65.2075 155.546 66.6911 155.546 67.6921C155.546 68.6932 155.306 70.0327 154.33 70.9906C153.064 72.2437 151.726 72.4345 149.863 72.4345H147.001V79.3951H144.941V63.0325ZM159.877 64.7718V70.6917H162.739C162.739 70.6917 163.25 70.6737 163.519 70.6737C164.388 70.6737 164.967 70.4828 165.507 69.9751C166.065 69.4566 166.308 68.6104 166.308 67.7245C166.341 66.8903 166.052 66.0757 165.5 65.4524C164.935 64.8294 163.883 64.7718 163.694 64.7718H163.415H159.877ZM157.817 63.0325H163.415C164.259 63.0325 165.761 63.2306 166.777 64.0624C168.175 65.2075 168.422 66.6911 168.422 67.6921C168.422 68.6932 168.183 70.0327 167.206 70.9906C165.94 72.2437 164.606 72.4345 162.742 72.4345H159.877V79.3951H157.817V63.0325ZM180 63.0289L178.973 64.8402H172.825V69.9607H178.573V71.7756H172.825V77.5839H178.845L179.868 79.3951H170.765V63.0289H180ZM109.485 98.9913H113.856L114.603 100.309H107.983V88.4154H116.048L119.482 98.2567L123.055 88.4154H124.593L120.112 100.313H118.677L114.865 89.7262H109.485V93.4567H113.663V94.7783H109.485V98.9913ZM95.6255 88.4154L94.8815 89.7262H90.407V93.4603H94.5846V94.7711H90.4035V98.9913H94.7813L95.5217 100.309H88.9048V88.4154H95.6255ZM104.099 88.4766H105.529V100.37H104.002L98.6442 90.648V100.37H97.2135V88.4766H99.1628L104.099 97.4501V88.4766ZM132.616 88.4154L131.868 89.7262H127.397V93.4603H131.579V94.7711H127.394V98.9913H131.772L132.512 100.309H125.899V88.4154H132.616ZM86.7051 94.2273V98.5412C85.7323 99.4703 84.4983 100.522 82.0554 100.522C79.3121 100.522 76.8334 98.1847 76.8334 94.483C76.8334 90.9685 79.1654 88.203 82.3702 88.203C84.9704 88.203 86.2545 89.8162 86.7409 90.54L85.6679 91.5554C85.6679 91.5554 84.577 89.4741 82.3702 89.4741C80.1991 89.4741 78.4787 91.433 78.4787 94.555C78.4787 97.5114 80.3279 99.2506 82.2986 99.2506C84.0119 99.2506 85.16 98.0875 85.2387 98.0011V95.5236H81.6477V94.2273H86.7051Z" fill="#211E1E"/>
<path d="M104.488 37.4509H97.212C96.04 37.4509 94.8501 38.1677 94.8501 39.1282C94.8501 39.4759 95.1332 40.1318 96.1045 40.1318C97.3589 40.1318 98.4377 38.8379 99.5596 38.8379C100.549 38.8379 100.689 39.7447 100.689 39.7447C100.097 39.7304 99.8821 39.759 99.151 40.121C98.4592 40.4579 97.5381 41.293 96.9288 41.9489C96.3195 42.6084 95.3339 43.4542 94.1512 43.4542C92.9613 43.4542 91.8 42.6944 91.8 41.3181C91.8 39.4938 93.2551 38.9096 93.2551 38.2466C93.2551 38.0494 93.162 37.795 92.7785 37.795C92.1907 37.795 91.0366 38.6551 89.9219 38.6551C88.3951 38.6551 87.0654 36.9348 87.0654 36.9348C87.0654 36.9348 88.3915 35.218 89.9219 35.218C91.0366 35.218 92.1907 36.0782 92.7785 36.0782C93.162 36.0782 93.2551 35.8201 93.2551 35.6194C93.2551 34.9671 91.8 34.3793 91.8 32.555C91.8 31.1787 92.9613 30.4189 94.1512 30.4189C95.3339 30.4189 96.3195 31.2648 96.9288 31.9242C97.5381 32.5801 98.4592 33.4152 99.151 33.7521C99.8821 34.1141 100.097 34.1392 100.689 34.1284C100.689 34.1284 100.545 35.0352 99.5596 35.0352C98.4377 35.0352 97.3625 33.7378 96.1045 33.7378C95.1296 33.7378 94.8501 34.3972 94.8501 34.7413C94.8501 35.709 96.04 36.4258 97.2156 36.4258H104.491V29.1501C104.491 27.9746 103.771 26.7918 102.807 26.7918C102.459 26.7918 101.803 27.0678 101.803 28.0462C101.803 29.2971 103.101 30.3795 103.101 31.5013C103.101 32.4833 102.19 32.6231 102.19 32.6231C102.205 32.0317 102.18 31.8239 101.814 31.0891C101.481 30.401 100.646 29.4763 99.9861 28.867C99.3302 28.2577 98.4808 27.2685 98.4808 26.0857C98.4808 24.8994 99.2442 23.7346 100.62 23.7346C102.441 23.7346 103.033 25.1969 103.692 25.1969C103.886 25.1969 104.14 25.1001 104.14 24.7166C104.14 24.1252 103.28 22.9748 103.28 21.8565C103.28 20.3297 105 19 105 19C105 19 106.721 20.3261 106.721 21.8565C106.721 22.9748 105.86 24.1252 105.86 24.7166C105.86 25.1001 106.115 25.1969 106.312 25.1969C106.968 25.1969 107.559 23.7346 109.38 23.7346C110.756 23.7346 111.52 24.8994 111.52 26.0857C111.52 27.2685 110.674 28.2541 110.014 28.8634C109.355 29.4799 108.523 30.401 108.179 31.0855C107.821 31.8239 107.796 32.0317 107.81 32.6231C107.81 32.6231 106.9 32.4798 106.9 31.5013C106.9 30.3795 108.197 29.2971 108.197 28.0462C108.197 27.0678 107.541 26.7918 107.194 26.7918C106.23 26.7918 105.509 27.9746 105.509 29.1501V36.4258H112.785C113.957 36.4258 115.143 35.709 115.143 34.7413C115.143 34.3937 114.871 33.7378 113.889 33.7378C112.641 33.7378 111.556 35.0352 110.434 35.0352C109.448 35.0352 109.312 34.1284 109.312 34.1284C109.903 34.1392 110.118 34.1141 110.849 33.7485C111.538 33.4152 112.459 32.5801 113.068 31.9206C113.681 31.2648 114.67 30.4153 115.849 30.4153C117.039 30.4153 118.2 31.1787 118.2 32.555C118.2 34.3793 116.738 34.9671 116.738 35.6194C116.738 35.8201 116.831 36.0782 117.222 36.0782C117.813 36.0782 118.964 35.218 120.078 35.218C121.609 35.218 122.935 36.9384 122.935 36.9384C122.935 36.9384 121.609 38.6551 120.078 38.6551C118.964 38.6551 117.813 37.795 117.222 37.795C116.831 37.795 116.738 38.0494 116.738 38.2466C116.738 38.9096 118.2 39.4938 118.2 41.3181C118.2 42.6944 117.039 43.4542 115.849 43.4542C114.667 43.4542 113.681 42.6084 113.068 41.9489C112.459 41.293 111.538 40.4579 110.846 40.121C110.118 39.7555 109.903 39.734 109.312 39.7447C109.312 39.7447 109.448 38.8379 110.434 38.8379C111.556 38.8379 112.641 40.1354 113.889 40.1354C114.871 40.1354 115.143 39.4759 115.143 39.1318C115.143 38.1641 113.957 37.4473 112.785 37.4473H105.509V44.723C105.509 45.8986 106.23 47.0813 107.194 47.0813C107.541 47.0813 108.197 46.8054 108.197 45.8305C108.197 44.5761 106.9 43.4901 106.9 42.3718C106.9 41.3898 107.81 41.25 107.81 41.25C107.796 41.8414 107.821 42.0529 108.179 42.784C108.523 43.4722 109.355 44.3969 110.014 45.0061C110.674 45.6154 111.52 46.6047 111.52 47.791C111.52 48.9737 110.756 50.1386 109.38 50.1386C107.559 50.1386 106.968 48.6834 106.312 48.6834C106.115 48.6834 105.86 48.773 105.86 49.1565C105.86 49.7479 106.721 50.8984 106.721 52.013C106.721 53.5435 105 54.8696 105 54.8696C105 54.8696 103.28 53.5435 103.28 52.013C103.28 50.902 104.14 49.7479 104.14 49.1565C104.14 48.773 103.886 48.6834 103.692 48.6834C103.033 48.6834 102.441 50.1386 100.62 50.1386C99.2442 50.1386 98.4808 48.9737 98.4808 47.791C98.4808 46.6047 99.3302 45.619 99.9861 45.0097C100.646 44.4004 101.481 43.4722 101.814 42.7876C102.18 42.0529 102.205 41.8414 102.19 41.2464C102.19 41.2464 103.101 41.3898 103.101 42.3718C103.101 43.4901 101.803 44.5761 101.803 45.8305C101.803 46.8054 102.459 47.0813 102.807 47.0813C103.771 47.0813 104.491 45.8986 104.491 44.723L104.488 37.4509Z" fill="#B09145"/>
</svg>
