<svg width="210" height="120" viewBox="0 0 210 120" fill="none" xmlns="http://www.w3.org/2000/svg">
<path fill-rule="evenodd" clip-rule="evenodd" d="M121.114 36.7621C120.614 36.7624 120.135 36.9617 119.782 37.3162C119.428 37.6707 119.23 38.1514 119.23 38.6527C119.23 39.3107 119.551 39.8887 120.059 40.2265L113.665 53.9869L115 35.6636C115.483 35.6195 115.93 35.3909 116.249 35.0253C116.568 34.6596 116.735 34.1849 116.714 33.6995C116.694 33.2141 116.488 32.7551 116.139 32.4178C115.791 32.0804 115.326 31.8905 114.841 31.8874C114.341 31.8874 113.862 32.0865 113.508 32.4409C113.155 32.7954 112.956 33.2761 112.956 33.7775C112.956 34.599 113.48 35.285 114.21 35.5453L109.823 53.4359L107.653 33.7004C108.052 33.5954 108.404 33.3607 108.656 33.0331C108.907 32.7055 109.043 32.3036 109.042 31.8903C109.042 31.389 108.843 30.9082 108.49 30.5537C108.136 30.1992 107.657 30 107.157 30C106.657 30 106.178 30.1992 105.824 30.5537C105.471 30.9082 105.272 31.389 105.272 31.8903C105.272 32.8346 105.966 33.5958 106.868 33.7367L105.118 52.9645L100.035 35.6017C100.339 35.4433 100.594 35.2041 100.772 34.9101C100.95 34.6162 101.044 34.2789 101.043 33.9351C101.043 33.4337 100.845 32.9529 100.491 32.5984C100.138 32.2439 99.6584 32.0448 99.1584 32.0448C98.6585 32.0448 98.179 32.2439 97.8255 32.5984C97.472 32.9529 97.2734 33.4337 97.2734 33.9351C97.2734 34.4365 97.472 34.9174 97.8256 35.2719C98.1791 35.6265 98.6586 35.8257 99.1587 35.8257C99.1851 35.8257 99.215 35.8227 99.2414 35.8212L101.433 53.9869L94.0483 40.7706C94.2999 40.5729 94.4972 40.3142 94.6217 40.019C94.7462 39.7238 94.7938 39.4017 94.76 39.0829C94.7263 38.7642 94.6122 38.4593 94.4287 38.1969C94.2451 37.9344 93.998 37.7232 93.7106 37.5828C93.4232 37.4425 93.105 37.3778 92.7858 37.3947C92.4666 37.4116 92.1569 37.5096 91.8859 37.6795C91.6148 37.8495 91.3913 38.0857 91.2364 38.3661C91.0814 38.6464 91.0001 38.9617 91 39.2822C91 39.5646 91.0631 39.8435 91.1846 40.0982C91.3062 40.353 91.4831 40.5772 91.7024 40.7544C91.9217 40.9316 92.1778 41.0573 92.4519 41.1222C92.726 41.1871 93.0112 41.1896 93.2863 41.1296L99.4721 59.7264C100.884 64.0516 113.43 64.1307 115.312 59.7264L120.898 40.5202C120.976 40.53 121.034 40.5432 121.115 40.5432C121.362 40.5432 121.607 40.4943 121.836 40.3993C122.065 40.3043 122.273 40.1651 122.448 39.9895C122.623 39.8139 122.762 39.6055 122.856 39.3762C122.951 39.1468 123 38.9009 123 38.6527C123 38.4044 122.951 38.1586 122.856 37.9292C122.762 37.6998 122.623 37.4914 122.448 37.3158C122.273 37.1403 122.065 37.001 121.836 36.906C121.607 36.811 121.362 36.7621 121.114 36.7621ZM107.236 61.7151C104.038 61.7151 101.447 60.7492 101.447 59.5579C101.447 58.3656 104.038 57.8058 107.236 57.8058C110.433 57.8058 112.686 58.3656 112.686 59.5579C112.686 60.7492 110.433 61.7151 107.236 61.7151Z" fill="#B4975A"/>
<path fill-rule="evenodd" clip-rule="evenodd" d="M82.2354 70C75.6354 70 71.5156 75.0365 71.4928 79.7773C71.4631 85.9144 75.5779 89.7849 82.034 89.7849C88.8915 89.7849 92.8699 85.9768 92.8699 79.4703C92.8699 74.6484 88.5765 70 82.2354 70ZM47 70.5373V72.6862H48.8756C50.0235 72.6862 50.4258 72.951 50.4258 73.9446V86.132C50.4258 87.0977 50.0235 87.4675 48.8756 87.4675H47V89.4779H57.8205V87.4675H56.3323C55.1849 87.4675 54.7821 87.0977 54.7821 86.1315V80.6982H56.7039C58.7699 80.6982 60.279 81.8549 60.3935 84.0136L60.5796 86.5004C60.6947 88.7731 62.2409 90 64.9667 90C67.8647 90 68.5472 88.5957 68.5472 85.6409V84.0598H66.9351V85.0269C66.9351 86.1915 66.2525 86.7922 65.68 86.7922C64.7608 86.7922 64.7142 85.6802 64.6567 85.0269V84.244C64.6567 81.6481 63.4527 80.6255 61.9437 79.8387C64.7559 79.1854 66.6255 77.5193 66.6255 75.2187C66.6255 72.2348 64.5619 70.5373 60.8896 70.5373H47ZM116.277 70.5373V72.6862H118.169C119.316 72.6862 119.719 72.9362 119.719 73.9294V86.1625C119.719 87.1291 119.317 87.498 118.169 87.498H116.277V89.4779H135.608V81.3583H133.779C133.779 85.3643 132.182 87.4675 129.485 87.4675H124.06V80.9595H125.129C126.88 80.9595 127.873 81.7193 127.873 83.1388V84.2749H129.966V75.2496H127.873V76.2467C127.873 77.6416 126.823 78.4879 125.129 78.4879H124.06V72.6862H129.113C132.815 72.6862 133.577 74.7978 133.779 77.9511H135.608V70.5373H116.277ZM140.429 70.5526V72.6862C143.21 72.7648 143.905 73.0811 144.909 74.3591L149.405 79.762L143.282 86.132C142.191 87.3546 142.094 87.4675 140.429 87.4675V89.5088H150.118V87.4675H147.792C147.104 87.4675 146.971 86.9764 146.971 86.608C146.971 86.2386 147.452 85.8039 147.653 85.5485L151.063 81.7267L154.489 85.7484C154.661 85.9753 154.939 86.2322 154.939 86.5156C154.939 86.885 154.622 87.4675 153.962 87.4675H152.04V89.5088H163V87.4675C161.269 87.4675 161.127 87.3825 159.574 85.5028L153.854 78.8259L157.745 74.6509C159.179 73.145 159.738 72.6862 161 72.6862H163V70.5526H153.296V72.6862H154.567C155.044 72.7584 155.354 73.2432 154.877 73.7147L152.18 76.7688L150.041 74.175C149.564 73.6244 149.632 72.6862 150.505 72.6862H151.497V70.5526H140.429ZM95.7843 70.5835V72.6857H97.2724C98.4203 72.6857 98.8226 73.0276 98.8226 74.0217V86.1625C98.8226 87.1291 98.4203 87.498 97.2724 87.498H95.7843V89.5241H113.89V81.2051H111.829C111.771 84.4714 111.8 87.4675 107.782 87.4675H103.194V74.0217C103.194 73.0276 103.597 72.6857 104.744 72.6857H106.465V70.5835H95.7843ZM82.2667 72.4401C85.6528 72.4401 87.6301 74.9525 87.6301 79.8387C87.6301 84.6119 85.6101 87.5441 82.0807 87.5441C78.6375 87.5441 76.6707 84.4969 76.6707 79.6392C76.6707 74.894 78.7372 72.4406 82.2662 72.4406L82.2667 72.4401ZM54.7821 72.671H57.7585C60.6277 72.671 61.6649 73.6023 61.6649 75.4491C61.6649 77.3523 60.5404 78.2423 58.1305 78.2423H54.7821V72.671Z" fill="#231F20"/>
</svg>
