<svg width="210" height="120" viewBox="0 0 210 120" fill="none" xmlns="http://www.w3.org/2000/svg">
<path d="M5.31132 83.6429L1 67.1502H2.40587L6.11945 81.6375L9.97376 67.1502H11.3211L6.86942 83.6429H5.31132ZM16.6614 67.1543L12.239 83.6361H13.4982L14.9041 78.4495H19.8539L21.2305 83.6361H22.6364L18.2432 67.1543H16.6614ZM17.3644 68.9698L19.5902 77.2104H15.1389L17.3644 68.9698ZM34.0955 78.0993L34.0722 78.4564L34.037 78.8025L33.99 79.1366L33.9433 79.4591L33.8848 79.7702L33.8144 80.0701L33.744 80.3579L33.6622 80.6465L33.5681 80.9114L33.4748 81.165L33.3692 81.4186L33.2522 81.6492L33.1348 81.8682L33.0059 82.0871L32.877 82.2828L32.7367 82.4788C31.94 83.4699 30.8504 83.9657 29.4564 83.9657C27.7928 83.9657 26.5743 83.2742 25.7895 81.8911C25.0162 80.508 24.618 78.3296 24.618 75.3794C24.618 72.4402 25.0162 70.2734 25.7895 68.8907C26.5743 67.5189 27.7928 66.8277 29.4564 66.8277C30.8386 66.8277 31.9282 67.2769 32.7367 68.1758C33.5333 69.0863 33.9551 70.3426 33.99 71.9447H32.5959C32.5492 70.723 32.2445 69.7666 31.6937 69.098C31.1434 68.4297 30.4053 68.0836 29.4679 68.0836C28.3079 68.0836 27.4413 68.6717 26.8791 69.8587C26.3284 71.0458 26.0473 72.8781 26.0473 75.3794C26.0473 77.8687 26.3284 79.7127 26.8791 80.9001C27.4413 82.0755 28.2968 82.6748 29.4679 82.6748C30.4171 82.6748 31.1667 82.2715 31.7408 81.4761C32.303 80.6811 32.6311 79.5629 32.7248 78.0993H34.0955ZM37.3172 83.6429V67.1502H38.6646V74.1344H45.1899V67.1502H46.5373V83.6429H45.1899V75.437H38.6646V83.6429H37.3172ZM50.0516 83.6429V67.1502H57.5495V68.4411H51.5163V74.388H56.9287V75.6443H51.516V82.352H57.5495V83.6429H50.0516ZM60.4184 67.1543V83.6357H61.8239V75.9712H64.4015C65.4326 75.9712 66.1411 76.1847 66.5396 76.634C66.9263 77.0836 67.1429 78.04 67.2129 79.5153C67.2366 79.7805 67.2481 80.1376 67.2718 80.6102C67.3418 82.3044 67.5177 83.3129 67.7988 83.6357H69.3803C68.9236 83.1861 68.6777 82.1087 68.6188 80.3799C68.5955 79.7576 68.584 79.2733 68.5603 78.9392C68.4899 77.7638 68.2851 76.9222 67.9451 76.4033C67.6174 75.8849 67.0726 75.5274 66.3344 75.3085C67.1663 74.986 67.8107 74.4963 68.2088 73.839C68.6188 73.1821 68.7947 72.335 68.7947 71.2747C68.7947 69.8687 68.3962 68.8197 67.5644 68.1631C66.7326 67.4946 65.4208 67.1543 63.6397 67.1543H60.4184ZM61.8239 68.3646H63.5812C64.9286 68.3646 65.9185 68.6011 66.5396 69.085C67.1485 69.5805 67.4474 70.3584 67.4474 71.4186C67.4474 72.6061 67.1252 73.4761 66.4807 73.9833C65.8363 74.5018 64.7645 74.7324 63.2297 74.7324H61.8239V68.3646ZM76.5852 66.8376C74.9219 66.8376 73.6975 67.5117 72.9242 68.8835L72.8657 69.0274L72.7779 69.1425L72.7194 69.3152L72.6605 69.4307L72.602 69.6034L72.5435 69.7474L72.485 69.9204L72.4264 70.0644L72.3679 70.2374L72.3094 70.4105L72.2505 70.5832L72.2213 70.785L72.1628 70.9577L72.1335 71.1596L72.075 71.3323L72.0457 71.5629L72.0165 71.7644L71.9872 71.9663L71.9579 72.1681L71.9283 72.3984L71.8991 72.629L71.8698 72.8305L71.8405 73.0899V73.3205L71.8113 73.5508L71.782 73.8102V74.5594L71.7528 74.8476V75.3664C71.7528 78.3169 72.1394 80.495 72.9242 81.8781C73.7094 83.2612 74.9334 83.9527 76.5852 83.9527C78.2488 83.9527 79.4614 83.2612 80.2462 81.8781C81.0313 80.495 81.418 78.3166 81.418 75.3664C81.418 72.4159 81.0313 70.2549 80.2465 68.8831C79.4614 67.5 78.2488 66.8373 76.5855 66.8373L76.5852 66.8376ZM76.5852 68.0764C77.7451 68.0764 78.6122 68.6758 79.1629 69.8629C79.7251 71.0499 79.9828 72.8651 79.9828 75.3664C79.9828 77.8556 79.7251 79.7113 79.1629 80.8984C78.6122 82.0738 77.7451 82.6848 76.5852 82.6848C75.4137 82.6848 74.5412 82.0854 73.9786 80.8984L73.8908 80.6681L73.7738 80.4087L73.7149 80.1492L73.6272 79.8614L73.5394 79.5728L73.4809 79.285L73.4223 78.9389L73.3635 78.6222L73.3049 78.2477L73.2757 77.9016L73.2464 77.4986L73.1879 77.124V76.6915L73.1586 76.2882V75.3664C73.1586 72.8768 73.4164 71.0499 73.9786 69.8629C74.5412 68.6758 75.4137 68.0764 76.5852 68.0764ZM84.6233 83.6429V67.1502H86.2048L92.426 81.5337V67.1502H93.7378V83.6429H92.1212L85.9355 69.5359V83.6429H84.6233ZM111.99 78.0993L111.967 78.4564L111.92 78.8025L111.885 79.1366L111.826 79.4591L111.768 79.7702L111.709 80.0701L111.627 80.3579L111.545 80.6465L111.463 80.9114L111.369 81.165L111.264 81.4186L111.147 81.6492L111.029 81.8682L110.901 82.0871L110.76 82.2828L110.619 82.4788C109.835 83.4699 108.745 83.9657 107.351 83.9657C105.687 83.9657 104.457 83.2742 103.684 81.8911C102.899 80.508 102.513 78.3296 102.513 75.3794C102.513 72.4402 102.899 70.2734 103.684 68.8907C104.457 67.5189 105.687 66.8277 107.351 66.8277C108.733 66.8277 109.823 67.2769 110.619 68.1758C111.428 69.0863 111.85 70.3426 111.885 71.9447H110.491C110.432 70.723 110.128 69.7666 109.588 69.098C109.038 68.4297 108.3 68.0836 107.351 68.0836C106.191 68.0836 105.336 68.6717 104.773 69.8587C104.211 71.0458 103.942 72.8781 103.942 75.3794C103.942 77.8687 104.211 79.7127 104.774 80.9001C105.336 82.0755 106.191 82.6748 107.351 82.6748C108.3 82.6748 109.061 82.2715 109.624 81.4761C110.198 80.6811 110.526 79.5629 110.619 78.0993H111.99ZM119.698 66.8376C118.034 66.8376 116.81 67.5117 116.037 68.8835L115.978 69.0274L115.89 69.1425L115.832 69.3152L115.773 69.4307L115.715 69.6034L115.656 69.7474L115.597 69.9204L115.539 70.0644L115.48 70.2374L115.422 70.4105L115.363 70.5832L115.334 70.785L115.275 70.9577L115.246 71.1596L115.187 71.3323L115.158 71.5629L115.129 71.7644L115.099 71.9663L115.07 72.1681L115.041 72.3984L115.012 72.629L114.982 72.8305L114.953 73.0899V73.3205L114.924 73.5508V73.8102L114.895 74.0409V74.5594L114.865 74.8476V75.3664C114.865 78.3169 115.252 80.495 116.037 81.8781C116.822 83.2612 118.046 83.9527 119.698 83.9527C121.35 83.9527 122.574 83.2612 123.359 81.8781C124.132 80.495 124.53 78.3166 124.53 75.3664C124.53 72.4159 124.144 70.2549 123.359 68.8831C122.585 67.5 121.361 66.8376 119.698 66.8376ZM119.698 68.0764C120.869 68.0764 121.724 68.6758 122.275 69.8629C122.826 71.0499 123.095 72.8651 123.095 75.3664C123.095 77.8556 122.826 79.7113 122.275 80.8984C121.725 82.0738 120.869 82.6848 119.698 82.6848C118.538 82.6848 117.653 82.0854 117.091 80.8984L117.003 80.6681L116.886 80.4087L116.827 80.1492L116.74 79.8614L116.652 79.5728L116.593 79.285L116.535 78.9389L116.476 78.6222L116.417 78.2477L116.388 77.9016L116.359 77.4986L116.3 77.124V76.6915L116.271 76.2882V75.3664C116.271 72.8768 116.54 71.0499 117.091 69.8629C117.653 68.6758 118.538 68.0764 119.698 68.0764ZM127.736 83.6429V67.1502H129.317L135.538 81.5337V67.1502H136.85V83.6429H135.233L129.06 69.5359V83.6429H127.736ZM139.814 78.9636H141.208C141.255 80.1506 141.548 81.0611 142.087 81.7181C142.626 82.375 143.352 82.7094 144.289 82.7094C145.32 82.7094 146.128 82.4096 146.726 81.8219C147.312 81.2225 147.616 80.4159 147.616 79.3902C147.616 78.883 147.534 78.4451 147.37 78.0763C147.206 77.7189 146.937 77.3848 146.562 77.0849C146.234 76.7971 145.578 76.4743 144.617 76.1052C144.295 75.9933 143.978 75.8663 143.668 75.7248C142.391 75.1947 141.489 74.5724 140.95 73.8579C140.411 73.1434 140.142 72.2212 140.142 71.1034C140.142 69.8587 140.552 68.8327 141.372 68.0377C142.18 67.231 143.211 66.8273 144.477 66.8273C145.766 66.8273 146.784 67.1964 147.523 67.9342C148.272 68.6717 148.636 69.6973 148.636 70.9995V71.115H147.323C147.265 70.1466 146.996 69.3975 146.527 68.8673C146.046 68.3489 145.39 68.0836 144.559 68.0836C143.692 68.0836 142.965 68.3718 142.391 68.9595C141.829 69.5359 141.536 70.2734 141.536 71.1609C141.536 71.5643 141.595 71.9447 141.712 72.2904C141.841 72.6246 142.005 72.9474 142.239 73.2239C142.614 73.6735 143.469 74.1457 144.781 74.6529C145.027 74.7454 145.203 74.8147 145.332 74.8606C146.667 75.3907 147.604 76.0017 148.167 76.6933C148.729 77.3848 149.01 78.2833 149.01 79.3785C149.01 80.8192 148.589 81.9487 147.769 82.767C146.949 83.5967 145.824 84 144.383 84C142.953 84 141.852 83.5737 141.068 82.6978C140.271 81.8219 139.861 80.5773 139.814 78.9636H139.814ZM154.446 83.6429V68.487H150.721V67.1502H159.613V68.487H155.875V83.6429H154.446ZM165.095 67.1543L160.701 83.6357H161.961L163.367 78.4492H168.316L169.693 83.6357H171.07L166.705 67.1543H165.095ZM165.827 68.9698L168.023 77.2104H163.601L165.827 68.9698ZM173.402 83.6429V67.1502H174.995L181.204 81.5337V67.1502H182.528V83.6429H180.899L174.725 69.5359V83.6429H173.402ZM188.491 83.6429V68.487H184.753V67.1502H193.657V68.487H189.92V83.6429H188.491ZM195.93 83.6429H197.324V67.1502H195.93V83.6429ZM200.885 83.6429V67.1502H202.479L208.688 81.5337V67.1502H210V83.6429H208.383L202.21 69.5359V83.6429H200.885ZM108.862 49.8391L109.12 49.897L119.113 54.1267L117.204 48.9172L117.098 48.9402L117.204 48.8943L117.168 48.8134H117.203L119.113 43.5004L109.155 47.7302L108.886 47.7761C108.71 47.7761 108.522 47.7302 108.394 47.5801C108.23 47.442 108.16 47.2689 108.16 47.0616L108.206 46.831L112.529 37L107.128 38.9132L101.728 37L106.027 46.831L106.086 47.0616C106.086 47.2689 106.027 47.442 105.875 47.5801C105.746 47.7302 105.559 47.7761 105.371 47.7761L105.113 47.7302L95.1204 43.5004L97.0414 48.7096L97.147 48.6866L97.0414 48.7329L97.0651 48.8134H97.0414L95.1204 54.1267L105.09 49.897L105.347 49.8391C105.535 49.8391 105.723 49.897 105.851 50.0467C106.004 50.1848 106.086 50.3579 106.086 50.5652L106.027 50.7958L101.704 60.6268L107.105 58.7136L112.506 60.6268L108.206 50.7958L108.16 50.5652C108.16 50.3579 108.206 50.1848 108.358 50.0467C108.499 49.897 108.675 49.8391 108.862 49.8391Z" fill="#978555"/>
</svg>
