<svg width="120" height="120" viewBox="0 0 120 120" fill="none" xmlns="http://www.w3.org/2000/svg">
<path d="M109.567 91.8498L109.567 91.8499L109.574 91.8616C110.246 92.956 110.602 94.2154 110.602 95.4999C110.602 96.781 110.248 98.0372 109.579 99.1296C108.849 100.214 107.829 101.073 106.636 101.607C105.44 102.144 104.117 102.333 102.818 102.154L102.811 102.154L94.6105 101.154L94.2344 101.108L94.0886 101.457L90.9405 109.003C90.9401 109.004 90.9398 109.004 90.9394 109.005C90.4313 110.189 89.6043 111.208 88.5507 111.949C87.5003 112.687 86.266 113.12 84.9847 113.2H84.5H84.4986C83.2884 113.203 82.0989 112.886 81.0512 112.28C80.0035 111.674 79.135 110.802 78.534 109.752L78.5332 109.75L45.486 52.4051C45.4856 52.4043 45.4851 52.4035 45.4847 52.4028C45.0759 51.673 44.969 50.8122 45.1871 50.0046C45.4051 49.1969 45.9309 48.5068 46.6516 48.082C46.6523 48.0816 46.6529 48.0812 46.6536 48.0808L72.1955 33.3855C72.9301 32.9809 73.7943 32.8809 74.602 33.107C75.4111 33.3336 76.0986 33.8692 76.5161 34.5984L76.517 34.5999L109.567 91.8498Z" fill="#FAFAFA" stroke="#3ACD00"/>
<path d="M75.3519 48.1339L75.3504 48.1331L49.7573 33.3871C49.0195 32.9941 48.1585 32.9005 47.3533 33.126C46.5466 33.3519 45.8583 33.8806 45.4319 34.6017C45.4315 34.6024 45.4311 34.6032 45.4306 34.6039L12.383 91.8498L12.3762 91.8617L12.376 91.8616C11.7036 92.956 11.3476 94.2153 11.3476 95.4998C11.3476 96.7814 11.702 98.0379 12.3714 99.1305C13.0848 100.201 14.0793 101.054 15.246 101.596C16.4142 102.139 17.7096 102.349 18.9895 102.203C18.9907 102.203 18.9919 102.203 18.9931 102.203L27.0857 101.154L27.461 101.105L27.6097 101.453L30.8595 109.053L75.3519 48.1339ZM75.3519 48.1339C75.7248 48.347 76.0509 48.6329 76.3109 48.9747C76.5704 49.3156 76.7587 49.7052 76.8647 50.1203C77.0541 50.9114 76.9301 51.7451 76.5187 52.4469L76.5169 52.45L43.4669 109.75L43.4651 109.753M75.3519 48.1339L43.4651 109.753M43.4651 109.753C42.8661 110.81 41.9988 111.689 40.951 112.303C39.9036 112.917 38.7129 113.243 37.499 113.25C37.4985 113.25 37.498 113.25 37.4975 113.25L36.8153 113.25C35.534 113.17 34.2997 112.737 33.2493 111.999C32.1951 111.257 31.3678 110.238 30.8597 109.053L43.4651 109.753Z" fill="#FAFAFA" stroke="#3ACD00"/>
<path d="M96.695 37.452L96.6965 37.4535L101.143 41.8997C102.246 43.0523 103.111 44.4109 103.689 45.8979C104.268 47.3866 104.547 48.9748 104.512 50.5717C104.476 52.1685 104.126 53.7426 103.481 55.204C102.836 56.6654 101.91 57.9853 100.755 59.0883L100.755 59.0882L100.748 59.0944L96.2985 63.4943L96.2951 63.4977C95.7787 64.0182 95.3716 64.6366 95.0977 65.3167C94.8243 65.9955 94.6891 66.722 94.7 67.4538L94.7 72.4479C94.7 72.4485 94.7 72.4492 94.7 72.4498C94.6869 75.6416 93.4131 78.699 91.1561 80.956C88.8991 83.213 85.8417 84.4868 82.6499 84.4999C82.6493 84.4999 82.6487 84.4999 82.648 84.4999L77.65 84.4999L77.6479 84.4999C76.9202 84.5029 76.2004 84.6503 75.5301 84.9336C74.8605 85.2165 74.2537 85.6293 73.7447 86.1481C73.7441 86.1487 73.7435 86.1493 73.7429 86.1499L69.3496 90.5432C69.349 90.5438 69.3485 90.5443 69.3479 90.5449C67.0667 92.785 63.9973 94.0401 60.8 94.0401C57.6028 94.0401 54.5333 92.785 52.2521 90.5449C52.2515 90.5443 52.251 90.5438 52.2504 90.5432L47.8571 86.1499C47.8565 86.1493 47.856 86.1488 47.8554 86.1482C47.3464 85.6293 46.7395 85.2165 46.0699 84.9336C45.3996 84.6503 44.6798 84.5029 43.9521 84.4999H43.95H38.9521C37.3637 84.4871 35.7934 84.1617 34.3307 83.5422C32.8675 82.9225 31.5407 82.0206 30.426 80.8881C29.3113 79.7556 28.4306 78.4146 27.8342 76.9417C27.2378 75.4688 26.9373 73.8929 26.95 72.3039V72.2999V67.3038C26.9609 66.572 26.8258 65.8455 26.5523 65.1667C26.2784 64.4866 25.8713 63.8682 25.355 63.3477L25.3516 63.3444L20.9057 58.9485C20.905 58.9478 20.9043 58.9471 20.9036 58.9464C18.6563 56.67 17.3973 53.5992 17.4 50.4003L17.4 50.3982C17.3946 48.8211 17.7013 47.2586 18.3026 45.8007C18.9039 44.3428 19.7878 43.0183 20.9034 41.9036L20.9036 41.9035L25.3536 37.4535L25.3536 37.4535L25.3595 37.4474C25.8795 36.9094 26.2843 36.271 26.5491 35.5712C26.8126 34.875 26.9319 34.1326 26.9 33.3889V28.4008C26.9062 26.7958 27.2316 25.208 27.8574 23.73C28.4833 22.2517 29.3971 20.9126 30.5456 19.791C31.6941 18.6693 33.0543 17.7874 34.547 17.1966C36.0397 16.6058 37.635 16.3179 39.2401 16.3498L39.2401 16.3499H39.25H44.2486C44.972 16.3539 45.689 16.2151 46.3586 15.9416C47.0287 15.6679 47.6382 15.2646 48.1521 14.7549L48.1536 14.7534L52.5492 10.3578C54.8548 8.1625 57.9164 6.93799 61.1 6.93799C64.2837 6.93799 67.3453 8.1625 69.6508 10.3578L74.1465 14.8535L74.1479 14.8549C74.6618 15.3646 75.2713 15.7679 75.9414 16.0416C76.6111 16.3151 77.3281 16.4539 78.0514 16.4499H83.049C86.2494 16.4628 89.3144 17.7432 91.573 20.0108C93.8318 22.2786 95.1001 25.3491 95.1 28.5499L95.1 33.547C95.1 33.5475 95.1 33.5479 95.1 33.5484C95.096 34.2717 95.2347 34.9888 95.5083 35.6585C95.782 36.3286 96.1853 36.9381 96.695 37.452Z" fill="#FAFAFA" stroke="#3ACD00"/>
<path d="M72.0505 39.3562L58.054 53.4027L57.6989 53.7591L57.3447 53.4018L51.6986 47.7058C51.0745 47.1046 50.2415 46.7687 49.3748 46.7687C48.5078 46.7687 47.6747 47.1048 47.0504 47.7063C46.4438 48.3154 46.1031 49.14 46.1031 49.9998C46.1031 50.861 46.445 51.6871 47.0536 52.2965L47.0544 52.2973L55.3501 60.6429C55.9832 61.2486 56.8231 61.5907 57.6992 61.5998C58.5597 61.5884 59.3829 61.2464 59.9981 60.6444C59.9987 60.6438 59.9993 60.6433 59.9998 60.6427L76.696 43.9465L72.0505 39.3562ZM72.0505 39.3562C72.6748 38.7548 73.5079 38.4187 74.3748 38.4187C75.2418 38.4187 76.0749 38.7548 76.6992 39.3563C77.3058 39.9654 77.6465 40.79 77.6465 41.6498C77.6465 42.5109 77.3047 43.3369 76.6963 43.9462L72.0505 39.3562Z" fill="#FAFAFA" stroke="#3ACD00"/>
</svg>
