<svg width="120" height="120" viewBox="0 0 120 120" fill="none" xmlns="http://www.w3.org/2000/svg">
<path d="M59.1293 113.75L59.1334 113.751C59.6988 113.917 60.3 113.917 60.8653 113.751L60.8695 113.75C72.7463 110.372 83.4571 103.775 91.8166 94.6875C113.444 70.94 110.625 38.7424 109.101 28.7251L109.1 28.7217C109.003 28.0485 108.695 27.4234 108.221 26.9357C107.747 26.448 107.131 26.1225 106.461 26.0056C106.461 26.0056 106.461 26.0056 106.46 26.0056L106.546 25.513L59.1293 113.75ZM59.1293 113.75C47.2521 110.372 36.5412 103.774 28.1819 94.6853C6.55496 70.9398 9.38121 38.7425 10.8981 28.7228L10.8986 28.7198M59.1293 113.75L10.8986 28.7198M10.8986 28.7198C10.9962 28.0466 11.3041 27.4216 11.7781 26.9338C12.2522 26.446 12.8683 26.1205 13.5384 26.0037L10.8986 28.7198Z" fill="#FAFAFA" stroke="#3ACD00"/>
<path d="M60.9937 100.579L60.9902 100.58C60.3494 100.806 59.6503 100.806 59.0095 100.58L59.006 100.579C50.3953 97.6095 42.6506 92.5609 36.4589 85.8808C22.2644 70.4 20.6354 50.1001 21.2255 37.8524L21.2257 37.8475C21.2539 37.1168 21.5166 36.4145 21.9751 35.8447L21.5856 35.5313L21.9751 35.8447C22.433 35.2756 23.0619 34.8689 23.7688 34.6847C28.6168 33.4802 33.3811 31.9606 38.0313 30.1356L38.0313 30.1356C45.1189 27.3537 51.9134 23.876 58.3149 19.7537L58.3187 19.7512C58.8181 19.4233 59.4024 19.2485 59.9998 19.2485C60.5973 19.2485 61.1816 19.4233 61.681 19.7512L61.6848 19.7537C68.0871 23.8763 74.8821 27.3545 81.9702 30.1375L81.9704 30.1375C86.6203 31.961 91.3838 33.48 96.231 34.6847C96.9378 34.8689 97.5667 35.2756 98.0246 35.8447C98.4831 36.4145 98.7458 37.1168 98.7739 37.8475L98.7742 37.8524C99.3643 50.1001 97.7353 70.3998 83.541 85.8806C77.3493 92.5608 69.6045 97.6095 60.9937 100.579Z" fill="#FAFAFA" stroke="#3ACD00"/>
<path d="M70.2482 49.4375L56.2517 63.484L55.8966 63.8404L55.5424 63.4831L49.8963 57.7871C49.2721 57.1859 48.4392 56.85 47.5725 56.85C46.7055 56.85 45.8724 57.1861 45.2481 57.7876C44.6415 58.3967 44.3008 59.2213 44.3008 60.0811C44.3008 60.9423 44.6426 61.7684 45.2513 62.3778L45.2521 62.3786L53.5478 70.7242C54.1809 71.3299 55.0207 71.672 55.8969 71.6811C56.7574 71.6697 57.5806 71.3277 58.1957 70.7257C58.1963 70.7251 58.1969 70.7246 58.1975 70.724L74.8937 54.0278L70.2482 49.4375ZM70.2482 49.4375C70.8724 48.8361 71.7055 48.5 72.5725 48.5C73.4395 48.5 74.2726 48.8361 74.8969 49.4376C75.5035 50.0467 75.8442 50.8713 75.8442 51.7311C75.8442 52.5922 75.5024 53.4182 74.8939 54.0275L70.2482 49.4375Z" fill="#FAFAFA" stroke="#3ACD00"/>
</svg>
